{
.appVersion = "3134";
.formatVersion = 3;
classes = (
{
code = "A Aacute Abreve Acircumflex Adieresis Agrave Amacron Aogonek Aring Atilde AE B C Cacute Ccaron Ccedilla Cdotaccent D Eth Dcaron Dcroat E Eacute Ecaron Ecircumflex Edieresis Edotaccent Egrave Emacron Eogonek F G Gbreve Gdotaccent H Hbar I Iacute Icircumflex Idieresis Idotaccent Igrave Imacron Iogonek J K L Lacute Lcaron Ldot Lslash M N Nacute Ncaron Ntilde Eng O Oacute Ocircumflex Odieresis Ograve Ohungarumlaut Omacron Oslash Otilde OE P Thorn Q R Racute Rcaron S Sacute Scaron Scedilla T Tbar Tcaron U Uacute Ucircumflex Udieresis Ugrave Uhungarumlaut Umacron Uogonek Uring V W Wacute Wcircumflex Wdieresis Wgrave X Y Yacute Ycircumflex Ydieresis Ygrave Z Zacute Zcaron Zdotaccent A_E A_O C_H C_Q D_E E_A Eacute_E E_S E_U E_T_E F_F_E F_V I_E I_L L_E L_L_E L_U M_P N_A N_E N_N_E O_F O_T_E O_Idieresis P_M R_E R_I_C_E R_S S_E S_L S_S_E S_T_E_S T_E T_T_E U_E U_L_L_E X_C_E X_L X_S_E X_S_S 
";
name = Uppercase;
}
);
customParameters = (
{
name = panose;
value = (
0,
0,
4,
0,
0,
0,
0,
0,
0,
0
);
},
{
name = unicodeRanges;
value = (
0,
1,
2
);
},
{
name = codePageRanges;
value = (
"1252",
"1250",
"1254",
"1257",
"bit 29"
);
},
{
name = blueScale;
value = 0.037;
},
{
name = glyphOrder;
value = (
.notdef,
A,
Aacute,
Abreve,
Acircumflex,
Adieresis,
Agrave,
Amacron,
Aogonek,
Aring,
Atilde,
AE,
B,
C,
Cacute,
Ccaron,
Ccedilla,
Cdotaccent,
D,
Eth,
Dcaron,
Dcroat,
E,
Eacute,
Ecaron,
Ecircumflex,
Edieresis,
Edotaccent,
Egrave,
Emacron,
Eogonek,
F,
G,
Gbreve,
Gcommaaccent,
Gdotaccent,
H,
Hbar,
I,
IJ,
Iacute,
Icircumflex,
Idieresis,
Idotaccent,
Igrave,
Imacron,
Iogonek,
J,
K,
Kcommaaccent,
L,
Lacute,
Lcaron,
Lcommaaccent,
Ldot,
Lslash,
M,
N,
Nacute,
Ncaron,
Ncommaaccent,
Eng,
Ntilde,
O,
Oacute,
Ocircumflex,
Odieresis,
Ograve,
Ohungarumlaut,
Omacron,
Oslash,
Otilde,
OE,
P,
Thorn,
Q,
R,
Racute,
Rcaron,
Rcommaaccent,
S,
Sacute,
Scaron,
Scedilla,
Scommaaccent,
T,
Tbar,
Tcaron,
Tcedilla,
uni021A,
U,
Uacute,
Ucircumflex,
Udieresis,

glyphs = (
{
glyphname = .notdef;
lastChange = "2022-11-29 15:52:45 +0000";
layers = (
{
hints = (
{
horizontal = 1;
place = (-56, -6);
place = (-56, -6);
type = Stem;
},
{
horizontal = 1;
place = (594, -6);
place = (594, -6);
type = Stem;
},
{
place = (-56, -6);
place = (-56, -6);
type = Stem;
},
{
place = (394, -6);
place = (394, -6);
type = Stem;
}
);
layerId = m01;
shapes = (
{
closed = 1;
nodes = (
(-56,0,l),
(444,0,l),
(592,700,l),
(92,700,l)
);
},
{
closed = 1;
nodes = (
(278,395,l),
(162,650,l),
(502,650,l)
);
},
{
closed = 1;
nodes = (
(298,350,l),
(522,605,l),
(414,95,l)
);
},
{
closed = 1;
nodes = (
(34,50,l),
(259,305,l),
(374,50,l)
);
},
{
closed = 1;
nodes = (
(122,605,l),
(238,350,l),
(14,95,l)
);
}
);
width = 500;
}
);
note = ".notdef";
},
{
glyphname = A;
kernLeft = A;
kernRight = A;
lastChange = "2022-11-29 15:52:45 +0000";
layers = (
{
hints = (
{
horizontal = 1;
place = (-56, 21);
target = up;
type = BottomGhost;
},
{
horizontal = 1;
place = (197, -4);
place = (197, -4);
type = Stem;
},
{
horizontal = 1;
place = (584, -6);
place = (584, -6);
type = Stem;
},
{
place = (-24, 531);
place = (-24, 531);
type = Stem;
}
);
layerId = m01;
shapes = (
{
closed = 1;
nodes = (
(459,253,l),
(496,0,l),
(563,0,l),
(460,690,l),
(377,690,l),
(-24,0,l),
(42,0,l),
(184,253,l)
);
},
{
closed = 1;
nodes = (
(214,305,l),
(407,640,l),
(453,305,l)
);
}
);
width = 630;
}
);
note = A;
unicode = 65;
},
{
glyphname = Aacute;
kernLeft = A;
kernRight = A;
lastChange = "2022-11-29 15:52:45 +0000";
layers = (
{
hints = (
{
horizontal = 1;
place = (-56, 21);
target = up;
type = BottomGhost;
},
{
horizontal = 1;
place = (197, -4);
place = (197, -4);
type = Stem;
},
{
horizontal = 1;
place = (584, -6);
place = (584, -6);
type = Stem;
},
{
horizontal = 1;
place = (680, 38);
place = (680, 38);
type = Stem;
},
{
place = (-24, 531);
place = (-24, 531);
type = Stem;
}
);
layerId = m01;
shapes = (
{
closed = 1;
nodes = (
(445,736,l),
(537,830,l),
(477,830,l),
(403,736,l)
);
},
{
closed = 1;
nodes = (
(459,253,l),
(496,0,l),
(563,0,l),
(460,690,l),
(377,690,l),
(-24,0,l),
(42,0,l),
(184,253,l)
);
},
{
closed = 1;
nodes = (
(214,305,l),
(407,640,l),
(453,305,l)
);
}
);
width = 630;
}
);
note = Aacute;
unicode = 193;
},
{
glyphname = Abreve;
kernLeft = A;
kernRight = A;
lastChange = "2022-11-29 15:52:45 +0000";
layers = (
{
hints = (
{
horizontal = 1;
place = (-56, 21);
target = up;
type = BottomGhost;
},
{
horizontal = 1;
place = (197, -4);
place = (197, -4);
type = Stem;
},
{
horizontal = 1;
place = (584, -6);
place = (584, -6);
type = Stem;
},
{
horizontal = 1;
place = (666, -14);
place = (666, -14);
type = Stem;
},
{
place = (172, -16);
place = (172, -16);
type = Stem;
},
{
place = (332, -16);
place = (332, -16);
type = Stem;
}
);
layerId = m01;
shapes = (
{
closed = 1;
nodes = (
(491,722,o),
(534,762,o),
(548,830,c),
(508,830,l),
(498,787,o),
(469,764,o),
(434,764,cs),
(399,764,o),
(380,787,o),
(388,830,c),
(348,830,l),
(334,762,o),
(358,722,o),
(425,722,cs)
);
},
{
closed = 1;
nodes = (
(459,253,l),
(496,0,l),
(563,0,l),
(460,690,l),
(377,690,l),
(-24,0,l),
(42,0,l),
(184,253,l)
);
},
{
closed = 1;
nodes = (
(214,305,l),
(407,640,l),
(453,305,l)
);
}
);
width = 630;
}
);
note = Abreve;
unicode = 258;
},
{
glyphname = Acircumflex;
kernLeft = A;
kernRight = A;
lastChange = "2022-11-29 15:52:45 +0000";
layers = (
{
hints = (
{
horizontal = 1;
place = (-56, 21);
target = up;
type = BottomGhost;
},
{
horizontal = 1;
place = (197, -4);
place = (197, -4);
type = Stem;
},
{
horizontal = 1;
place = (584, -6);
place = (584, -6);
type = Stem;
},
{
horizontal = 1;
place = (680, 38);
place = (680, 38);
type = Stem;
},
{
place = (-24, 531);
place = (-24, 531);
type = Stem;
}
);
layerId = m01;
shapes = (
{
closed = 1;
nodes = (
(389,736,l),
(442,802,l),
(467,736,l),
(518,736,l),
(471,830,l),
(426,830,l),
(340,736,l)
);
},
{
closed = 1;
nodes = (
(459,253,l),
(496,0,l),
(563,0,l),
(460,690,l),
(377,690,l),
(-24,0,l),
(42,0,l),
(184,253,l)
);
},
{
closed = 1;
nodes = (
(214,305,l),
(407,640,l),
(453,305,l)
);
}
);
width = 630;
}
);
note = Acircumflex;
unicode = 194;
},
{
glyphname = Adieresis;
kernLeft = A;
kernRight = A;
lastChange = "2022-11-29 15:52:45 +0000";
layers = (
{
hints = (
{
horizontal = 1;
place = (-56, 21);
target = up;
type = BottomGhost;
},
{
horizontal = 1;
place = (197, -4);
place = (197, -4);
type = Stem;
},
{
horizontal = 1;
place = (584, -6);
place = (584, -6);
type = Stem;
},
{
horizontal = 1;
place = (691, 16);
place = (691, 16);
type = Stem;
},
{
place = (179, 16);
place = (179, 16);
type = Stem;
},
{
place = (293, 16);
place = (293, 16);
type = Stem;
}
);
layerId = m01;
shapes = (
{
closed = 1;
nodes = (
(459,253,l),
(496,0,l),
(563,0,l),
(460,690,l),
(377,690,l),
(-24,0,l),
(42,0,l),
(184,253,l)
);
},
{
closed = 1;
nodes = (
(214,305,l),
(407,640,l),
(453,305,l)
);
},
{
closed = 1;
nodes = (
(337,747,l),
(409,747,l),
(425,819,l),
(353,819,l)
);
},
{
closed = 1;
nodes = (
(452,747,l),
(524,747,l),
(539,819,l),
(467,819,l)
);
}
);
width = 630;
}
);
note = Adieresis;
unicode = 196;
},
{
glyphname = Agrave;
kernLeft = A;
kernRight = A;
lastChange = "2022-11-29 15:52:45 +0000";
layers = (
{
hints = (
{
horizontal = 1;
place = (-56, 21);
target = up;
type = BottomGhost;
},
{
horizontal = 1;
place = (197, -4);
place = (197, -4);
type = Stem;
},
{
horizontal = 1;
place = (584, -6);
place = (584, -6);
type = Stem;
},
{
horizontal = 1;
place = (680, 38);
place = (680, 38);
type = Stem;
},
{
place = (-24, 531);
place = (-24, 531);
type = Stem;
}
);
layerId = m01;
shapes = (
{
closed = 1;
nodes = (
(409,736,l),
(451,736,l),
(418,830,l),
(357,830,l)
);
},
{
closed = 1;
nodes = (
(459,253,l),
(496,0,l),
(563,0,l),
(460,690,l),
(377,690,l),
(-24,0,l),
(42,0,l),
(184,253,l)
);
},
{
closed = 1;
nodes = (
(214,305,l),
(407,640,l),
(453,305,l)
);
}
);
width = 630;
}
);
note = Agrave;
unicode = 192;
},
{
glyphname = Amacron;
kernLeft = A;
kernRight = A;
lastChange = "2022-11-29 15:52:45 +0000";
layers = (
{
hints = (
{
horizontal = 1;
place = (-56, 21);
target = up;
type = BottomGhost;
},
{
horizontal = 1;
place = (197, -4);
place = (197, -4);
type = Stem;
},
{
horizontal = 1;
place = (584, -6);
place = (584, -6);
type = Stem;
},
{
horizontal = 1;
place = (707, -16);
place = (707, -16);
type = Stem;
},
{
place = (171, 146);
place = (171, 146);
type = Stem;
}
);
layerId = m01;
shapes = (
{
closed = 1;
nodes = (
(535,763,l),
(543,803,l),
(341,803,l),
(333,763,l)
);
},
{
closed = 1;
nodes = (
(459,253,l),
(496,0,l),
(563,0,l),
(460,690,l),
(377,690,l),
(-24,0,l),
(42,0,l),
(184,253,l)
);
},
{
closed = 1;
nodes = (
(214,305,l),
(407,640,l),
(453,305,l)
);
}
);
width = 630;
}
);
note = Amacron;
unicode = 256;
},
{
glyphname = Aogonek;
kernLeft = A;
kernRight = A;
lastChange = "2022-11-29 15:52:45 +0000";
layers = (
{
hints = (
{
horizontal = 1;
place = (-279, -15);
place = (-279, -15);
type = Stem;
},
{
horizontal = 1;
place = (-56, 21);
target = up;
type = BottomGhost;
},
{
horizontal = 1;
place = (197, -4);
place = (197, -4);
type = Stem;
},
{
horizontal = 1;
place = (584, -6);
place = (584, -6);
type = Stem;
},
{
place = (377, 4);
place = (377, 4);
type = Stem;
}
);
layerId = m01;
shapes = (
{
closed = 1;
nodes = (
(563,0,l),
(460,690,l),
(377,690,l),
(-24,0,l),
(42,0,l),
(184,253,l),
(459,253,l),
(494,10,l),
(425,-16,o),
(362,-71,o),
(346,-144,cs),
(333,-204,o),
(365,-223,o),
(411,-223,cs),
(443,-223,o),
(472,-215,o),
(499,-197,c),
(507,-158,l),
(483,-175,o),
(464,-182,o),
(443,-182,cs),
(414,-182,o),
(401,-168,o),
(409,-131,cs),
(422,-67,o),
(479,-17,o),
(541,0,c)
);
},
{
closed = 1;
nodes = (
(214,305,l),
(407,640,l),
(453,305,l)
);
}
);
width = 630;
}
);
note = Aogonek;
unicode = 260;
},
{
glyphname = Aring;
kernLeft = A;
kernRight = A;
lastChange = "2022-11-29 15:52:45 +0000";
layers = (
{
hints = (
{
horizontal = 1;
place = (-56, 21);
target = up;
type = BottomGhost;
},
{
horizontal = 1;
place = (197, -4);
place = (197, -4);
type = Stem;
},
{
horizontal = 1;
place = (662, -25);
place = (662, -25);
type = Stem;
},
{
horizontal = 1;
place = (776, -25);
place = (776, -25);
type = Stem;
},
{
place = (192, -16);
place = (192, -16);
type = Stem;
},
{
place = (312, -15);
place = (312, -15);
type = Stem;
},
{
horizontal = 1;
place = (584, -6);
place = (584, -6);
type = Stem;
}
);
layerId = m01;
shapes = (
{
closed = 1;
nodes = (
(470,718,o),
(512,748,o),
(521,791,cs),
(530,834,o),
(501,863,o),
(455,863,cs),
(409,863,o),
(369,834,o),
(360,791,cs),
(351,748,o),
(378,718,o),
(424,718,cs)
);
},
{
closed = 1;
nodes = (
(473,832,o),
(485,814,o),
(480,791,cs),
(475,767,o),
(455,749,o),
(431,749,cs),
(407,749,o),
(395,767,o),
(400,791,cs),
(405,814,o),
(425,832,o),
(449,832,cs)
);
},
{
closed = 1;
nodes = (
(459,253,l),
(496,0,l),
(563,0,l),
(460,690,l),
(377,690,l),
(-24,0,l),
(42,0,l),
(184,253,l)
);
},
{
closed = 1;
nodes = (
(214,305,l),
(407,640,l),
(453,305,l)
);
}
);
width = 630;
}
);
note = Aring;
unicode = 197;
},
{
glyphname = Atilde;
kernLeft = A;
kernRight = A;
lastChange = "2022-11-29 15:52:45 +0000";
layers = (
{
hints = (
{
horizontal = 1;
place = (-56, 21);
target = up;
type = BottomGhost;
},
{
horizontal = 1;
place = (197, -4);
place = (197, -4);
type = Stem;
},
{
horizontal = 1;
place = (584, -6);
place = (584, -6);
type = Stem;
},
{
horizontal = 1;
place = (720, -17);
place = (720, -17);
type = Stem;
},
{
place = (173, -25);
place = (173, -25);
type = Stem;
},
{
place = (340, -25);
place = (340, -25);
type = Stem;
},
{
horizontal = 1;
place = (696, -17);
place = (696, -17);
type = Stem;
}
);
layerId = m01;
shapes = (
{
closed = 1;
nodes = (
(394,776,o),
(405,773,o),
(427,765,cs),
(452,756,o),
(467,752,o),
(485,752,cs),
(514,752,o),
(534,767,o),
(543,811,c),
(512,811,l),
(509,796,o),
(502,791,o),
(492,791,cs),
(483,791,o),
(471,794,o),
(449,802,cs),
(424,811,o),
(410,815,o),
(392,815,cs),
(363,815,o),
(343,800,o),
(333,756,c),
(364,756,l),
(368,771,o),
(375,776,o),
(385,776,cs)
);
},
{
closed = 1;
nodes = (
(459,253,l),
(496,0,l),
(563,0,l),
(460,690,l),
(377,690,l),
(-24,0,l),
(42,0,l),
(184,253,l)
);
},
{
closed = 1;
nodes = (
(214,305,l),
(407,640,l),
(453,305,l)
);
}
);
width = 630;
}
);
note = Atilde;
unicode = 195;
},
{
glyphname = AE;
lastChange = "2022-11-29 15:52:45 +0000";
layers = (
{
hints = (
{
horizontal = 1;
place = (-56, -5);
place = (-56, -5);
type = Stem;
},
{
horizontal = 1;
place = (263, -4);
place = (263, -4);
type = Stem;
},
{
horizontal = 1;
place = (583, -5);
place = (583, -5);
type = Stem;
},
{
place = (371, 5);
place = (371, 5);
type = Stem;
},
{
place = (389, 2);
place = (389, 2);
type = Stem;
},
{
horizontal = 1;
place = (197, -4);
place = (197, -4);
type = Stem;
}
);
layerId = m01;
shapes = (
{
closed = 1;
nodes = (
(829,51,l),
(466,51,l),
(508,319,l),
(849,319,l),
(861,371,l),
(518,371,l),
(560,639,l),
(943,639,l),
(954,690,l),
(476,690,l),
(-82,0,l),
(-14,0,l),
(188,253,l),
(436,253,l),
(396,0,l),
(818,0,l)
);
},
{
closed = 1;
nodes = (
(445,305,l),
(230,305,l),
(498,640,l)
);
}
);
width = 904;
}
);
note = AE;
unicode = 198;
},
{
glyphname = B;
lastChange = "2022-11-29 15:52:45 +0000";
layers = (
{
hints = (
{
horizontal = 1;
place = (-56, -4);
place = (-56, -4);
type = Stem;
},
{
horizontal = 1;
place = (278, -5);
place = (278, -5);
type = Stem;
},
{
horizontal = 1;
place = (582, -4);
place = (582, -4);
type = Stem;
},
{
place = (43, 6);
place = (43, 6);
type = Stem;
},
{
place = (451, 10);
place = (451, 10);
type = Stem;
},
{
place = (425, 11);
place = (425, 11);
type = Stem;
}
);
layerId = m01;
shapes = (
{
closed = 1;
nodes = (
(526,387,o),
(585,437,o),
(602,521,cs),
(623,618,o),
(570,675,o),
(466,687,cs),
(432,690,o),
(411,690,o),
(381,690,cs),
(189,690,l),
(43,0,l),
(253,0,ls),
(282,0,o),
(303,0,o),
(335,4,cs),
(432,15,o),
(533,76,o),
(558,196,cs),
(578,290,o),
(539,345,o),
(446,366,c)
);
},
{
closed = 1;
nodes = (
(240,638,l),
(374,638,ls),
(394,638,o),
(413,638,o),
(433,637,cs),
(501,631,o),
(552,598,o),
(534,514,cs),
(517,435,o),
(460,396,o),
(387,388,cs),
(366,386,o),
(349,385,o),
(332,385,cs),
(187,385,l)
);
},
{
closed = 1;
nodes = (
(312,52,o),
(294,52,o),
(278,52,cs),
(116,52,l),
(176,334,l),
(332,334,ls),
(348,334,o),
(362,333,o),
(385,331,cs),
(475,323,o),
(508,272,o),
(491,190,cs),
(472,102,o),
(399,59,o),
(325,53,cs)
);
}
);
width = 612;
}
);
note = B;
unicode = 66;
},
{
glyphname = C;
kernLeft = C;
kernRight = C;
lastChange = "2022-11-29 15:52:45 +0000";
layers = (
{
hints = (
{
horizontal = 1;
place = (-70, -6);
place = (-70, -6);
type = Stem;
},
{
horizontal = 1;
place = (598, -6);
place = (598, -6);
type = Stem;
},
{
place = (-7, 13);
place = (-7, 13);
type = Stem;
},
{
place = (522, 6);
place = (522, 6);
type = Stem;
},
{
place = (525, 6);
place = (525, 6);
type = Stem;
}
);
layerId = m01;
shapes = (
{
closed = 1;
nodes = (
(274,704,o),
(110,554,o),
(65,342,cs),
(21,132,o),
(108,-14,o),
(297,-14,cs),
(473,-14,o),
(585,92,o),
(630,219,cs),
(633,229,l),
(571,229,l),
(567,219,ls),
(524,113,o),
(439,36,o),
(311,36,cs),
(171,36,o),
(94,153,o),
(135,345,cs),
(175,533,o),
(308,654,o),
(450,654,cs),
(573,654,o),
(626,580,o),
(625,475,cs),
(625,465,l),
(687,465,l),
(688,475,ls),
(697,606,o),
(629,704,o),
(463,704,cs)
);
}
);
width = 691;
}
);
note = C;
unicode = 67;
},
{
glyphname = Cacute;
kernLeft = C;
kernRight = C;
lastChange = "2022-11-29 15:52:45 +0000";
layers = (
{
hints = (
{
horizontal = 1;
place = (-70, -6);
place = (-70, -6);
type = Stem;
},
{
horizontal = 1;
place = (598, -6);
place = (598, -6);
type = Stem;
},
{
horizontal = 1;
place = (680, 38);
place = (680, 38);
type = Stem;
},
{
place = (-7, 13);
place = (-7, 13);
type = Stem;
},
{
place = (522, 6);
place = (522, 6);
type = Stem;
},
{
place = (525, 6);
place = (525, 6);
type = Stem;
}
);
layerId = m01;
shapes = (
{
closed = 1;
nodes = (
(475,736,l),
(567,830,l),
(507,830,l),
(433,736,l)
);
},
{
closed = 1;
nodes = (
(274,704,o),
(110,554,o),
(65,342,cs),
(21,132,o),
(108,-14,o),
(297,-14,cs),
(473,-14,o),
(585,92,o),
(630,219,cs),
(633,229,l),
(571,229,l),
(567,219,ls),
(524,113,o),
(439,36,o),
(311,36,cs),
(171,36,o),
(94,153,o),
(135,345,cs),
(175,533,o),
(308,654,o),
(450,654,cs),
(573,654,o),
(626,580,o),
(625,475,cs),
(625,465,l),
(687,465,l),
(688,475,ls),
(697,606,o),
(629,704,o),
(463,704,cs)
);
}
);
width = 691;
}
);
note = Cacute;
unicode = 262;
},
{
glyphname = Ccaron;
kernLeft = C;
kernRight = C;
lastChange = "2022-11-29 15:52:45 +0000";
layers = (
{
hints = (
{
horizontal = 1;
place = (-70, -6);
place = (-70, -6);
type = Stem;
},
{
horizontal = 1;
place = (598, -6);
place = (598, -6);
type = Stem;
},
{
horizontal = 1;
place = (680, 38);
place = (680, 38);
type = Stem;
},
{
place = (-7, 13);
place = (-7, 13);
type = Stem;
},
{
place = (522, 6);
place = (522, 6);
type = Stem;
},
{
place = (525, 6);
place = (525, 6);
type = Stem;
}
);
layerId = m01;
shapes = (
{
closed = 1;
nodes = (
(436,736,l),
(481,736,l),
(568,830,l),
(518,830,l),
(465,764,l),
(440,830,l),
(390,830,l)
);
},
{
closed = 1;
nodes = (
(571,229,l),
(567,219,ls),
(524,113,o),
(439,36,o),
(311,36,cs),
(171,36,o),
(94,153,o),
(135,345,cs),
(175,533,o),
(308,654,o),
(450,654,cs),
(573,654,o),
(626,580,o),
(625,475,cs),
(625,465,l),
(687,465,l),
(688,475,ls),
(697,606,o),
(629,704,o),
(463,704,cs),
(274,704,o),
(110,554,o),
(65,342,cs),
(21,132,o),
(108,-14,o),
(297,-14,cs),
(473,-14,o),
(585,92,o),
(630,219,cs),
(633,229,l)
);
}
);
width = 691;
}
);
note = Ccaron;
unicode = 268;
},
{
glyphname = Ccedilla;
kernLeft = C;
kernRight = C;
lastChange = "2022-11-29 15:52:45 +0000";
layers = (
{
hints = (
{
horizontal = 1;
place = (-266, -22);
place = (-266, -22);
type = Stem;
},
{
horizontal = 1;
place = (-69, -7);
place = (-69, -7);
type = Stem;
},
{
horizontal = 1;
place = (598, -6);
place = (598, -6);
type = Stem;
},
{
place = (-7, 13);
place = (-7, 13);
type = Stem;
},
{
place = (333, -11);
place = (333, -11);
type = Stem;
},
{
place = (522, 6);
place = (522, 6);
type = Stem;
},
{
horizontal = 1;
place = (-131, -25);
place = (-131, -25);
type = Stem;
},
{
place = (525, 6);
place = (525, 6);
type = Stem;
}
);
layerId = m01;
shapes = (
{
closed = 1;
nodes = (
(571,229,l),
(567,219,ls),
(524,113,o),
(439,36,o),
(311,36,cs),
(171,36,o),
(94,153,o),
(135,345,cs),
(175,533,o),
(308,654,o),
(450,654,cs),
(573,654,o),
(626,580,o),
(625,475,cs),
(625,465,l),
(687,465,l),
(688,475,ls),
(697,606,o),
(629,704,o),
(463,704,cs),
(274,704,o),
(110,554,o),
(65,342,cs),
(23,144,o),
(98,2,o),
(266,-13,c),
(220,-75,l),
(290,-70,o),
(314,-90,o),
(306,-126,cs),
(299,-158,o),
(269,-176,o),
(227,-176,cs),
(205,-176,o),
(190,-173,o),
(177,-165,c),
(169,-201,l),
(182,-207,o),
(198,-210,o),
(218,-210,cs),
(282,-210,o),
(339,-182,o),
(351,-125,cs),
(361,-77,o),
(336,-50,o),
(284,-44,c),
(308,-14,l),
(478,-10,o),
(586,95,o),
(630,219,cs),
(633,229,l)
);
}
);
width = 691;
}
);
note = Ccedilla;
unicode = 199;
},
{
glyphname = Cdotaccent;
kernLeft = C;
kernRight = C;
lastChange = "2022-11-29 15:52:45 +0000";
layers = (
{
hints = (
{
horizontal = 1;
place = (-70, -6);
place = (-70, -6);
type = Stem;
},
{
horizontal = 1;
place = (598, -6);
place = (598, -6);
type = Stem;
},
{
horizontal = 1;
place = (691, 16);
place = (691, 16);
type = Stem;
},
{
place = (-7, 13);
place = (-7, 13);
type = Stem;
},
{
place = (266, 16);
place = (266, 16);
type = Stem;
},
{
place = (522, 6);
place = (522, 6);
type = Stem;
},
{
place = (525, 6);
place = (525, 6);
type = Stem;
}
);
layerId = m01;
shapes = (
{
closed = 1;
nodes = (
(456,819,o),
(436,803,o),
(432,783,cs),
(428,763,o),
(440,747,o),
(460,747,cs),
(480,747,o),
(500,763,o),
(504,783,cs),
(508,803,o),
(496,819,o),
(476,819,cs)
);
},
{
closed = 1;
nodes = (
(274,704,o),
(110,554,o),
(65,342,cs),
(21,132,o),
(108,-14,o),
(297,-14,cs),
(473,-14,o),
(585,92,o),
(630,219,cs),
(633,229,l),
(571,229,l),
(567,219,ls),
(524,113,o),
(439,36,o),
(311,36,cs),
(171,36,o),
(94,153,o),
(135,345,cs),
(175,533,o),
(308,654,o),
(450,654,cs),
(573,654,o),
(626,580,o),
(625,475,cs),
(625,465,l),
(687,465,l),
(688,475,ls),
(697,606,o),
(629,704,o),
(463,704,cs)
);
}
);
width = 691;
}
);
note = Cdotaccent;
unicode = 266;
},
{
glyphname = D;
kernRight = D;
lastChange = "2022-11-29 15:52:45 +0000";
layers = (
{
hints = (
{
horizontal = 1;
place = (-56, -4);
place = (-56, -4);
type = Stem;
},
{
horizontal = 1;
place = (582, -4);
place = (582, -4);
type = Stem;
},
{
place = (43, 6);
place = (43, 6);
type = Stem;
},
{
place = (536, 12);
place = (536, 12);
type = Stem;
}
);
layerId = m01;
shapes = (
{
closed = 1;
nodes = (
(446,690,o),
(430,690,o),
(394,690,cs),
(189,690,l),
(43,0,l),
(245,0,ls),
(280,0,o),
(298,0,o),
(334,4,cs),
(472,21,o),
(632,133,o),
(678,351,cs),
(725,571,o),
(613,671,o),
(477,687,cs)
);
},
{
closed = 1;
nodes = (
(311,52,o),
(287,52,o),
(253,52,cs),
(116,52,l),
(240,638,l),
(380,638,ls),
(416,638,o),
(438,638,o),
(460,635,cs),
(570,619,o),
(648,528,o),
(610,351,cs),
(572,172,o),
(456,73,o),
(339,56,cs)
);
}
);
width = 698;
}
);
note = D;
unicode = 68;
},
{
glyphname = Eth;
kernRight = D;
lastChange = "2022-11-29 15:52:45 +0000";
layers = (
{
hints = (
{
horizontal = 1;
place = (-56, -4);
place = (-56, -4);
type = Stem;
},
{
horizontal = 1;
place = (256, -13);
place = (256, -13);
type = Stem;
},
{
horizontal = 1;
place = (582, -4);
place = (582, -4);
type = Stem;
},
{
place = (40, 6);
place = (40, 6);
type = Stem;
},
{
place = (533, 12);
place = (533, 12);
type = Stem;
}
);
layerId = m01;
shapes = (
{
closed = 1;
nodes = (
(443,690,o),
(427,690,o),
(392,690,cs),
(186,690,l),
(115,355,l),
(55,355,l),
(46,312,l),
(106,312,l),
(40,0,l),
(243,0,ls),
(278,0,o),
(296,0,o),
(332,4,cs),
(469,21,o),
(629,133,o),
(675,351,cs),
(722,571,o),
(610,671,o),
(474,687,cs)
);
},
{
closed = 1;
nodes = (
(309,52,o),
(285,52,o),
(250,52,cs),
(113,52,l),
(168,312,l),
(322,312,l),
(331,355,l),
(177,355,l),
(237,638,l),
(378,638,ls),
(414,638,o),
(435,638,o),
(457,635,cs),
(567,619,o),
(645,528,o),
(607,351,cs),
(569,172,o),
(453,73,o),
(336,56,cs)
);
}
);
width = 695;
}
);
note = Eth;
unicode = 208;
},
{
glyphname = Dcaron;
kernRight = D;
lastChange = "2022-11-29 15:52:45 +0000";
layers = (
{
hints = (
{
horizontal = 1;
place = (-56, -4);
place = (-56, -4);
type = Stem;
},
{
horizontal = 1;
place = (582, -4);
place = (582, -4);
type = Stem;
},
{
horizontal = 1;
place = (680, 38);
place = (680, 38);
type = Stem;
},
{
place = (43, 6);
place = (43, 6);
type = Stem;
},
{
place = (536, 12);
place = (536, 12);
type = Stem;
}
);
layerId = m01;
shapes = (
{
closed = 1;
nodes = (
(438,736,l),
(483,736,l),
(570,830,l),
(520,830,l),
(467,764,l),
(442,830,l),
(392,830,l)
);
},
{
closed = 1;
nodes = (
(446,690,o),
(430,690,o),
(394,690,cs),
(189,690,l),
(43,0,l),
(245,0,ls),
(280,0,o),
(298,0,o),
(334,4,cs),
(472,21,o),
(632,133,o),
(678,351,cs),
(725,571,o),
(613,671,o),
(477,687,cs)
);
},
{
closed = 1;
nodes = (
(311,52,o),
(287,52,o),
(253,52,cs),
(116,52,l),
(240,638,l),
(380,638,ls),
(416,638,o),
(438,638,o),
(460,635,cs),
(570,619,o),
(648,528,o),
(610,351,cs),
(572,172,o),
(456,73,o),
(339,56,cs)
);
}
);
width = 698;
}
);
note = Dcaron;
unicode = 270;
},
{
glyphname = Dcroat;
kernRight = D;
lastChange = "2022-11-29 15:52:45 +0000";
layers = (
{
hints = (
{
horizontal = 1;
place = (-56, -4);
place = (-56, -4);
type = Stem;
},
{
horizontal = 1;
place = (256, -13);
place = (256, -13);
type = Stem;
},
{
horizontal = 1;
place = (582, -4);
place = (582, -4);
type = Stem;
},
{
place = (40, 6);
place = (40, 6);
type = Stem;
},
{
place = (533, 12);
place = (533, 12);
type = Stem;
}
);
layerId = m01;
shapes = (
{
closed = 1;
nodes = (
(443,690,o),
(427,690,o),
(392,690,cs),
(186,690,l),
(115,355,l),
(55,355,l),
(46,312,l),
(106,312,l),
(40,0,l),
(243,0,ls),
(278,0,o),
(296,0,o),
(332,4,cs),
(469,21,o),
(629,133,o),
(675,351,cs),
(722,571,o),
(610,671,o),
(474,687,cs)
);
},
{
closed = 1;
nodes = (
(309,52,o),
(285,52,o),
(250,52,cs),
(113,52,l),
(168,312,l),
(322,312,l),
(331,355,l),
(177,355,l),
(237,638,l),
(378,638,ls),
(414,638,o),
(435,638,o),
(457,635,cs),
(567,619,o),
(645,528,o),
(607,351,cs),
(569,172,o),
(453,73,o),
(336,56,cs)
);
}
);
width = 695;
}
);
note = Dcroat;
unicode = 272;
},
{
glyphname = E;
lastChange = "2022-11-29 15:52:45 +0000";
layers = (
{
hints = (
{
horizontal = 1;
place = (-56, -5);
place = (-56, -5);
type = Stem;
},
{
horizontal = 1;
place = (263, -4);
place = (263, -4);
type = Stem;
},
{
horizontal = 1;
place = (583, -5);
place = (583, -5);
type = Stem;
},
{
place = (43, 6);
place = (43, 6);
type = Stem;
}
);
layerId = m01;
shapes = (
{
closed = 1;
nodes = (
(501,51,l),
(116,51,l),
(172,319,l),
(521,319,l),
(533,371,l),
(184,371,l),
(240,639,l),
(615,639,l),
(626,690,l),
(189,690,l),
(43,0,l),
(490,0,l)
);
}
);
width = 576;
}
);
note = E;
unicode = 69;
},
{
glyphname = Eacute;
lastChange = "2022-11-29 15:52:45 +0000";
layers = (
{
hints = (
{
horizontal = 1;
place = (-56, -5);
place = (-56, -5);
type = Stem;
},
{
horizontal = 1;
place = (263, -4);
place = (263, -4);
type = Stem;
},
{
horizontal = 1;
place = (583, 135);
place = (583, 135);
type = Stem;
},
{
place = (43, 6);
place = (43, 6);
type = Stem;
},
{
horizontal = 1;
place = (583, -5);
place = (583, -5);
type = Stem;
}
);
layerId = m01;
shapes = (
{
closed = 1;
nodes = (
(436,736,l),
(528,830,l),
(468,830,l),
(394,736,l)
);
},
{
closed = 1;
nodes = (
(501,51,l),
(116,51,l),
(172,319,l),
(521,319,l),
(533,371,l),
(184,371,l),
(240,639,l),
(615,639,l),
(626,690,l),
(189,690,l),
(43,0,l),
(490,0,l)
);
}
);
width = 576;
}
);
note = Eacute;
unicode = 201;
},
{
glyphname = Ecaron;
lastChange = "2022-11-29 15:52:45 +0000";
layers = (
{
hints = (
{
horizontal = 1;
place = (-56, -5);
place = (-56, -5);
type = Stem;
},
{
horizontal = 1;
place = (263, -4);
place = (263, -4);
type = Stem;
},
{
horizontal = 1;
place = (583, 135);
place = (583, 135);
type = Stem;
},
{
place = (43, 6);
place = (43, 6);
type = Stem;
},
{
horizontal = 1;
place = (583, -5);
place = (583, -5);
type = Stem;
}
);
layerId = m01;
shapes = (
{
closed = 1;
nodes = (
(397,736,l),
(442,736,l),
(529,830,l),
(479,830,l),
(426,764,l),
(401,830,l),
(351,830,l)
);
},
{
closed = 1;
nodes = (
(501,51,l),
(116,51,l),
(172,319,l),
(521,319,l),
(533,371,l),
(184,371,l),
(240,639,l),
(615,639,l),
(626,690,l),
(189,690,l),
(43,0,l),
(490,0,l)
);
}
);
width = 576;
}
);
note = Ecaron;
unicode = 282;
},
{
glyphname = Ecircumflex;
lastChange = "2022-11-29 15:52:45 +0000";
layers = (
{
hints = (
{
horizontal = 1;
place = (-56, -5);
place = (-56, -5);
type = Stem;
},
{
horizontal = 1;
place = (263, -4);
place = (263, -4);
type = Stem;
},
{
horizontal = 1;
place = (583, -5);
place = (583, -5);
type = Stem;
},
{
horizontal = 1;
place = (680, 38);
place = (680, 38);
type = Stem;
},
{
place = (43, 6);
place = (43, 6);
type = Stem;
}
);
layerId = m01;
shapes = (
{
closed = 1;
nodes = (
(380,736,l),
(433,802,l),
(458,736,l),
(509,736,l),
(462,830,l),
(417,830,l),
(331,736,l)
);
},
{
closed = 1;
nodes = (
(501,51,l),
(116,51,l),
(172,319,l),
(521,319,l),
(533,371,l),
(184,371,l),
(240,639,l),
(615,639,l),
(626,690,l),
(189,690,l),
(43,0,l),
(490,0,l)
);
}
);
width = 576;
}
);
note = Ecircumflex;
unicode = 202;
},
{
glyphname = Edieresis;
lastChange = "2022-11-29 15:52:45 +0000";
layers = (
{
hints = (
{
horizontal = 1;
place = (-56, -5);
place = (-56, -5);
type = Stem;
},
{
horizontal = 1;
place = (263, -4);
place = (263, -4);
type = Stem;
},
{
horizontal = 1;
place = (583, -5);
place = (583, -5);
type = Stem;
},
{
horizontal = 1;
place = (691, 16);
place = (691, 16);
type = Stem;
},
{
place = (43, 6);
place = (43, 6);
type = Stem;
},
{
place = (170, 16);
place = (170, 16);
type = Stem;
},
{
place = (284, 16);
place = (284, 16);
type = Stem;
}
);
layerId = m01;
shapes = (
{
closed = 1;
nodes = (
(501,51,l),
(116,51,l),
(172,319,l),
(521,319,l),
(533,371,l),
(184,371,l),
(240,639,l),
(615,639,l),
(626,690,l),
(189,690,l),
(43,0,l),
(490,0,l)
);
},
{
closed = 1;
nodes = (
(328,747,l),
(400,747,l),
(416,819,l),
(344,819,l)
);
},
{
closed = 1;
nodes = (
(442,747,l),
(514,747,l),
(530,819,l),
(458,819,l)
);
}
);
width = 576;
}
);
note = Edieresis;
unicode = 203;
},
{
glyphname = Edotaccent;
lastChange = "2022-11-29 15:52:45 +0000";
layers = (
{
hints = (
{
horizontal = 1;
place = (-56, -5);
place = (-56, -5);
type = Stem;
},
{
horizontal = 1;
place = (263, -4);
place = (263, -4);
type = Stem;
},
{
horizontal = 1;
place = (583, -5);
place = (583, -5);
type = Stem;
},
{
horizontal = 1;
place = (691, 16);
place = (691, 16);
type = Stem;
},
{
place = (43, 6);
place = (43, 6);
type = Stem;
},
{
place = (227, 16);
place = (227, 16);
type = Stem;
}
);
layerId = m01;
shapes = (
{
closed = 1;
nodes = (
(441,747,o),
(461,763,o),
(465,783,cs),
(469,803,o),
(457,819,o),
(437,819,cs),
(417,819,o),
(397,803,o),
(393,783,cs),
(389,763,o),
(401,747,o),
(421,747,cs)
);
},
{
closed = 1;
nodes = (
(501,51,l),
(116,51,l),
(172,319,l),
(521,319,l),
(533,371,l),
(184,371,l),
(240,639,l),
(615,639,l),
(626,690,l),
(189,690,l),
(43,0,l),
(490,0,l)
);
}
);
width = 576;
}
);
note = Edotaccent;
unicode = 278;
},
{
glyphname = Egrave;
lastChange = "2022-11-29 15:52:45 +0000";
layers = (
{
hints = (
{
horizontal = 1;
place = (-56, -5);
place = (-56, -5);
type = Stem;
},
{
horizontal = 1;
place = (263, -4);
place = (263, -4);
type = Stem;
},
{
horizontal = 1;
place = (583, 135);
place = (583, 135);
type = Stem;
},
{
place = (43, 6);
place = (43, 6);
type = Stem;
},
{
horizontal = 1;
place = (583, -5);
place = (583, -5);
type = Stem;
}
);
layerId = m01;
shapes = (
{
closed = 1;
nodes = (
(400,736,l),
(442,736,l),
(409,830,l),
(348,830,l)
);
},
{
closed = 1;
nodes = (
(501,51,l),
(116,51,l),
(172,319,l),
(521,319,l),
(533,371,l),
(184,371,l),
(240,639,l),
(615,639,l),
(626,690,l),
(189,690,l),
(43,0,l),
(490,0,l)
);
}
);
width = 576;
}
);
note = Egrave;
unicode = 200;
},
{
glyphname = Emacron;
lastChange = "2022-11-29 15:52:45 +0000";
layers = (
{
hints = (
{
horizontal = 1;
place = (-56, -5);
place = (-56, -5);
type = Stem;
},
{
horizontal = 1;
place = (263, -4);
place = (263, -4);
type = Stem;
},
{
horizontal = 1;
place = (583, -5);
place = (583, -5);
type = Stem;
},
{
horizontal = 1;
place = (707, -16);
place = (707, -16);
type = Stem;
},
{
place = (43, 6);
place = (43, 6);
type = Stem;
},
{
place = (162, 146);
place = (162, 146);
type = Stem;
}
);
layerId = m01;
shapes = (
{
closed = 1;
nodes = (
(526,763,l),
(534,803,l),
(332,803,l),
(324,763,l)
);
},
{
closed = 1;
nodes = (
(501,51,l),
(116,51,l),
(172,319,l),
(521,319,l),
(533,371,l),
(184,371,l),
(240,639,l),
(615,639,l),
(626,690,l),
(189,690,l),
(43,0,l),
(490,0,l)
);
}
);
width = 576;
}
);
note = Emacron;
unicode = 274;
},
{
glyphname = Eogonek;
lastChange = "2022-11-29 15:52:45 +0000";
layers = (
{
hints = (
{
horizontal = 1;
place = (-279, -15);
place = (-279, -15);
type = Stem;
},
{
horizontal = 1;
place = (-56, -5);
place = (-56, -5);
type = Stem;
},
{
horizontal = 1;
place = (263, -4);
place = (263, -4);
type = Stem;
},
{
horizontal = 1;
place = (583, -5);
place = (583, -5);
type = Stem;
},
{
place = (43, 6);
place = (43, 6);
type = Stem;
},
{
place = (327, 4);
place = (327, 4);
type = Stem;
}
);
layerId = m01;
shapes = (
{
closed = 1;
nodes = (
(372,-67,o),
(429,-17,o),
(491,0,c),
(490,0,l),
(501,51,l),
(116,51,l),
(172,319,l),
(521,319,l),
(533,371,l),
(184,371,l),
(240,639,l),
(615,639,l),
(626,690,l),
(189,690,l),
(43,0,l),
(421,0,l),
(361,-29,o),
(310,-79,o),
(296,-144,cs),
(283,-204,o),
(315,-223,o),
(361,-223,cs),
(393,-223,o),
(422,-215,o),
(449,-197,c),
(457,-158,l),
(433,-175,o),
(414,-182,o),
(393,-182,cs),
(364,-182,o),
(351,-168,o),
(359,-131,cs)
);
}
);
width = 576;
}
);
note = Eogonek;
unicode = 280;
},
{
glyphname = F;
kernRight = F;
lastChange = "2022-11-29 15:52:45 +0000";
layers = (
{
hints = (
{
horizontal = 1;
place = (-56, 21);
target = up;
type = BottomGhost;
},
{
horizontal = 1;
place = (263, -4);
place = (263, -4);
type = Stem;
},
{
horizontal = 1;
place = (583, -5);
place = (583, -5);
type = Stem;
},
{
place = (43, 6);
place = (43, 6);
type = Stem;
}
);
layerId = m01;
shapes = (
{
closed = 1;
nodes = (
(240,639,l),
(615,639,l),
(626,690,l),
(189,690,l),
(43,0,l),
(105,0,l),
(172,319,l),
(511,319,l),
(523,371,l),
(184,371,l)
);
}
);
width = 554;
}
);
note = F;
unicode = 70;
},
{
glyphname = G;
kernLeft = C;
kernRight = G;
lastChange = "2022-11-29 15:52:45 +0000";
layers = (
{
hints = (
{
horizontal = 1;
place = (-70, -6);
place = (-70, -6);
type = Stem;
},
{
horizontal = 1;
place = (216, -5);
place = (216, -5);
type = Stem;
},
{
horizontal = 1;
place = (598, -6);
place = (598, -6);
type = Stem;
},
{
place = (-7, 13);
place = (-7, 13);
type = Stem;
},
{
place = (524, 6);
place = (524, 6);
type = Stem;
},
{
place = (529, 6);
place = (529, 6);
type = Stem;
},
{
horizontal = 1;
place = (-56, 21);
target = up;
type = BottomGhost;
}
);
layerId = m01;
shapes = (
{
closed = 1;
nodes = (
(404,323,l),
(393,272,l),
(581,272,l),
(548,116,o),
(422,36,o),
(312,36,cs),
(171,36,o),
(94,153,o),
(135,345,cs),
(175,533,o),
(309,654,o),
(454,654,cs),
(577,654,o),
(630,580,o),
(629,475,cs),
(629,465,l),
(691,465,l),
(692,475,ls),
(700,606,o),
(632,704,o),
(466,704,cs),
(275,704,o),
(110,554,o),
(65,342,cs),
(21,132,o),
(108,-14,o),
(298,-14,cs),
(381,-14,o),
(460,16,o),
(520,80,c),
(560,142,l),
(530,0,l),
(586,0,l),
(654,323,l)
);
}
);
width = 704;
}
);
note = G;
unicode = 71;
},
{
glyphname = Gbreve;
kernLeft = C;
kernRight = G;
lastChange = "2022-11-29 15:52:45 +0000";
layers = (
{
hints = (
{
horizontal = 1;
place = (-70, -6);
place = (-70, -6);
type = Stem;
},
{
horizontal = 1;
place = (216, -5);
place = (216, -5);
type = Stem;
},
{
horizontal = 1;
place = (598, -6);
place = (598, -6);
type = Stem;
},
{
horizontal = 1;
place = (666, -14);
place = (666, -14);
type = Stem;
},
{
place = (-7, 13);
place = (-7, 13);
type = Stem;
},
{
place = (206, -16);
place = (206, -16);
type = Stem;
},
{
place = (366, -16);
place = (366, -16);
type = Stem;
},
{
place = (524, 6);
place = (524, 6);
type = Stem;
},
{
place = (529, 6);
place = (529, 6);
type = Stem;
},
{
horizontal = 1;
place = (-56, 21);
target = up;
type = BottomGhost;
}
);
layerId = m01;
shapes = (
{
closed = 1;
nodes = (
(525,722,o),
(568,762,o),
(582,830,c),
(542,830,l),
(532,787,o),
(503,764,o),
(468,764,cs),
(433,764,o),
(414,787,o),
(422,830,c),
(382,830,l),
(368,762,o),
(392,722,o),
(459,722,cs)
);
},
{
closed = 1;
nodes = (
(404,323,l),
(393,272,l),
(581,272,l),
(548,116,o),
(422,36,o),
(312,36,cs),
(171,36,o),
(94,153,o),
(135,345,cs),
(175,533,o),
(309,654,o),
(454,654,cs),
(577,654,o),
(630,580,o),
(629,475,cs),
(629,465,l),
(691,465,l),
(692,475,ls),
(700,606,o),
(632,704,o),
(466,704,cs),
(275,704,o),
(110,554,o),
(65,342,cs),
(21,132,o),
(108,-14,o),
(298,-14,cs),
(381,-14,o),
(460,16,o),
(520,80,c),
(560,142,l),
(530,0,l),
(586,0,l),
(654,323,l)
);
}
);
width = 704;
}
);
note = Gbreve;
unicode = 286;
},
{
glyphname = Gcommaaccent;
kernLeft = C;
kernRight = G;
lastChange = "2022-11-29 15:52:45 +0000";
layers = (
{
hints = (
{
horizontal = 1;
place = (-70, -6);
place = (-70, -6);
type = Stem;
},
{
horizontal = 1;
place = (216, -5);
place = (216, -5);
type = Stem;
},
{
horizontal = 1;
place = (598, -6);
place = (598, -6);
type = Stem;
},
{
place = (-7, 13);
place = (-7, 13);
type = Stem;
},
{
place = (524, 6);
place = (524, 6);
type = Stem;
},
{
place = (529, 6);
place = (529, 6);
type = Stem;
},
{
horizontal = 1;
place = (-243, 80);
place = (-243, 80);
type = Stem;
},
{
horizontal = 1;
place = (-56, 21);
target = up;
type = BottomGhost;
}
);
layerId = m01;
shapes = (
{
closed = 1;
nodes = (
(404,323,l),
(393,272,l),
(581,272,l),
(548,116,o),
(422,36,o),
(312,36,cs),
(171,36,o),
(94,153,o),
(135,345,cs),
(175,533,o),
(309,654,o),
(454,654,cs),
(577,654,o),
(630,580,o),
(629,475,cs),
(629,465,l),
(691,465,l),
(692,475,ls),
(700,606,o),
(632,704,o),
(466,704,cs),
(275,704,o),
(110,554,o),
(65,342,cs),
(21,132,o),
(108,-14,o),
(298,-14,cs),
(381,-14,o),
(460,16,o),
(520,80,c),
(560,142,l),
(530,0,l),
(586,0,l),
(654,323,l)
);
},
{
closed = 1;
nodes = (
(274,-51,l),
(196,-187,l),
(242,-187,l),
(324,-60,l),
(326,-51,l)
);
}
);
width = 704;
}
);
note = Gcommaaccent;
unicode = 290;
},
{
glyphname = Gdotaccent;
kernLeft = C;
kernRight = G;
lastChange = "2022-11-29 15:52:45 +0000";
layers = (
{
hints = (
{
horizontal = 1;
place = (-70, -6);
place = (-70, -6);
type = Stem;
},
{
horizontal = 1;
place = (216, -5);
place = (216, -5);
type = Stem;
},
{
horizontal = 1;
place = (598, -6);
place = (598, -6);
type = Stem;
},
{
horizontal = 1;
place = (691, 16);
place = (691, 16);
type = Stem;
},
{
place = (-7, 13);
place = (-7, 13);
type = Stem;
},
{
place = (270, 16);
place = (270, 16);
type = Stem;
},
{
place = (524, 6);
place = (524, 6);
type = Stem;
},
{
place = (529, 6);
place = (529, 6);
type = Stem;
},
{
horizontal = 1;
place = (-56, 21);
target = up;
type = BottomGhost;
}
);
layerId = m01;
shapes = (
{
closed = 1;
nodes = (
(484,747,o),
(504,763,o),
(508,783,cs),
(512,803,o),
(500,819,o),
(480,819,cs),
(460,819,o),
(440,803,o),
(436,783,cs),
(432,763,o),
(444,747,o),
(464,747,cs)
);
},
{
closed = 1;
nodes = (
(404,323,l),
(393,272,l),
(581,272,l),
(548,116,o),
(422,36,o),
(312,36,cs),
(171,36,o),
(94,153,o),
(135,345,cs),
(175,533,o),
(309,654,o),
(454,654,cs),
(577,654,o),
(630,580,o),
(629,475,cs),
(629,465,l),
(691,465,l),
(692,475,ls),
(700,606,o),
(632,704,o),
(466,704,cs),
(275,704,o),
(110,554,o),
(65,342,cs),
(21,132,o),
(108,-14,o),
(298,-14,cs),
(381,-14,o),
(460,16,o),
(520,80,c),
(560,142,l),
(530,0,l),
(586,0,l),
(654,323,l)
);
}
);
width = 704;
}
);
note = Gdotaccent;
unicode = 288;
},
{
glyphname = H;
lastChange = "2022-11-29 15:52:45 +0000";
layers = (
{
hints = (
{
horizontal = 1;
place = (-56, 21);
target = up;
type = BottomGhost;
},
{
horizontal = 1;
place = (256, -3);
place = (256, -3);
type = Stem;
},
{
horizontal = 1;
place = (634, -20);
target = down;
type = TopGhost;
},
{
place = (43, 6);
place = (43, 6);
type = Stem;
},
{
place = (509, 6);
place = (509, 6);
type = Stem;
}
);
layerId = m01;
shapes = (
{
closed = 1;
nodes = (
(717,690,l),
(655,690,l),
(586,365,l),
(182,365,l),
(251,690,l),
(189,690,l),
(43,0,l),
(105,0,l),
(171,312,l),
(575,312,l),
(509,0,l),
(571,0,l)
);
}
);
width = 702;
}
);
note = H;
unicode = 72;
},
{
glyphname = Hbar;
lastChange = "2022-11-29 15:52:45 +0000";
layers = (
{
hints = (
{
horizontal = 1;
place = (-56, 21);
target = up;
type = BottomGhost;
},
{
horizontal = 1;
place = (256, -3);
place = (256, -3);
type = Stem;
},
{
horizontal = 1;
place = (453, -13);
place = (453, -13);
type = Stem;
},
{
place = (43, 6);
place = (43, 6);
type = Stem;
},
{
place = (509, 6);
place = (509, 6);
type = Stem;
},
{
horizontal = 1;
place = (453, 125);
place = (453, 125);
type = Stem;
}
);
layerId = m01;
shapes = (
{
closed = 1;
nodes = (
(719,509,l),
(728,552,l),
(688,552,l),
(717,690,l),
(655,690,l),
(626,552,l),
(222,552,l),
(251,690,l),
(189,690,l),
(160,552,l),
(120,552,l),
(111,509,l),
(151,509,l),
(43,0,l),
(105,0,l),
(171,312,l),
(575,312,l),
(509,0,l),
(571,0,l),
(679,509,l)
);
},
{
closed = 1;
nodes = (
(617,509,l),
(586,365,l),
(182,365,l),
(213,509,l)
);
}
);
width = 702;
}
);
note = Hbar;
unicode = 294;
},
{
glyphname = I;
lastChange = "2022-11-29 15:52:45 +0000";
layers = (
{
hints = (
{
horizontal = 1;
place = (-56, 21);
target = up;
type = BottomGhost;
},
{
horizontal = 1;
place = (634, -20);
target = down;
type = TopGhost;
},
{
place = (43, 6);
place = (43, 6);
type = Stem;
}
);
layerId = m01;
shapes = (
{
closed = 1;
nodes = (
(105,0,l),
(251,690,l),
(189,690,l),
(43,0,l)
);
}
);
width = 236;
}
);
note = I;
unicode = 73;
},
{
glyphname = IJ;
kernRight = IJ;
lastChange = "2022-11-29 15:52:45 +0000";
layers = (
{
hints = (
{
horizontal = 1;
place = (-56, 21);
target = up;
type = BottomGhost;
},
{
horizontal = 1;
place = (634, -20);
target = down;
type = TopGhost;
},
{
place = (43, 6);
place = (43, 6);
type = Stem;
},
{
place = (232, 6);
place = (232, 6);
type = Stem;
},
{
place = (584, 6);
place = (584, 6);
type = Stem;
},
{
horizontal = 1;
place = (-70, -6);
place = (-70, -6);
type = Stem;
}
);
layerId = m01;
shapes = (
{
closed = 1;
nodes = (
(105,0,l),
(251,690,l),
(189,690,l),
(43,0,l)
);
},
{
closed = 1;
nodes = (
(792,690,l),
(730,690,l),
(639,261,ls),
(632,227,o),
(627,202,o),
(621,181,cs),
(594,91,o),
(536,36,o),
(449,36,cs),
(363,36,o),
(318,83,o),
(337,194,cs),
(343,231,l),
(281,231,l),
(274,194,ls),
(250,61,o),
(308,-14,o),
(431,-14,cs),
(570,-14,o),
(652,70,o),
(681,177,cs),
(690,210,o),
(696,235,o),
(702,263,cs)
);
}
);
width = 762;
}
);
note = IJ;
unicode = 306;
},
{
glyphname = Iacute;
lastChange = "2022-11-29 15:52:45 +0000";
layers = (
{
hints = (
{
horizontal = 1;
place = (-56, 21);
target = up;
type = BottomGhost;
},
{
horizontal = 1;
place = (634, -20);
target = down;
type = TopGhost;
},
{
horizontal = 1;
place = (680, 38);
place = (680, 38);
type = Stem;
},
{
place = (43, 6);
place = (43, 6);
type = Stem;
}
);
layerId = m01;
shapes = (
{
closed = 1;
nodes = (
(246,736,l),
(338,830,l),
(278,830,l),
(204,736,l)
);
},
{
closed = 1;
nodes = (
(105,0,l),
(251,690,l),
(189,690,l),
(43,0,l)
);
}
);
width = 236;
}
);
note = Iacute;
unicode = 205;
},
{
glyphname = Icircumflex;
lastChange = "2022-11-29 15:52:45 +0000";
layers = (
{
hints = (
{
horizontal = 1;
place = (-56, 21);
target = up;
type = BottomGhost;
},
{
horizontal = 1;
place = (634, -20);
target = down;
type = TopGhost;
},
{
horizontal = 1;
place = (680, 38);
place = (680, 38);
type = Stem;
},
{
place = (43, 6);
place = (43, 6);
type = Stem;
}
);
layerId = m01;
shapes = (
{
closed = 1;
nodes = (
(319,736,l),
(272,830,l),
(227,830,l),
(141,736,l),
(190,736,l),
(243,802,l),
(268,736,l)
);
},
{
closed = 1;
nodes = (
(189,690,l),
(43,0,l),
(105,0,l),
(251,690,l)
);
}
);
width = 236;
}
);
note = Icircumflex;
unicode = 206;
},
{
glyphname = Idieresis;
lastChange = "2022-11-29 15:52:45 +0000";
layers = (
{
hints = (
{
horizontal = 1;
place = (-56, 21);
target = up;
type = BottomGhost;
},
{
horizontal = 1;
place = (634, -20);
target = down;
type = TopGhost;
},
{
horizontal = 1;
place = (691, 16);
place = (691, 16);
type = Stem;
},
{
place = (-20, 16);
place = (-20, 16);
type = Stem;
},
{
place = (94, 16);
place = (94, 16);
type = Stem;
},
{
place = (43, 6);
place = (43, 6);
type = Stem;
}
);
layerId = m01;
shapes = (
{
closed = 1;
nodes = (
(105,0,l),
(251,690,l),
(189,690,l),
(43,0,l)
);
},
{
closed = 1;
nodes = (
(142,749,l),
(214,749,l),
(229,821,l),
(157,821,l)
);
},
{
closed = 1;
nodes = (
(256,749,l),
(328,749,l),
(343,821,l),
(271,821,l)
);
}
);
width = 236;
}
);
note = Idieresis;
unicode = 207;
},
{
glyphname = Idotaccent;
lastChange = "2022-11-29 15:52:45 +0000";
layers = (
{
hints = (
{
horizontal = 1;
place = (-56, 21);
target = up;
type = BottomGhost;
},
{
horizontal = 1;
place = (634, -20);
target = down;
type = TopGhost;
},
{
horizontal = 1;
place = (691, 16);
place = (691, 16);
type = Stem;
},
{
place = (43, 6);
place = (43, 6);
type = Stem;
}
);
layerId = m01;
shapes = (
{
closed = 1;
nodes = (
(227,819,o),
(207,803,o),
(203,783,cs),
(199,763,o),
(211,747,o),
(231,747,cs),
(251,747,o),
(271,763,o),
(275,783,cs),
(279,803,o),
(267,819,o),
(247,819,cs)
);
},
{
closed = 1;
nodes = (
(105,0,l),
(251,690,l),
(189,690,l),
(43,0,l)
);
}
);
width = 236;
}
);
note = Idotaccent;
unicode = 304;
},
{
glyphname = Igrave;
lastChange = "2022-11-29 15:52:45 +0000";
layers = (
{
hints = (
{
horizontal = 1;
place = (-56, 21);
target = up;
type = BottomGhost;
},
{
horizontal = 1;
place = (634, -20);
target = down;
type = TopGhost;
},
{
horizontal = 1;
place = (680, 38);
place = (680, 38);
type = Stem;
},
{
place = (43, 6);
place = (43, 6);
type = Stem;
}
);
layerId = m01;
shapes = (
{
closed = 1;
nodes = (
(252,736,l),
(219,830,l),
(158,830,l),
(210,736,l)
);
},
{
closed = 1;
nodes = (
(105,0,l),
(251,690,l),
(189,690,l),
(43,0,l)
);
}
);
width = 236;
}
);
note = Igrave;
unicode = 204;
},
{
glyphname = Imacron;
lastChange = "2022-11-29 15:52:45 +0000";
layers = (
{
hints = (
{
horizontal = 1;
place = (-56, 21);
target = up;
type = BottomGhost;
},
{
horizontal = 1;
place = (634, -20);
target = down;
type = TopGhost;
},
{
horizontal = 1;
place = (707, -16);
place = (707, -16);
type = Stem;
},
{
place = (43, 6);
place = (43, 6);
type = Stem;
}
);
layerId = m01;
shapes = (
{
closed = 1;
nodes = (
(336,763,l),
(344,803,l),
(142,803,l),
(134,763,l)
);
},
{
closed = 1;
nodes = (
(105,0,l),
(251,690,l),
(189,690,l),
(43,0,l)
);
}
);
width = 236;
}
);
note = Imacron;
unicode = 298;
},
{
glyphname = Iogonek;
lastChange = "2022-11-29 15:52:45 +0000";
layers = (
{
hints = (
{
horizontal = 1;
place = (-279, -15);
place = (-279, -15);
type = Stem;
},
{
horizontal = 1;
place = (-56, 21);
target = up;
type = BottomGhost;
},
{
horizontal = 1;
place = (634, -20);
target = down;
type = TopGhost;
},
{
place = (-74, 4);
place = (-74, 4);
type = Stem;
},
{
place = (43, 6);
place = (43, 6);
type = Stem;
}
);
layerId = m01;
shapes = (
{
closed = 1;
nodes = (
(251,690,l),
(189,690,l),
(45,11,l),
(-26,-15,o),
(-89,-70,o),
(-105,-144,cs),
(-118,-204,o),
(-86,-223,o),
(-40,-223,cs),
(-8,-223,o),
(21,-215,o),
(48,-197,c),
(56,-158,l),
(32,-175,o),
(13,-182,o),
(-8,-182,cs),
(-37,-182,o),
(-50,-168,o),
(-42,-131,cs),
(-29,-67,o),
(28,-17,o),
(90,0,c),
(105,0,l)
);
}
);
width = 236;
}
);
note = Iogonek;
unicode = 302;
},
{
glyphname = J;
kernLeft = J;
kernRight = IJ;
lastChange = "2022-11-29 15:52:45 +0000";
layers = (
{
hints = (
{
horizontal = 1;
place = (-70, -6);
place = (-70, -6);
type = Stem;
},
{
horizontal = 1;
place = (634, -20);
target = down;
type = TopGhost;
},
{
place = (-4, 6);
place = (-4, 6);
type = Stem;
},
{
place = (348, 6);
place = (348, 6);
type = Stem;
}
);
layerId = m01;
shapes = (
{
closed = 1;
nodes = (
(556,690,l),
(494,690,l),
(403,261,ls),
(396,227,o),
(391,202,o),
(385,181,cs),
(358,91,o),
(300,36,o),
(213,36,cs),
(127,36,o),
(82,83,o),
(101,194,cs),
(107,231,l),
(45,231,l),
(38,194,ls),
(14,61,o),
(72,-14,o),
(195,-14,cs),
(334,-14,o),
(416,70,o),
(445,177,cs),
(454,210,o),
(460,235,o),
(466,263,cs)
);
}
);
width = 526;
}
);
note = J;
unicode = 74;
},
{
glyphname = K;
kernRight = K;
lastChange = "2022-11-29 15:52:45 +0000";
layers = (
{
hints = (
{
horizontal = 1;
place = (-56, 21);
target = up;
type = BottomGhost;
},
{
horizontal = 1;
place = (634, -20);
target = down;
type = TopGhost;
},
{
place = (43, 6);
place = (43, 6);
type = Stem;
}
);
layerId = m01;
shapes = (
{
closed = 1;
nodes = (
(285,354,l),
(685,690,l),
(611,690,l),
(174,324,l),
(251,690,l),
(189,690,l),
(43,0,l),
(105,0,l),
(158,252,l),
(229,313,l),
(438,0,l),
(526,0,l)
);
}
);
width = 588;
}
);
note = K;
unicode = 75;
},
{
glyphname = Kcommaaccent;
kernRight = K;
lastChange = "2022-11-29 15:52:45 +0000";
layers = (
{
hints = (
{
horizontal = 1;
place = (-243, 80);
place = (-243, 80);
type = Stem;
},
{
horizontal = 1;
place = (-56, 21);
target = up;
type = BottomGhost;
},
{
horizontal = 1;
place = (634, -20);
target = down;
type = TopGhost;
},
{
place = (43, 6);
place = (43, 6);
type = Stem;
}
);
layerId = m01;
shapes = (
{
closed = 1;
nodes = (
(285,354,l),
(685,690,l),
(611,690,l),
(174,324,l),
(251,690,l),
(189,690,l),
(43,0,l),
(105,0,l),
(158,252,l),
(229,313,l),
(438,0,l),
(526,0,l)
);
},
{
closed = 1;
nodes = (
(233,-51,l),
(155,-187,l),
(201,-187,l),
(283,-60,l),
(285,-51,l)
);
}
);
width = 588;
}
);
note = Kcommaaccent;
unicode = 310;
},
{
glyphname = L;
kernRight = L;
lastChange = "2022-11-29 15:52:45 +0000";
layers = (
{
hints = (
{
horizontal = 1;
place = (-56, -5);
place = (-56, -5);
type = Stem;
},
{
horizontal = 1;
place = (634, -20);
target = down;
type = TopGhost;
},
{
place = (43, 6);
place = (43, 6);
type = Stem;
}
);
layerId = m01;
shapes = (
{
closed = 1;
nodes = (
(501,51,l),
(116,51,l),
(251,690,l),
(189,690,l),
(43,0,l),
(490,0,l)
);
}
);
width = 562;
}
);
note = L;
unicode = 76;
},
{
glyphname = Lacute;
kernRight = L;
lastChange = "2022-11-29 15:52:45 +0000";
layers = (
{
hints = (
{
horizontal = 1;
place = (-56, -5);
place = (-56, -5);
type = Stem;
},
{
horizontal = 1;
place = (634, -20);
target = down;
type = TopGhost;
},
{
horizontal = 1;
place = (680, 38);
place = (680, 38);
type = Stem;
},
{
place = (43, 6);
place = (43, 6);
type = Stem;
}
);
layerId = m01;
shapes = (
{
closed = 1;
nodes = (
(246,736,l),
(338,830,l),
(278,830,l),
(204,736,l)
);
},
{
closed = 1;
nodes = (
(501,51,l),
(116,51,l),
(251,690,l),
(189,690,l),
(43,0,l),
(490,0,l)
);
}
);
width = 562;
}
);
note = Lacute;
unicode = 313;
},
{
glyphname = Lcaron;
kernRight = L;
lastChange = "2022-11-29 15:52:45 +0000";
layers = (
{
hints = (
{
horizontal = 1;
place = (-56, -5);
place = (-56, -5);
type = Stem;
},
{
horizontal = 1;
place = (634, -20);
target = down;
type = TopGhost;
},
{
place = (43, 6);
place = (43, 6);
type = Stem;
}
);
layerId = m01;
shapes = (
{
closed = 1;
nodes = (
(501,51,l),
(116,51,l),
(251,690,l),
(189,690,l),
(43,0,l),
(490,0,l)
);
}
);
width = 562;
}
);
note = Lcaron;
unicode = 317;
},
{
glyphname = Lcommaaccent;
kernRight = L;
lastChange = "2022-11-29 15:52:45 +0000";
layers = (
{
hints = (
{
horizontal = 1;
place = (-243, 80);
place = (-243, 80);
type = Stem;
},
{
horizontal = 1;
place = (-56, -5);
place = (-56, -5);
type = Stem;
},
{
horizontal = 1;
place = (634, -20);
target = down;
type = TopGhost;
},
{
place = (43, 6);
place = (43, 6);
type = Stem;
}
);
layerId = m01;
shapes = (
{
closed = 1;
nodes = (
(501,51,l),
(116,51,l),
(251,690,l),
(189,690,l),
(43,0,l),
(490,0,l)
);
},
{
closed = 1;
nodes = (
(228,-51,l),
(150,-187,l),
(196,-187,l),
(278,-60,l),
(280,-51,l)
);
}
);
width = 562;
}
);
note = Lcommaaccent;
unicode = 315;
},
{
glyphname = Ldot;
kernRight = L;
lastChange = "2022-11-29 15:52:45 +0000";
layers = (
{
hints = (
{
horizontal = 1;
place = (-56, -5);
place = (-56, -5);
type = Stem;
},
{
horizontal = 1;
place = (302, 28);
place = (302, 28);
type = Stem;
},
{
horizontal = 1;
place = (634, -20);
target = down;
type = TopGhost;
},
{
place = (43, 6);
place = (43, 6);
type = Stem;
},
{
place = (271, 28);
place = (271, 28);
type = Stem;
}
);
layerId = m01;
shapes = (
{
closed = 1;
nodes = (
(501,51,l),
(116,51,l),
(251,690,l),
(189,690,l),
(43,0,l),
(490,0,l)
);
},
{
closed = 1;
nodes = (
(412,358,o),
(435,377,o),
(440,400,cs),
(445,424,o),
(430,442,o),
(407,442,cs),
(383,442,o),
(361,424,o),
(356,400,cs),
(351,377,o),
(365,358,o),
(389,358,cs)
);
}
);
width = 562;
}
);
note = Ldot;
unicode = 319;
},
{
glyphname = Lslash;
kernRight = L;
lastChange = "2022-11-29 15:52:45 +0000";
layers = (
{
hints = (
{
horizontal = 1;
place = (-56, -5);
place = (-56, -5);
type = Stem;
},
{
horizontal = 1;
place = (634, -20);
target = down;
type = TopGhost;
},
{
place = (68, 6);
place = (68, 6);
type = Stem;
}
);
layerId = m01;
shapes = (
{
closed = 1;
nodes = (
(527,51,l),
(141,51,l),
(201,334,l),
(367,422,l),
(378,473,l),
(212,385,l),
(276,690,l),
(214,690,l),
(142,348,l),
(18,283,l),
(7,232,l),
(131,297,l),
(68,0,l),
(516,0,l)
);
}
);
width = 587;
}
);
note = Lslash;
unicode = 321;
},
{
glyphname = M;
lastChange = "2022-11-29 15:52:45 +0000";
layers = (
{
hints = (
{
horizontal = 1;
place = (-56, -4);
place = (-56, -4);
type = Stem;
},
{
horizontal = 1;
place = (579, -1);
place = (579, -1);
type = Stem;
},
{
place = (43, 6);
place = (43, 6);
type = Stem;
},
{
place = (646, 6);
place = (646, 6);
type = Stem;
}
);
layerId = m01;
shapes = (
{
closed = 1;
nodes = (
(854,690,l),
(755,690,l),
(388,52,l),
(290,690,l),
(189,690,l),
(43,0,l),
(105,0,l),
(184,372,ls),
(202,458,o),
(222,554,o),
(237,634,c),
(247,555,o),
(261,458,o),
(274,374,cs),
(336,0,l),
(414,0,l),
(633,373,ls),
(683,458,o),
(739,555,o),
(783,635,c),
(764,555,o),
(743,459,o),
(725,372,cs),
(646,0,l),
(708,0,l)
);
}
);
width = 839;
}
);
note = M;
unicode = 77;
},
{
glyphname = N;
lastChange = "2022-11-29 15:52:45 +0000";
layers = (
{
hints = (
{
horizontal = 1;
place = (-56, 4);
place = (-56, 4);
type = Stem;
},
{
horizontal = 1;
place = (574, 4);
place = (574, 4);
type = Stem;
},
{
place = (43, 6);
place = (43, 6);
type = Stem;
},
{
place = (494, 5);
place = (494, 5);
type = Stem;
}
);
layerId = m01;
shapes = (
{
closed = 1;
nodes = (
(556,0,l),
(701,690,l),
(640,690,l),
(565,334,ls),
(546,248,o),
(526,146,o),
(509,60,c),
(283,690,l),
(189,690,l),
(43,0,l),
(105,0,l),
(180,356,ls),
(199,442,o),
(220,545,o),
(236,630,c),
(461,0,l)
);
}
);
width = 688;
}
);
note = N;
unicode = 78;
},
{
glyphname = Nacute;
lastChange = "2022-11-29 15:52:45 +0000";
layers = (
{
hints = (
{
horizontal = 1;
place = (-56, 4);
place = (-56, 4);
type = Stem;
},
{
horizontal = 1;
place = (574, 4);
place = (574, 4);
type = Stem;
},
{
horizontal = 1;
place = (680, 38);
place = (680, 38);
type = Stem;
},
{
place = (43, 6);
place = (43, 6);
type = Stem;
},
{
place = (494, 5);
place = (494, 5);
type = Stem;
}
);
layerId = m01;
shapes = (
{
closed = 1;
nodes = (
(472,736,l),
(564,830,l),
(504,830,l),
(430,736,l)
);
},
{
closed = 1;
nodes = (
(556,0,l),
(701,690,l),
(640,690,l),
(565,334,ls),
(546,248,o),
(526,146,o),
(509,60,c),
(283,690,l),
(189,690,l),
(43,0,l),
(105,0,l),
(180,356,ls),
(199,442,o),
(220,545,o),
(236,630,c),
(461,0,l)
);
}
);
width = 688;
}
);
note = Nacute;
unicode = 323;
},
{
glyphname = Ncaron;
lastChange = "2022-11-29 15:52:45 +0000";
layers = (
{
hints = (
{
horizontal = 1;
place = (-56, 4);
place = (-56, 4);
type = Stem;
},
{
horizontal = 1;
place = (574, 4);
place = (574, 4);
type = Stem;
},
{
horizontal = 1;
place = (680, 38);
place = (680, 38);
type = Stem;
},
{
place = (43, 6);
place = (43, 6);
type = Stem;
},
{
place = (494, 5);
place = (494, 5);
type = Stem;
}
);
layerId = m01;
shapes = (
{
closed = 1;
nodes = (
(433,736,l),
(478,736,l),
(565,830,l),
(515,830,l),
(462,764,l),
(437,830,l),
(387,830,l)
);
},
{
closed = 1;
nodes = (
(461,0,l),
(556,0,l),
(701,690,l),
(640,690,l),
(565,334,ls),
(546,248,o),
(526,146,o),
(509,60,c),
(283,690,l),
(189,690,l),
(43,0,l),
(105,0,l),
(180,356,ls),
(199,442,o),
(220,545,o),
(236,630,c)
);
}
);
width = 688;
}
);
note = Ncaron;
unicode = 327;
},
{
glyphname = Ncommaaccent;
lastChange = "2022-11-29 15:52:45 +0000";
layers = (
{
hints = (
{
horizontal = 1;
place = (-243, 80);
place = (-243, 80);
type = Stem;
},
{
horizontal = 1;
place = (-56, 4);
place = (-56, 4);
type = Stem;
},
{
horizontal = 1;
place = (574, 4);
place = (574, 4);
type = Stem;
},
{
place = (43, 6);
place = (43, 6);
type = Stem;
},
{
place = (494, 5);
place = (494, 5);
type = Stem;
}
);
layerId = m01;
shapes = (
{
closed = 1;
nodes = (
(556,0,l),
(701,690,l),
(640,690,l),
(565,334,ls),
(546,248,o),
(526,146,o),
(509,60,c),
(283,690,l),
(189,690,l),
(43,0,l),
(105,0,l),
(180,356,ls),
(199,442,o),
(220,545,o),
(236,630,c),
(461,0,l)
);
},
{
closed = 1;
nodes = (
(318,-60,l),
(320,-51,l),
(268,-51,l),
(190,-187,l),
(236,-187,l)
);
}
);
width = 688;
}
);
note = Ncommaaccent;
unicode = 325;
},
{
glyphname = Eng;
lastChange = "2022-11-29 15:52:45 +0000";
layers = (
{
hints = (
{
horizontal = 1;
place = (-279, -4);
place = (-279, -4);
type = Stem;
},
{
horizontal = 1;
place = (-56, 21);
target = up;
type = BottomGhost;
},
{
horizontal = 1;
place = (569, 9);
place = (569, 9);
type = Stem;
},
{
place = (43, 6);
place = (43, 6);
type = Stem;
},
{
place = (494, 6);
place = (494, 6);
type = Stem;
}
);
layerId = m01;
shapes = (
{
closed = 1;
nodes = (
(702,690,l),
(640,690,l),
(567,346,ls),
(549,261,o),
(531,171,o),
(515,85,c),
(283,690,l),
(189,690,l),
(43,0,l),
(105,0,l),
(180,356,ls),
(199,442,o),
(218,540,o),
(235,625,c),
(488,-27,l),
(476,-83,ls),
(463,-146,o),
(431,-171,o),
(369,-171,c),
(358,-223,l),
(446,-222,o),
(506,-193,o),
(532,-108,cs),
(536,-94,o),
(538,-85,o),
(541,-67,cs)
);
}
);
width = 688;
}
);
note = Eng;
unicode = 330;
},
{
glyphname = Ntilde;
lastChange = "2022-11-29 15:52:45 +0000";
layers = (
{
hints = (
{
horizontal = 1;
place = (-56, 4);
place = (-56, 4);
type = Stem;
},
{
horizontal = 1;
place = (574, 4);
place = (574, 4);
type = Stem;
},
{
horizontal = 1;
place = (720, -17);
place = (720, -17);
type = Stem;
},
{
place = (43, 6);
place = (43, 6);
type = Stem;
},
{
place = (200, -25);
place = (200, -25);
type = Stem;
},
{
place = (494, 5);
place = (494, 5);
type = Stem;
},
{
horizontal = 1;
place = (696, -17);
place = (696, -17);
type = Stem;
},
{
place = (367, -25);
place = (367, -25);
type = Stem;
}
);
layerId = m01;
shapes = (
{
closed = 1;
nodes = (
(390,815,o),
(370,800,o),
(360,756,c),
(391,756,l),
(395,771,o),
(402,776,o),
(412,776,cs),
(421,776,o),
(432,773,o),
(454,765,cs),
(479,756,o),
(494,752,o),
(512,752,cs),
(541,752,o),
(561,767,o),
(570,811,c),
(539,811,l),
(536,796,o),
(529,791,o),
(519,791,cs),
(510,791,o),
(498,794,o),
(476,802,cs),
(451,811,o),
(437,815,o),
(419,815,cs)
);
},
{
closed = 1;
nodes = (
(556,0,l),
(701,690,l),
(640,690,l),
(565,334,ls),
(546,248,o),
(526,146,o),
(509,60,c),
(283,690,l),
(189,690,l),
(43,0,l),
(105,0,l),
(180,356,ls),
(199,442,o),
(220,545,o),
(236,630,c),
(461,0,l)
);
}
);
width = 688;
}
);
note = Ntilde;
unicode = 209;
},
{
glyphname = O;
kernLeft = C;
kernRight = D;
lastChange = "2022-11-29 15:52:45 +0000";
layers = (
{
hints = (
{
horizontal = 1;
place = (-70, -6);
place = (-70, -6);
type = Stem;
},
{
horizontal = 1;
place = (598, -6);
place = (598, -6);
type = Stem;
},
{
place = (-7, 13);
place = (-7, 13);
type = Stem;
},
{
place = (565, 13);
place = (565, 13);
type = Stem;
}
);
layerId = m01;
shapes = (
{
closed = 1;
nodes = (
(261,704,o),
(111,555,o),
(66,345,cs),
(22,137,o),
(109,-14,o),
(310,-14,cs),
(512,-14,o),
(663,137,o),
(707,345,cs),
(752,555,o),
(664,704,o),
(462,704,cs)
);
},
{
closed = 1;
nodes = (
(172,36,o),
(94,152,o),
(135,345,cs),
(176,539,o),
(304,654,o),
(452,654,cs),
(601,654,o),
(679,539,o),
(638,345,cs),
(597,152,o),
(469,36,o),
(320,36,cs)
);
}
);
width = 728;
}
);
note = O;
unicode = 79;
},
{
glyphname = Oacute;
kernLeft = C;
kernRight = D;
lastChange = "2022-11-29 15:52:45 +0000";
layers = (
{
hints = (
{
horizontal = 1;
place = (-70, -6);
place = (-70, -6);
type = Stem;
},
{
horizontal = 1;
place = (598, -6);
place = (598, -6);
type = Stem;
},
{
horizontal = 1;
place = (680, 38);
place = (680, 38);
type = Stem;
},
{
place = (-7, 13);
place = (-7, 13);
type = Stem;
},
{
place = (565, 13);
place = (565, 13);
type = Stem;
}
);
layerId = m01;
shapes = (
{
closed = 1;
nodes = (
(486,736,l),
(578,830,l),
(518,830,l),
(444,736,l)
);
},
{
closed = 1;
nodes = (
(261,704,o),
(111,555,o),
(66,345,cs),
(22,137,o),
(109,-14,o),
(310,-14,cs),
(512,-14,o),
(663,137,o),
(707,345,cs),
(752,555,o),
(664,704,o),
(462,704,cs)
);
},
{
closed = 1;
nodes = (
(172,36,o),
(94,152,o),
(135,345,cs),
(176,539,o),
(304,654,o),
(452,654,cs),
(601,654,o),
(679,539,o),
(638,345,cs),
(597,152,o),
(469,36,o),
(320,36,cs)
);
}
);
width = 728;
}
);
note = Oacute;
unicode = 211;
},
{
glyphname = Ocircumflex;
kernLeft = C;
kernRight = D;
lastChange = "2022-11-29 15:52:45 +0000";
layers = (
{
hints = (
{
horizontal = 1;
place = (-70, -6);
place = (-70, -6);
type = Stem;
},
{
horizontal = 1;
place = (598, -6);
place = (598, -6);
type = Stem;
},
{
horizontal = 1;
place = (680, 38);
place = (680, 38);
type = Stem;
},
{
place = (-7, 13);
place = (-7, 13);
type = Stem;
},
{
place = (565, 13);
place = (565, 13);
type = Stem;
}
);
layerId = m01;
shapes = (
{
closed = 1;
nodes = (
(430,736,l),
(483,802,l),
(508,736,l),
(559,736,l),
(512,830,l),
(467,830,l),
(381,736,l)
);
},
{
closed = 1;
nodes = (
(261,704,o),
(111,555,o),
(66,345,cs),
(22,137,o),
(109,-14,o),
(310,-14,cs),
(512,-14,o),
(663,137,o),
(707,345,cs),
(752,555,o),
(664,704,o),
(462,704,cs)
);
},
{
closed = 1;
nodes = (
(172,36,o),
(94,152,o),
(135,345,cs),
(176,539,o),
(304,654,o),
(452,654,cs),
(601,654,o),
(679,539,o),
(638,345,cs),
(597,152,o),
(469,36,o),
(320,36,cs)
);
}
);
width = 728;
}
);
note = Ocircumflex;
unicode = 212;
},
{
glyphname = Odieresis;
kernLeft = C;
kernRight = D;
lastChange = "2022-11-29 15:52:45 +0000";
layers = (
{
hints = (
{
horizontal = 1;
place = (-70, -6);
place = (-70, -6);
type = Stem;
},
{
horizontal = 1;
place = (598, -6);
place = (598, -6);
type = Stem;
},
{
horizontal = 1;
place = (691, 16);
place = (691, 16);
type = Stem;
},
{
place = (-7, 13);
place = (-7, 13);
type = Stem;
},
{
place = (220, 16);
place = (220, 16);
type = Stem;
},
{
place = (334, 16);
place = (334, 16);
type = Stem;
},
{
place = (565, 13);
place = (565, 13);
type = Stem;
}
);
layerId = m01;
shapes = (
{
closed = 1;
nodes = (
(261,704,o),
(111,555,o),
(66,345,cs),
(22,137,o),
(109,-14,o),
(310,-14,cs),
(512,-14,o),
(663,137,o),
(707,345,cs),
(752,555,o),
(664,704,o),
(462,704,cs)
);
},
{
closed = 1;
nodes = (
(172,36,o),
(94,152,o),
(135,345,cs),
(176,539,o),
(304,654,o),
(452,654,cs),
(601,654,o),
(679,539,o),
(638,345,cs),
(597,152,o),
(469,36,o),
(320,36,cs)
);
},
{
closed = 1;
nodes = (
(381,747,l),
(453,747,l),
(469,819,l),
(397,819,l)
);
},
{
closed = 1;
nodes = (
(495,747,l),
(567,747,l),
(583,819,l),
(511,819,l)
);
}
);
width = 728;
}
);
note = Odieresis;
unicode = 214;
},
{
glyphname = Ograve;
kernLeft = C;
kernRight = D;
lastChange = "2022-11-29 15:52:45 +0000";
layers = (
{
hints = (
{
horizontal = 1;
place = (-70, -6);
place = (-70, -6);
type = Stem;
},
{
horizontal = 1;
place = (598, -6);
place = (598, -6);
type = Stem;
},
{
horizontal = 1;
place = (680, 38);
place = (680, 38);
type = Stem;
},
{
place = (-7, 13);
place = (-7, 13);
type = Stem;
},
{
place = (565, 13);
place = (565, 13);
type = Stem;
}
);
layerId = m01;
shapes = (
{
closed = 1;
nodes = (
(450,736,l),
(492,736,l),
(459,830,l),
(398,830,l)
);
},
{
closed = 1;
nodes = (
(261,704,o),
(111,555,o),
(66,345,cs),
(22,137,o),
(109,-14,o),
(310,-14,cs),
(512,-14,o),
(663,137,o),
(707,345,cs),
(752,555,o),
(664,704,o),
(462,704,cs)
);
},
{
closed = 1;
nodes = (
(172,36,o),
(94,152,o),
(135,345,cs),
(176,539,o),
(304,654,o),
(452,654,cs),
(601,654,o),
(679,539,o),
(638,345,cs),
(597,152,o),
(469,36,o),
(320,36,cs)
);
}
);
width = 728;
}
);
note = Ograve;
unicode = 210;
},
{
glyphname = Ohungarumlaut;
kernLeft = C;
kernRight = D;
lastChange = "2022-11-29 15:52:45 +0000";
layers = (
{
hints = (
{
horizontal = 1;
place = (-70, -6);
place = (-70, -6);
type = Stem;
},
{
horizontal = 1;
place = (598, -6);
place = (598, -6);
type = Stem;
},
{
horizontal = 1;
place = (680, 38);
place = (680, 38);
type = Stem;
},
{
place = (-7, 13);
place = (-7, 13);
type = Stem;
},
{
place = (565, 13);
place = (565, 13);
type = Stem;
}
);
layerId = m01;
shapes = (
{
closed = 1;
nodes = (
(426,736,l),
(518,830,l),
(457,830,l),
(384,736,l)
);
},
{
closed = 1;
nodes = (
(485,736,l),
(527,736,l),
(619,830,l),
(558,830,l)
);
},
{
closed = 1;
nodes = (
(261,704,o),
(111,555,o),
(66,345,cs),
(22,137,o),
(109,-14,o),
(310,-14,cs),
(512,-14,o),
(663,137,o),
(707,345,cs),
(752,555,o),
(664,704,o),
(462,704,cs)
);
},
{
closed = 1;
nodes = (
(172,36,o),
(94,152,o),
(135,345,cs),
(176,539,o),
(304,654,o),
(452,654,cs),
(601,654,o),
(679,539,o),
(638,345,cs),
(597,152,o),
(469,36,o),
(320,36,cs)
);
}
);
width = 728;
}
);
note = Ohungarumlaut;
unicode = 336;
},
{
glyphname = Omacron;
kernLeft = C;
kernRight = D;
lastChange = "2022-11-29 15:52:45 +0000";
layers = (
{
hints = (
{
horizontal = 1;
place = (-70, -6);
place = (-70, -6);
type = Stem;
},
{
horizontal = 1;
place = (598, -6);
place = (598, -6);
type = Stem;
},
{
horizontal = 1;
place = (707, -16);
place = (707, -16);
type = Stem;
},
{
place = (-7, 13);
place = (-7, 13);
type = Stem;
},
{
place = (212, 146);
place = (212, 146);
type = Stem;
},
{
place = (565, 13);
place = (565, 13);
type = Stem;
}
);
layerId = m01;
shapes = (
{
closed = 1;
nodes = (
(576,763,l),
(584,803,l),
(382,803,l),
(374,763,l)
);
},
{
closed = 1;
nodes = (
(261,704,o),
(111,555,o),
(66,345,cs),
(22,137,o),
(109,-14,o),
(310,-14,cs),
(512,-14,o),
(663,137,o),
(707,345,cs),
(752,555,o),
(664,704,o),
(462,704,cs)
);
},
{
closed = 1;
nodes = (
(172,36,o),
(94,152,o),
(135,345,cs),
(176,539,o),
(304,654,o),
(452,654,cs),
(601,654,o),
(679,539,o),
(638,345,cs),
(597,152,o),
(469,36,o),
(320,36,cs)
);
}
);
width = 728;
}
);
note = Omacron;
unicode = 332;
},
{
glyphname = Oslash;
kernLeft = C;
kernRight = D;
lastChange = "2022-11-29 15:52:45 +0000";
layers = (
{
hints = (
{
horizontal = 1;
place = (-70, -6);
place = (-70, -6);
type = Stem;
},
{
horizontal = 1;
place = (598, -6);
place = (598, -6);
type = Stem;
},
{
place = (-5, 13);
place = (-5, 13);
type = Stem;
},
{
place = (568, 13);
place = (568, 13);
type = Stem;
}
);
layerId = m01;
shapes = (
{
closed = 1;
nodes = (
(779,641,l),
(755,672,l),
(677,608,l),
(635,669,o),
(563,704,o),
(465,704,cs),
(263,704,o),
(113,555,o),
(68,345,cs),
(49,256,o),
(55,178,o),
(82,117,c),
(-1,49,l),
(23,18,l),
(101,82,l),
(143,22,o),
(215,-14,o),
(313,-14,cs),
(515,-14,o),
(666,137,o),
(710,345,cs),
(729,434,o),
(724,513,o),
(696,573,c)
);
},
{
closed = 1;
nodes = (
(178,539,o),
(306,654,o),
(455,654,cs),
(533,654,o),
(591,622,o),
(624,564,c),
(139,164,l),
(123,212,o),
(122,273,o),
(137,345,cs)
);
},
{
closed = 1;
nodes = (
(600,152,o),
(471,36,o),
(323,36,cs),
(245,36,o),
(187,68,o),
(154,126,c),
(639,526,l),
(655,478,o),
(656,417,o),
(641,345,cs)
);
}
);
width = 733;
}
);
note = Oslash;
unicode = 216;
},
{
glyphname = Otilde;
kernLeft = C;
kernRight = D;
lastChange = "2022-11-29 15:52:45 +0000";
layers = (
{
hints = (
{
horizontal = 1;
place = (-70, -6);
place = (-70, -6);
type = Stem;
},
{
horizontal = 1;
place = (598, -6);
place = (598, -6);
type = Stem;
},
{
horizontal = 1;
place = (720, -17);
place = (720, -17);
type = Stem;
},
{
place = (-7, 13);
place = (-7, 13);
type = Stem;
},
{
place = (214, -25);
place = (214, -25);
type = Stem;
},
{
place = (565, 13);
place = (565, 13);
type = Stem;
},
{
horizontal = 1;
place = (696, -17);
place = (696, -17);
type = Stem;
},
{
place = (381, -25);
place = (381, -25);
type = Stem;
}
);
layerId = m01;
shapes = (
{
closed = 1;
nodes = (
(435,776,o),
(446,773,o),
(468,765,cs),
(493,756,o),
(508,752,o),
(526,752,cs),
(555,752,o),
(575,767,o),
(584,811,c),
(553,811,l),
(550,796,o),
(543,791,o),
(533,791,cs),
(524,791,o),
(512,794,o),
(490,802,cs),
(465,811,o),
(451,815,o),
(433,815,cs),
(404,815,o),
(384,800,o),
(374,756,c),
(405,756,l),
(409,771,o),
(416,776,o),
(426,776,cs)
);
},
{
closed = 1;
nodes = (
(261,704,o),
(111,555,o),
(66,345,cs),
(22,137,o),
(109,-14,o),
(310,-14,cs),
(512,-14,o),
(663,137,o),
(707,345,cs),
(752,555,o),
(664,704,o),
(462,704,cs)
);
},
{
closed = 1;
nodes = (
(172,36,o),
(94,152,o),
(135,345,cs),
(176,539,o),
(304,654,o),
(452,654,cs),
(601,654,o),
(679,539,o),
(638,345,cs),
(597,152,o),
(469,36,o),
(320,36,cs)
);
}
);
width = 728;
}
);
note = Otilde;
unicode = 213;
},
{
glyphname = OE;
kernLeft = C;
lastChange = "2022-11-29 15:52:45 +0000";
layers = (
{
hints = (
{
horizontal = 1;
place = (-56, -5);
place = (-56, -5);
type = Stem;
},
{
horizontal = 1;
place = (263, -4);
place = (263, -4);
type = Stem;
},
{
horizontal = 1;
place = (583, -5);
place = (583, -5);
type = Stem;
},
{
place = (-7, 13);
place = (-7, 13);
type = Stem;
},
{
place = (565, 6);
place = (565, 6);
type = Stem;
},
{
horizontal = 1;
place = (-70, -6);
place = (-70, -6);
type = Stem;
},
{
horizontal = 1;
place = (598, -6);
place = (598, -6);
type = Stem;
}
);
layerId = m01;
shapes = (
{
closed = 1;
nodes = (
(1024,51,l),
(638,51,l),
(694,319,l),
(1044,319,l),
(1056,371,l),
(706,371,l),
(762,639,l),
(1138,639,l),
(1149,690,l),
(711,690,l),
(676,524,l),
(664,599,l),
(619,675,o),
(563,704,o),
(456,704,cs),
(261,704,o),
(109,548,o),
(66,345,cs),
(23,143,o),
(109,-14,o),
(304,-14,cs),
(401,-14,o),
(482,16,o),
(556,91,c),
(600,166,l),
(565,0,l),
(1013,0,l)
);
},
{
closed = 1;
nodes = (
(172,36,o),
(95,157,o),
(135,345,cs),
(175,535,o),
(304,654,o),
(452,654,cs),
(604,654,o),
(678,535,o),
(638,345,cs),
(598,157,o),
(472,36,o),
(320,36,cs)
);
}
);
width = 1098;
}
);
note = OE;
unicode = 338;
},
{
glyphname = P;
kernRight = P;
lastChange = "2022-11-29 15:52:45 +0000";
layers = (
{
hints = (
{
horizontal = 1;
place = (-56, 21);
target = up;
type = BottomGhost;
},
{
horizontal = 1;
place = (236, -3);
place = (236, -3);
type = Stem;
},
{
horizontal = 1;
place = (581, -3);
place = (581, -3);
type = Stem;
},
{
place = (43, 6);
place = (43, 6);
type = Stem;
},
{
place = (435, 11);
place = (435, 11);
type = Stem;
}
);
layerId = m01;
shapes = (
{
closed = 1;
nodes = (
(442,690,o),
(415,690,o),
(380,690,cs),
(189,690,l),
(43,0,l),
(105,0,l),
(167,292,l),
(296,292,ls),
(331,292,o),
(358,292,o),
(390,296,cs),
(489,309,o),
(581,375,o),
(606,493,cs),
(631,610,o),
(574,672,o),
(472,686,cs)
);
},
{
closed = 1;
nodes = (
(372,346,o),
(345,345,o),
(312,345,cs),
(178,345,l),
(240,637,l),
(374,637,ls),
(407,637,o),
(434,636,o),
(456,632,cs),
(517,622,o),
(558,581,o),
(539,493,cs),
(520,402,o),
(461,360,o),
(396,350,cs)
);
}
);
width = 569;
}
);
note = P;
unicode = 80;
},
{
glyphname = Thorn;
lastChange = "2022-11-29 15:52:45 +0000";
layers = (
{
hints = (
{
horizontal = 1;
place = (-56, 21);
target = up;
type = BottomGhost;
},
{
horizontal = 1;
place = (155, -3);
place = (155, -3);
type = Stem;
},
{
horizontal = 1;
place = (482, -3);
place = (482, -3);
type = Stem;
},
{
place = (43, 6);
place = (43, 6);
type = Stem;
},
{
place = (435, 11);
place = (435, 11);
type = Stem;
},
{
horizontal = 1;
place = (482, 96);
place = (482, 96);
type = Stem;
}
);
layerId = m01;
shapes = (
{
closed = 1;
nodes = (
(424,590,o),
(397,591,o),
(362,591,cs),
(230,591,l),
(251,690,l),
(189,690,l),
(43,0,l),
(105,0,l),
(150,211,l),
(282,211,ls),
(317,211,o),
(344,211,o),
(375,215,cs),
(476,228,o),
(563,290,o),
(588,404,cs),
(611,516,o),
(550,574,o),
(454,586,cs)
);
},
{
closed = 1;
nodes = (
(353,265,o),
(326,264,o),
(293,264,cs),
(161,264,l),
(219,538,l),
(351,538,ls),
(384,538,o),
(411,537,o),
(434,533,cs),
(494,522,o),
(538,487,o),
(520,402,cs),
(502,316,o),
(442,279,o),
(378,269,cs)
);
}
);
width = 634;
}
);
note = Thorn;
unicode = 222;
},
{
glyphname = Q;
kernLeft = C;
lastChange = "2022-11-29 15:52:45 +0000";
layers = (
{
hints = (
{
horizontal = 1;
place = (-70, -6);
place = (-70, -6);
type = Stem;
},
{
horizontal = 1;
place = (598, -6);
place = (598, -6);
type = Stem;
},
{
place = (-7, 13);
place = (-7, 13);
type = Stem;
},
{
place = (565, 13);
place = (565, 13);
type = Stem;
},
{
horizontal = 1;
place = (-54, -22);
place = (-54, -22);
type = Stem;
},
{
horizontal = 1;
place = (-65, 21);
target = up;
type = BottomGhost;
}
);
layerId = m01;
shapes = (
{
closed = 1;
nodes = (
(752,555,o),
(664,704,o),
(462,704,cs),
(261,704,o),
(111,555,o),
(66,345,cs),
(22,137,o),
(109,-14,o),
(310,-14,cs),
(337,-14,o),
(359,-12,o),
(382,-7,cs),
(411,-1,o),
(429,2,o),
(455,2,cs),
(496,2,o),
(528,-8,o),
(581,-52,c),
(626,-9,l),
(590,28,o),
(554,50,o),
(505,55,c),
(618,121,o),
(682,229,o),
(707,345,cs)
);
},
{
closed = 1;
nodes = (
(176,539,o),
(304,654,o),
(452,654,cs),
(601,654,o),
(679,539,o),
(638,345,cs),
(597,152,o),
(469,36,o),
(320,36,cs),
(172,36,o),
(94,152,o),
(135,345,cs)
);
}
);
width = 726;
}
);
note = Q;
unicode = 81;
},
{
glyphname = R;
lastChange = "2022-11-29 15:52:45 +0000";
layers = (
{
hints = (
{
horizontal = 1;
place = (-56, 21);
target = up;
type = BottomGhost;
},
{
horizontal = 1;
place = (256, -4);
place = (256, -4);
type = Stem;
},
{
horizontal = 1;
place = (582, -4);
place = (582, -4);
type = Stem;
},
{
place = (43, 6);
place = (43, 6);
type = Stem;
},
{
place = (443, 11);
place = (443, 11);
type = Stem;
}
);
layerId = m01;
shapes = (
{
closed = 1;
nodes = (
(522,256,o),
(506,319,o),
(453,343,c),
(528,361,o),
(598,416,o),
(617,507,cs),
(641,617,o),
(585,673,o),
(485,686,cs),
(454,690,o),
(427,690,o),
(392,690,cs),
(189,690,l),
(43,0,l),
(105,0,l),
(171,312,l),
(312,312,ls),
(328,312,o),
(348,312,o),
(366,311,cs),
(439,307,o),
(457,250,o),
(450,177,cs),
(441,87,o),
(444,44,o),
(452,0,c),
(521,0,l),
(505,39,o),
(504,89,o),
(514,184,cs)
);
},
{
closed = 1;
nodes = (
(182,364,l),
(240,638,l),
(381,638,ls),
(414,638,o),
(436,637,o),
(459,634,cs),
(532,623,o),
(567,583,o),
(549,502,cs),
(532,421,o),
(472,372,o),
(394,366,cs),
(371,364,o),
(354,364,o),
(324,364,cs)
);
}
);
width = 601;
}
);
note = R;
unicode = 82;
},
{
glyphname = Racute;
lastChange = "2022-11-29 15:52:45 +0000";
layers = (
{
hints = (
{
horizontal = 1;
place = (-56, 21);
target = up;
type = BottomGhost;
},
{
horizontal = 1;
place = (256, -4);
place = (256, -4);
type = Stem;
},
{
horizontal = 1;
place = (582, -4);
place = (582, -4);
type = Stem;
},
{
horizontal = 1;
place = (680, 38);
place = (680, 38);
type = Stem;
},
{
place = (43, 6);
place = (43, 6);
type = Stem;
},
{
place = (443, 11);
place = (443, 11);
type = Stem;
}
);
layerId = m01;
shapes = (
{
closed = 1;
nodes = (
(432,736,l),
(524,830,l),
(464,830,l),
(390,736,l)
);
},
{
closed = 1;
nodes = (
(522,256,o),
(506,319,o),
(453,343,c),
(528,361,o),
(598,416,o),
(617,507,cs),
(641,617,o),
(585,673,o),
(485,686,cs),
(454,690,o),
(427,690,o),
(392,690,cs),
(189,690,l),
(43,0,l),
(105,0,l),
(171,312,l),
(312,312,ls),
(328,312,o),
(348,312,o),
(366,311,cs),
(439,307,o),
(457,250,o),
(450,177,cs),
(441,87,o),
(444,44,o),
(452,0,c),
(521,0,l),
(505,39,o),
(504,89,o),
(514,184,cs)
);
},
{
closed = 1;
nodes = (
(182,364,l),
(240,638,l),
(381,638,ls),
(414,638,o),
(436,637,o),
(459,634,cs),
(532,623,o),
(567,583,o),
(549,502,cs),
(532,421,o),
(472,372,o),
(394,366,cs),
(371,364,o),
(354,364,o),
(324,364,cs)
);
}
);
width = 601;
}
);
note = Racute;
unicode = 340;
},
{
glyphname = Rcaron;
lastChange = "2022-11-29 15:52:45 +0000";
layers = (
{
hints = (
{
horizontal = 1;
place = (-56, 21);
target = up;
type = BottomGhost;
},
{
horizontal = 1;
place = (256, -4);
place = (256, -4);
type = Stem;
},
{
horizontal = 1;
place = (582, -4);
place = (582, -4);
type = Stem;
},
{
horizontal = 1;
place = (680, 38);
place = (680, 38);
type = Stem;
},
{
place = (43, 6);
place = (43, 6);
type = Stem;
},
{
place = (443, 11);
place = (443, 11);
type = Stem;
}
);
layerId = m01;
shapes = (
{
closed = 1;
nodes = (
(393,736,l),
(438,736,l),
(525,830,l),
(475,830,l),
(422,764,l),
(397,830,l),
(347,830,l)
);
},
{
closed = 1;
nodes = (
(522,256,o),
(506,319,o),
(453,343,c),
(528,361,o),
(598,416,o),
(617,507,cs),
(641,617,o),
(585,673,o),
(485,686,cs),
(454,690,o),
(427,690,o),
(392,690,cs),
(189,690,l),
(43,0,l),
(105,0,l),
(171,312,l),
(312,312,ls),
(328,312,o),
(348,312,o),
(366,311,cs),
(439,307,o),
(457,250,o),
(450,177,cs),
(441,87,o),
(444,44,o),
(452,0,c),
(521,0,l),
(505,39,o),
(504,89,o),
(514,184,cs)
);
},
{
closed = 1;
nodes = (
(182,364,l),
(240,638,l),
(381,638,ls),
(414,638,o),
(436,637,o),
(459,634,cs),
(532,623,o),
(567,583,o),
(549,502,cs),
(532,421,o),
(472,372,o),
(394,366,cs),
(371,364,o),
(354,364,o),
(324,364,cs)
);
}
);
width = 601;
}
);
note = Rcaron;
unicode = 344;
},
{
glyphname = Rcommaaccent;
lastChange = "2022-11-29 15:52:45 +0000";
layers = (
{
hints = (
{
horizontal = 1;
place = (-243, 80);
place = (-243, 80);
type = Stem;
},
{
horizontal = 1;
place = (-56, 21);
target = up;
type = BottomGhost;
},
{
horizontal = 1;
place = (256, -4);
place = (256, -4);
type = Stem;
},
{
horizontal = 1;
place = (582, -4);
place = (582, -4);
type = Stem;
},
{
place = (43, 6);
place = (43, 6);
type = Stem;
},
{
place = (443, 11);
place = (443, 11);
type = Stem;
}
);
layerId = m01;
shapes = (
{
closed = 1;
nodes = (
(522,256,o),
(506,319,o),
(453,343,c),
(528,361,o),
(598,416,o),
(617,507,cs),
(641,617,o),
(585,673,o),
(485,686,cs),
(454,690,o),
(427,690,o),
(392,690,cs),
(189,690,l),
(43,0,l),
(105,0,l),
(171,312,l),
(312,312,ls),
(328,312,o),
(348,312,o),
(366,311,cs),
(439,307,o),
(457,250,o),
(450,177,cs),
(441,87,o),
(444,44,o),
(452,0,c),
(521,0,l),
(505,39,o),
(504,89,o),
(514,184,cs)
);
},
{
closed = 1;
nodes = (
(182,364,l),
(240,638,l),
(381,638,ls),
(414,638,o),
(436,637,o),
(459,634,cs),
(532,623,o),
(567,583,o),
(549,502,cs),
(532,421,o),
(472,372,o),
(394,366,cs),
(371,364,o),
(354,364,o),
(324,364,cs)
);
},
{
closed = 1;
nodes = (
(221,-51,l),
(143,-187,l),
(189,-187,l),
(271,-60,l),
(273,-51,l)
);
}
);
width = 601;
}
);
note = Rcommaaccent;
unicode = 342;
},
{
glyphname = S;
kernLeft = S;
kernRight = S;
lastChange = "2022-11-29 15:52:45 +0000";
layers = (
{
hints = (
{
horizontal = 1;
place = (-70, -6);
place = (-70, -6);
type = Stem;
},
{
horizontal = 1;
place = (598, -6);
place = (598, -6);
type = Stem;
},
{
place = (23, 11);
place = (23, 11);
type = Stem;
},
{
place = (413, 10);
place = (413, 10);
type = Stem;
}
);
layerId = m01;
shapes = (
{
closed = 1;
nodes = (
(274,704,o),
(157,630,o),
(133,518,cs),
(109,407,o),
(177,361,o),
(301,327,cs),
(423,295,o),
(467,257,o),
(448,168,cs),
(431,88,o),
(347,36,o),
(256,36,cs),
(157,36,o),
(93,91,o),
(97,190,c),
(31,190,l),
(18,57,o),
(104,-14,o),
(244,-14,cs),
(376,-14,o),
(492,64,o),
(517,178,cs),
(541,292,o),
(479,348,o),
(339,386,cs),
(227,416,o),
(185,447,o),
(203,531,cs),
(220,613,o),
(302,654,o),
(381,654,cs),
(472,654,o),
(520,599,o),
(512,505,c),
(577,505,l),
(588,617,o),
(534,704,o),
(396,704,cs)
);
}
);
width = 576;
}
);
note = S;
unicode = 83;
},
{
glyphname = Sacute;
kernLeft = S;
kernRight = S;
lastChange = "2022-11-29 15:52:45 +0000";
layers = (
{
hints = (
{
horizontal = 1;
place = (-70, -6);
place = (-70, -6);
type = Stem;
},
{
horizontal = 1;
place = (598, -6);
place = (598, -6);
type = Stem;
},
{
horizontal = 1;
place = (680, 38);
place = (680, 38);
type = Stem;
},
{
place = (23, 11);
place = (23, 11);
type = Stem;
},
{
place = (413, 10);
place = (413, 10);
type = Stem;
}
);
layerId = m01;
shapes = (
{
closed = 1;
nodes = (
(412,736,l),
(504,830,l),
(444,830,l),
(370,736,l)
);
},
{
closed = 1;
nodes = (
(274,704,o),
(157,630,o),
(133,518,cs),
(109,407,o),
(177,361,o),
(301,327,cs),
(423,295,o),
(467,257,o),
(448,168,cs),
(431,88,o),
(347,36,o),
(256,36,cs),
(157,36,o),
(93,91,o),
(97,190,c),
(31,190,l),
(18,57,o),
(104,-14,o),
(244,-14,cs),
(376,-14,o),
(492,64,o),
(517,178,cs),
(541,292,o),
(479,348,o),
(339,386,cs),
(227,416,o),
(185,447,o),
(203,531,cs),
(220,613,o),
(302,654,o),
(381,654,cs),
(472,654,o),
(520,599,o),
(512,505,c),
(577,505,l),
(588,617,o),
(534,704,o),
(396,704,cs)
);
}
);
width = 576;
}
);
note = Sacute;
unicode = 346;
},
{
glyphname = Scaron;
kernLeft = S;
kernRight = S;
lastChange = "2022-11-29 15:52:45 +0000";
layers = (
{
hints = (
{
horizontal = 1;
place = (-70, -6);
place = (-70, -6);
type = Stem;
},
{
horizontal = 1;
place = (598, -6);
place = (598, -6);
type = Stem;
},
{
horizontal = 1;
place = (680, 38);
place = (680, 38);
type = Stem;
},
{
place = (23, 11);
place = (23, 11);
type = Stem;
},
{
place = (413, 10);
place = (413, 10);
type = Stem;
}
);
layerId = m01;
shapes = (
{
closed = 1;
nodes = (
(373,736,l),
(418,736,l),
(505,830,l),
(455,830,l),
(402,764,l),
(377,830,l),
(327,830,l)
);
},
{
closed = 1;
nodes = (
(227,416,o),
(185,447,o),
(203,531,cs),
(220,613,o),
(302,654,o),
(381,654,cs),
(472,654,o),
(520,599,o),
(512,505,c),
(577,505,l),
(588,617,o),
(534,704,o),
(396,704,cs),
(274,704,o),
(157,630,o),
(133,518,cs),
(109,407,o),
(177,361,o),
(301,327,cs),
(423,295,o),
(467,257,o),
(448,168,cs),
(431,88,o),
(347,36,o),
(256,36,cs),
(157,36,o),
(93,91,o),
(97,190,c),
(31,190,l),
(18,57,o),
(104,-14,o),
(244,-14,cs),
(376,-14,o),
(492,64,o),
(517,178,cs),
(541,292,o),
(479,348,o),
(339,386,cs)
);
}
);
width = 576;
}
);
note = Scaron;
unicode = 352;
},
{
glyphname = Scedilla;
kernLeft = S;
kernRight = S;
lastChange = "2022-11-29 15:52:45 +0000";
layers = (
{
hints = (
{
horizontal = 1;
place = (-266, -22);
place = (-266, -22);
type = Stem;
},
{
horizontal = 1;
place = (-131, -25);
place = (-131, -25);
type = Stem;
},
{
horizontal = 1;
place = (-69, -7);
place = (-69, -7);
type = Stem;
},
{
horizontal = 1;
place = (598, -6);
place = (598, -6);
type = Stem;
},
{
place = (23, 11);
place = (23, 11);
type = Stem;
},
{
place = (277, -11);
place = (277, -11);
type = Stem;
},
{
place = (413, 10);
place = (413, 10);
type = Stem;
}
);
layerId = m01;
shapes = (
{
closed = 1;
nodes = (
(541,292,o),
(479,348,o),
(339,386,cs),
(227,416,o),
(185,447,o),
(203,531,cs),
(220,613,o),
(302,654,o),
(381,654,cs),
(472,654,o),
(520,599,o),
(512,505,c),
(577,505,l),
(588,617,o),
(534,704,o),
(396,704,cs),
(274,704,o),
(157,630,o),
(133,518,cs),
(109,407,o),
(177,361,o),
(301,327,cs),
(423,295,o),
(467,257,o),
(448,168,cs),
(431,88,o),
(347,36,o),
(256,36,cs),
(157,36,o),
(93,91,o),
(97,190,c),
(31,190,l),
(19,68,o),
(90,-2,o),
(210,-13,c),
(164,-75,l),
(234,-70,o),
(258,-90,o),
(250,-126,cs),
(243,-158,o),
(213,-176,o),
(171,-176,cs),
(149,-176,o),
(134,-173,o),
(121,-165,c),
(113,-201,l),
(126,-207,o),
(142,-210,o),
(162,-210,cs),
(226,-210,o),
(283,-182,o),
(295,-125,cs),
(305,-77,o),
(280,-50,o),
(228,-44,c),
(252,-14,l),
(380,-11,o),
(493,66,o),
(517,178,cs)
);
}
);
width = 576;
}
);
note = Scedilla;
unicode = 350;
},
{
glyphname = Scommaaccent;
kernLeft = S;
kernRight = S;
lastChange = "2022-11-29 15:52:45 +0000";
layers = (
{
hints = (
{
horizontal = 1;
place = (-243, 80);
place = (-243, 80);
type = Stem;
},
{
horizontal = 1;
place = (-70, -6);
place = (-70, -6);
type = Stem;
},
{
horizontal = 1;
place = (598, -6);
place = (598, -6);
type = Stem;
},
{
place = (23, 11);
place = (23, 11);
type = Stem;
},
{
place = (413, 10);
place = (413, 10);
type = Stem;
}
);
layerId = m01;
shapes = (
{
closed = 1;
nodes = (
(274,704,o),
(157,630,o),
(133,518,cs),
(109,407,o),
(177,361,o),
(301,327,cs),
(423,295,o),
(467,257,o),
(448,168,cs),
(431,88,o),
(347,36,o),
(256,36,cs),
(157,36,o),
(93,91,o),
(97,190,c),
(31,190,l),
(18,57,o),
(104,-14,o),
(244,-14,cs),
(376,-14,o),
(492,64,o),
(517,178,cs),
(541,292,o),
(479,348,o),
(339,386,cs),
(227,416,o),
(185,447,o),
(203,531,cs),
(220,613,o),
(302,654,o),
(381,654,cs),
(472,654,o),
(520,599,o),
(512,505,c),
(577,505,l),
(588,617,o),
(534,704,o),
(396,704,cs)
);
},
{
closed = 1;
nodes = (
(258,-60,l),
(260,-51,l),
(208,-51,l),
(130,-187,l),
(176,-187,l)
);
}
);
width = 576;
}
);
note = Scommaaccent;
unicode = 536;
},
{
glyphname = T;
kernLeft = T;
kernRight = T;
lastChange = "2022-11-29 15:52:45 +0000";
layers = (
{
hints = (
{
horizontal = 1;
place = (-56, 21);
target = up;
type = BottomGhost;
},
{
horizontal = 1;
place = (583, -5);
place = (583, -5);
type = Stem;
},
{
place = (230, 6);
place = (230, 6);
type = Stem;
}
);
layerId = m01;
shapes = (
{
closed = 1;
nodes = (
(680,639,l),
(691,690,l),
(123,690,l),
(112,639,l),
(365,639,l),
(230,0,l),
(292,0,l),
(427,639,l)
);
}
);
width = 600;
}
);
note = T;
unicode = 84;
},
{
glyphname = Tbar;
kernLeft = T;
kernRight = T;
lastChange = "2022-11-29 15:52:45 +0000";
layers = (
{
hints = (
{
horizontal = 1;
place = (-56, 21);
target = up;
type = BottomGhost;
},
{
horizontal = 1;
place = (256, -13);
place = (256, -13);
type = Stem;
},
{
horizontal = 1;
place = (583, -5);
place = (583, -5);
type = Stem;
},
{
place = (230, 6);
place = (230, 6);
type = Stem;
}
);
layerId = m01;
shapes = (
{
closed = 1;
nodes = (
(427,639,l),
(680,639,l),
(691,690,l),
(123,690,l),
(112,639,l),
(365,639,l),
(305,355,l),
(181,355,l),
(172,312,l),
(296,312,l),
(230,0,l),
(292,0,l),
(358,312,l),
(482,312,l),
(491,355,l),
(367,355,l)
);
}
);
width = 600;
}
);
note = Tbar;
unicode = 358;
},
{
glyphname = Tcaron;
kernLeft = T;
kernRight = T;
lastChange = "2022-11-29 15:52:45 +0000";
layers = (
{
hints = (
{
horizontal = 1;
place = (-56, 21);
target = up;
type = BottomGhost;
},
{
horizontal = 1;
place = (583, 135);
place = (583, 135);
type = Stem;
},
{
place = (230, 6);
place = (230, 6);
type = Stem;
},
{
horizontal = 1;
place = (583, -5);
place = (583, -5);
type = Stem;
}
);
layerId = m01;
shapes = (
{
closed = 1;
nodes = (
(395,736,l),
(440,736,l),
(527,830,l),
(477,830,l),
(424,764,l),
(399,830,l),
(349,830,l)
);
},
{
closed = 1;
nodes = (
(680,639,l),
(691,690,l),
(123,690,l),
(112,639,l),
(365,639,l),
(230,0,l),
(292,0,l),
(427,639,l)
);
}
);
width = 600;
}
);
note = Tcaron;
unicode = 356;
},
{
glyphname = Tcedilla;
kernLeft = T;
kernRight = T;
lastChange = "2022-11-29 15:52:45 +0000";
layers = (
{
hints = (
{
horizontal = 1;
place = (-266, -22);
place = (-266, -22);
type = Stem;
},
{
horizontal = 1;
place = (-56, 21);
target = up;
type = BottomGhost;
},
{
horizontal = 1;
place = (583, -5);
place = (583, -5);
type = Stem;
},
{
place = (230, 6);
place = (230, 6);
type = Stem;
},
{
horizontal = 1;
place = (-131, -25);
place = (-131, -25);
type = Stem;
},
{
place = (299, -11);
place = (299, -11);
type = Stem;
}
);
layerId = m01;
shapes = (
{
closed = 1;
nodes = (
(285,0,l),
(292,0,l),
(427,639,l),
(680,639,l),
(691,690,l),
(123,690,l),
(112,639,l),
(365,639,l),
(230,0,l),
(242,0,l),
(186,-75,l),
(256,-70,o),
(280,-90,o),
(272,-126,cs),
(265,-158,o),
(235,-176,o),
(193,-176,cs),
(171,-176,o),
(156,-173,o),
(143,-165,c),
(135,-201,l),
(148,-207,o),
(164,-210,o),
(184,-210,cs),
(248,-210,o),
(305,-182,o),
(317,-125,cs),
(327,-77,o),
(302,-50,o),
(250,-44,c)
);
}
);
width = 600;
}
);
note = Tcedilla;
unicode = 354;
},
{
glyphname = uni021A;
kernLeft = T;
kernRight = T;
lastChange = "2022-11-29 15:52:45 +0000";
layers = (
{
hints = (
{
horizontal = 1;
place = (-243, 80);
place = (-243, 80);
type = Stem;
},
{
horizontal = 1;
place = (-56, 21);
target = up;
type = BottomGhost;
},
{
horizontal = 1;
place = (583, -5);
place = (583, -5);
type = Stem;
},
{
place = (230, 6);
place = (230, 6);
type = Stem;
}
);
layerId = m01;
shapes = (
{
closed = 1;
nodes = (
(691,690,l),
(123,690,l),
(112,639,l),
(365,639,l),
(230,0,l),
(292,0,l),
(427,639,l),
(680,639,l)
);
},
{
closed = 1;
nodes = (
(230,-51,l),
(152,-187,l),
(198,-187,l),
(280,-60,l),
(282,-51,l)
);
}
);
width = 600;
}
);
note = uni021A;
unicode = 538;
},
{
glyphname = U;
kernLeft = U;
kernRight = U;
lastChange = "2022-11-29 15:52:45 +0000";
layers = (
{
hints = (
{
horizontal = 1;
place = (-70, -6);
place = (-70, -6);
type = Stem;
},
{
horizontal = 1;
place = (634, -20);
target = down;
type = TopGhost;
},
{
place = (37, 6);
place = (37, 6);
type = Stem;
},
{
place = (465, 6);
place = (465, 6);
type = Stem;
}
);
layerId = m01;
shapes = (
{
closed = 1;
nodes = (
(673,690,l),
(611,690,l),
(518,250,ls),
(513,228,o),
(508,208,o),
(502,189,cs),
(475,102,o),
(404,36,o),
(289,36,cs),
(173,36,o),
(130,102,o),
(141,189,cs),
(143,208,o),
(147,228,o),
(152,250,cs),
(245,690,l),
(183,690,l),
(89,247,ls),
(85,227,o),
(81,207,o),
(78,183,cs),
(63,71,o),
(121,-14,o),
(279,-14,cs),
(436,-14,o),
(531,71,o),
(563,183,cs),
(570,207,o),
(575,227,o),
(579,247,cs)
);
}
);
width = 651;
}
);
note = U;
unicode = 85;
},
{
glyphname = Uacute;
kernLeft = U;
kernRight = U;
lastChange = "2022-11-29 15:52:45 +0000";
layers = (
{
hints = (
{
horizontal = 1;
place = (-70, -6);
place = (-70, -6);
type = Stem;
},
{
horizontal = 1;
place = (634, -20);
target = down;
type = TopGhost;
},
{
horizontal = 1;
place = (680, 38);
place = (680, 38);
type = Stem;
},
{
place = (37, 6);
place = (37, 6);
type = Stem;
},
{
place = (465, 6);
place = (465, 6);
type = Stem;
}
);
layerId = m01;
shapes = (
{
closed = 1;
nodes = (
(455,736,l),
(547,830,l),
(487,830,l),
(413,736,l)
);
},
{
closed = 1;
nodes = (
(673,690,l),
(611,690,l),
(518,250,ls),
(513,228,o),
(508,208,o),
(502,189,cs),
(475,102,o),
(404,36,o),
(289,36,cs),
(173,36,o),
(130,102,o),
(141,189,cs),
(143,208,o),
(147,228,o),
(152,250,cs),
(245,690,l),
(183,690,l),
(89,247,ls),
(85,227,o),
(81,207,o),
(78,183,cs),
(63,71,o),
(121,-14,o),
(279,-14,cs),
(436,-14,o),
(531,71,o),
(563,183,cs),
(570,207,o),
(575,227,o),
(579,247,cs)
);
}
);
width = 651;
}
);
note = Uacute;
unicode = 218;
},
{
glyphname = Ucircumflex;
kernLeft = U;
kernRight = U;
lastChange = "2022-11-29 15:52:45 +0000";
layers = (
{
hints = (
{
horizontal = 1;
place = (-70, -6);
place = (-70, -6);
type = Stem;
},
{
horizontal = 1;
place = (634, -20);
target = down;
type = TopGhost;
},
{
horizontal = 1;
place = (680, 38);
place = (680, 38);
type = Stem;
},
{
place = (37, 6);
place = (37, 6);
type = Stem;
},
{
place = (465, 6);
place = (465, 6);
type = Stem;
}
);
layerId = m01;
shapes = (
{
closed = 1;
nodes = (
(399,736,l),
(452,802,l),
(477,736,l),
(528,736,l),
(481,830,l),
(436,830,l),
(350,736,l)
);
},
{
closed = 1;
nodes = (
(673,690,l),
(611,690,l),
(518,250,ls),
(513,228,o),
(508,208,o),
(502,189,cs),
(475,102,o),
(404,36,o),
(289,36,cs),
(173,36,o),
(130,102,o),
(141,189,cs),
(143,208,o),
(147,228,o),
(152,250,cs),
(245,690,l),
(183,690,l),
(89,247,ls),
(85,227,o),
(81,207,o),
(78,183,cs),
(63,71,o),
(121,-14,o),
(279,-14,cs),
(436,-14,o),
(531,71,o),
(563,183,cs),
(570,207,o),
(575,227,o),
(579,247,cs)
);
}
);
width = 651;
}
);
note = Ucircumflex;
unicode = 219;
},
{
glyphname = Udieresis;
kernLeft = U;
kernRight = U;
lastChange = "2022-11-29 15:52:45 +0000";
layers = (
{
hints = (
{
horizontal = 1;
place = (-70, -6);
place = (-70, -6);
type = Stem;
},
{
horizontal = 1;
place = (634, -20);
target = down;
type = TopGhost;
},
{
horizontal = 1;
place = (691, 16);
place = (691, 16);
type = Stem;
},
{
place = (37, 6);
place = (37, 6);
type = Stem;
},
{
place = (189, 16);
place = (189, 16);
type = Stem;
},
{
place = (303, 16);
place = (303, 16);
type = Stem;
},
{
place = (465, 6);
place = (465, 6);
type = Stem;
}
);
layerId = m01;
shapes = (
{
closed = 1;
nodes = (
(673,690,l),
(611,690,l),
(518,250,ls),
(513,228,o),
(508,208,o),
(502,189,cs),
(475,102,o),
(404,36,o),
(289,36,cs),
(173,36,o),
(130,102,o),
(141,189,cs),
(143,208,o),
(147,228,o),
(152,250,cs),
(245,690,l),
(183,690,l),
(89,247,ls),
(85,227,o),
(81,207,o),
(78,183,cs),
(63,71,o),
(121,-14,o),
(279,-14,cs),
(436,-14,o),
(531,71,o),
(563,183,cs),
(570,207,o),
(575,227,o),
(579,247,cs)
);
},
{
closed = 1;
nodes = (
(346,747,l),
(418,747,l),
(433,819,l),
(361,819,l)
);
},
{
closed = 1;
nodes = (
(460,747,l),
(532,747,l),
(547,819,l),
(475,819,l)
);
}
);
width = 651;
}
);
note = Udieresis;
unicode = 220;
},
{
glyphname = Ugrave;
kernLeft = U;
kernRight = U;
lastChange = "2022-11-29 15:52:45 +0000";
layers = (
{
hints = (
{
horizontal = 1;
place = (-70, -6);
place = (-70, -6);
type = Stem;
},
{
horizontal = 1;
place = (634, -20);
target = down;
type = TopGhost;
},
{
horizontal = 1;
place = (680, 38);
place = (680, 38);
type = Stem;
},
{
place = (37, 6);
place = (37, 6);
type = Stem;
},
{
place = (465, 6);
place = (465, 6);
type = Stem;
}
);
layerId = m01;
shapes = (
{
closed = 1;
nodes = (
(461,736,l),
(428,830,l),
(367,830,l),
(419,736,l)
);
},
{
closed = 1;
nodes = (
(673,690,l),
(611,690,l),
(518,250,ls),
(513,228,o),
(508,208,o),
(502,189,cs),
(475,102,o),
(404,36,o),
(289,36,cs),
(173,36,o),
(130,102,o),
(141,189,cs),
(143,208,o),
(147,228,o),
(152,250,cs),
(245,690,l),
(183,690,l),
(89,247,ls),
(85,227,o),
(81,207,o),
(78,183,cs),
(63,71,o),
(121,-14,o),
(279,-14,cs),
(436,-14,o),
(531,71,o),
(563,183,cs),
(570,207,o),
(575,227,o),
(579,247,cs)
);
}
);
width = 651;
}
);
note = Ugrave;
unicode = 217;
},
{
glyphname = Uhungarumlaut;
kernLeft = U;
kernRight = U;
lastChange = "2022-11-29 15:52:45 +0000";
layers = (
{
hints = (
{
horizontal = 1;
place = (-70, -6);
place = (-70, -6);
type = Stem;
},
{
horizontal = 1;
place = (634, -20);
target = down;
type = TopGhost;
},
{
horizontal = 1;
place = (680, 38);
place = (680, 38);
type = Stem;
},
{
place = (37, 6);
place = (37, 6);
type = Stem;
},
{
place = (465, 6);
place = (465, 6);
type = Stem;
}
);
layerId = m01;
shapes = (
{
closed = 1;
nodes = (
(395,736,l),
(487,830,l),
(426,830,l),
(353,736,l)
);
},
{
closed = 1;
nodes = (
(496,736,l),
(588,830,l),
(527,830,l),
(454,736,l)
);
},
{
closed = 1;
nodes = (
(673,690,l),
(611,690,l),
(518,250,ls),
(513,228,o),
(508,208,o),
(502,189,cs),
(475,102,o),
(404,36,o),
(289,36,cs),
(173,36,o),
(130,102,o),
(141,189,cs),
(143,208,o),
(147,228,o),
(152,250,cs),
(245,690,l),
(183,690,l),
(89,247,ls),
(85,227,o),
(81,207,o),
(78,183,cs),
(63,71,o),
(121,-14,o),
(279,-14,cs),
(436,-14,o),
(531,71,o),
(563,183,cs),
(570,207,o),
(575,227,o),
(579,247,cs)
);
}
);
width = 651;
}
);
note = Uhungarumlaut;
unicode = 368;
},
{
glyphname = Umacron;
kernLeft = U;
kernRight = U;
lastChange = "2022-11-29 15:52:45 +0000";
layers = (
{
hints = (
{
horizontal = 1;
place = (-70, -6);
place = (-70, -6);
type = Stem;
},
{
horizontal = 1;
place = (634, -20);
target = down;
type = TopGhost;
},
{
horizontal = 1;
place = (707, -16);
place = (707, -16);
type = Stem;
},
{
place = (37, 6);
place = (37, 6);
type = Stem;
},
{
place = (181, 146);
place = (181, 146);
type = Stem;
},
{
place = (465, 6);
place = (465, 6);
type = Stem;
}
);
layerId = m01;
shapes = (
{
closed = 1;
nodes = (
(545,763,l),
(553,803,l),
(351,803,l),
(343,763,l)
);
},
{
closed = 1;
nodes = (
(673,690,l),
(611,690,l),
(518,250,ls),
(513,228,o),
(508,208,o),
(502,189,cs),
(475,102,o),
(404,36,o),
(289,36,cs),
(173,36,o),
(130,102,o),
(141,189,cs),
(143,208,o),
(147,228,o),
(152,250,cs),
(245,690,l),
(183,690,l),
(89,247,ls),
(85,227,o),
(81,207,o),
(78,183,cs),
(63,71,o),
(121,-14,o),
(279,-14,cs),
(436,-14,o),
(531,71,o),
(563,183,cs),
(570,207,o),
(575,227,o),
(579,247,cs)
);
}
);
width = 651;
}
);
note = Umacron;
unicode = 362;
},
{
glyphname = Uogonek;
kernLeft = U;
kernRight = U;
lastChange = "2022-11-29 15:52:45 +0000";
layers = (
{
hints = (
{
horizontal = 1;
place = (-279, -15);
place = (-279, -15);
type = Stem;
},
{
horizontal = 1;
place = (-70, -6);
place = (-70, -6);
type = Stem;
},
{
horizontal = 1;
place = (634, -20);
target = down;
type = TopGhost;
},
{
place = (37, 6);
place = (37, 6);
type = Stem;
},
{
place = (218, 4);
place = (218, 4);
type = Stem;
},
{
place = (465, 6);
place = (465, 6);
type = Stem;
}
);
layerId = m01;
shapes = (
{
closed = 1;
nodes = (
(673,690,l),
(611,690,l),
(518,250,ls),
(513,228,o),
(508,208,o),
(502,189,cs),
(475,102,o),
(404,36,o),
(289,36,cs),
(173,36,o),
(130,102,o),
(141,189,cs),
(143,208,o),
(147,228,o),
(152,250,cs),
(245,690,l),
(183,690,l),
(89,247,ls),
(85,227,o),
(81,207,o),
(78,183,cs),
(63,71,o),
(121,-14,o),
(279,-14,cs),
(286,-14,l),
(237,-44,o),
(199,-89,o),
(187,-144,cs),
(174,-204,o),
(206,-223,o),
(252,-223,cs),
(284,-223,o),
(313,-215,o),
(340,-197,c),
(348,-158,l),
(324,-175,o),
(305,-182,o),
(284,-182,cs),
(255,-182,o),
(242,-168,o),
(250,-131,cs),
(263,-67,o),
(320,-17,o),
(382,0,cs),
(478,29,o),
(539,98,o),
(563,183,cs),
(570,207,o),
(575,227,o),
(579,247,cs)
);
}
);
width = 651;
}
);
note = Uogonek;
unicode = 370;
},
{
glyphname = Uring;
kernLeft = U;
kernRight = U;
lastChange = "2022-11-29 15:52:45 +0000";
layers = (
{
hints = (
{
horizontal = 1;
place = (-70, -6);
place = (-70, -6);
type = Stem;
},
{
horizontal = 1;
place = (662, -25);
place = (662, -25);
type = Stem;
},
{
horizontal = 1;
place = (776, -25);
place = (776, -25);
type = Stem;
},
{
place = (37, 6);
place = (37, 6);
type = Stem;
},
{
place = (202, -16);
place = (202, -16);
type = Stem;
},
{
place = (322, -15);
place = (322, -15);
type = Stem;
},
{
place = (465, 6);
place = (465, 6);
type = Stem;
},
{
horizontal = 1;
place = (634, -20);
target = down;
type = TopGhost;
}
);
layerId = m01;
shapes = (
{
closed = 1;
nodes = (
(419,863,o),
(379,834,o),
(370,791,cs),
(361,748,o),
(388,718,o),
(434,718,cs),
(480,718,o),
(522,748,o),
(531,791,cs),
(540,834,o),
(511,863,o),
(465,863,cs)
);
},
{
closed = 1;
nodes = (
(483,832,o),
(495,814,o),
(490,791,cs),
(485,767,o),
(465,749,o),
(441,749,cs),
(417,749,o),
(405,767,o),
(410,791,cs),
(415,814,o),
(435,832,o),
(459,832,cs)
);
},
{
closed = 1;
nodes = (
(673,690,l),
(611,690,l),
(518,250,ls),
(513,228,o),
(508,208,o),
(502,189,cs),
(475,102,o),
(404,36,o),
(289,36,cs),
(173,36,o),
(130,102,o),
(141,189,cs),
(143,208,o),
(147,228,o),
(152,250,cs),
(245,690,l),
(183,690,l),
(89,247,ls),
(85,227,o),
(81,207,o),
(78,183,cs),
(63,71,o),
(121,-14,o),
(279,-14,cs),
(436,-14,o),
(531,71,o),
(563,183,cs),
(570,207,o),
(575,227,o),
(579,247,cs)
);
}
);
width = 651;
}
);
note = Uring;
unicode = 366;
},
{
glyphname = V;
kernLeft = V;
kernRight = V;
lastChange = "2022-11-29 15:52:45 +0000";
layers = (
{
hints = (
{
horizontal = 1;
place = (-56, -8);
place = (-56, -8);
type = Stem;
},
{
horizontal = 1;
place = (634, -20);
target = down;
type = TopGhost;
},
{
place = (-26, 532);
place = (-26, 532);
type = Stem;
}
);
layerId = m01;
shapes = (
{
closed = 1;
nodes = (
(306,0,l),
(708,690,l),
(641,690,l),
(276,48,l),
(187,690,l),
(120,690,l),
(223,0,l)
);
}
);
width = 607;
}
);
note = V;
unicode = 86;
},
{
glyphname = W;
kernLeft = W;
kernRight = W;
lastChange = "2022-11-29 15:52:45 +0000";
layers = (
{
hints = (
{
horizontal = 1;
place = (-56, 0);
place = (-56, 0);
type = Stem;
},
{
horizontal = 1;
place = (634, -20);
target = down;
type = TopGhost;
},
{
place = (-30, 818);
place = (-30, 818);
type = Stem;
},
{
horizontal = 1;
place = (562, 6);
place = (562, 6);
type = Stem;
}
);
layerId = m01;
shapes = (
{
closed = 1;
nodes = (
(990,690,l),
(925,690,l),
(629,56,l),
(594,680,l),
(511,680,l),
(205,56,l),
(186,690,l),
(116,690,l),
(149,0,l),
(231,0,l),
(538,618,l),
(574,0,l),
(655,0,l)
);
}
);
width = 904;
}
);
note = W;
unicode = 87;
},
{
glyphname = Wacute;
kernLeft = W;
kernRight = W;
lastChange = "2022-11-29 15:52:45 +0000";
layers = (
{
hints = (
{
horizontal = 1;
place = (-56, 0);
place = (-56, 0);
type = Stem;
},
{
horizontal = 1;
place = (634, -20);
target = down;
type = TopGhost;
},
{
horizontal = 1;
place = (680, 38);
place = (680, 38);
type = Stem;
},
{
place = (-30, 818);
place = (-30, 818);
type = Stem;
},
{
horizontal = 1;
place = (562, 6);
place = (562, 6);
type = Stem;
}
);
layerId = m01;
shapes = (
{
closed = 1;
nodes = (
(577,736,l),
(669,830,l),
(609,830,l),
(535,736,l)
);
},
{
closed = 1;
nodes = (
(990,690,l),
(925,690,l),
(629,56,l),
(594,680,l),
(511,680,l),
(205,56,l),
(186,690,l),
(116,690,l),
(149,0,l),
(231,0,l),
(538,618,l),
(574,0,l),
(655,0,l)
);
}
);
width = 904;
}
);
note = Wacute;
unicode = 7810;
},
{
glyphname = Wcircumflex;
kernLeft = W;
kernRight = W;
lastChange = "2022-11-29 15:52:45 +0000";
layers = (
{
hints = (
{
horizontal = 1;
place = (-56, 0);
place = (-56, 0);
type = Stem;
},
{
horizontal = 1;
place = (634, -20);
target = down;
type = TopGhost;
},
{
horizontal = 1;
place = (680, 38);
place = (680, 38);
type = Stem;
},
{
place = (-30, 818);
place = (-30, 818);
type = Stem;
},
{
horizontal = 1;
place = (562, 6);
place = (562, 6);
type = Stem;
}
);
layerId = m01;
shapes = (
{
closed = 1;
nodes = (
(521,736,l),
(574,802,l),
(599,736,l),
(650,736,l),
(603,830,l),
(558,830,l),
(472,736,l)
);
},
{
closed = 1;
nodes = (
(990,690,l),
(925,690,l),
(629,56,l),
(594,680,l),
(511,680,l),
(205,56,l),
(186,690,l),
(116,690,l),
(149,0,l),
(231,0,l),
(538,618,l),
(574,0,l),
(655,0,l)
);
}
);
width = 904;
}
);
note = Wcircumflex;
unicode = 372;
},
{
glyphname = Wdieresis;
kernLeft = W;
kernRight = W;
lastChange = "2022-11-29 15:52:45 +0000";
layers = (
{
hints = (
{
horizontal = 1;
place = (-56, 0);
place = (-56, 0);
type = Stem;
},
{
horizontal = 1;
place = (634, -20);
target = down;
type = TopGhost;
},
{
horizontal = 1;
place = (691, 16);
place = (691, 16);
type = Stem;
},
{
place = (311, 16);
place = (311, 16);
type = Stem;
},
{
place = (425, 16);
place = (425, 16);
type = Stem;
},
{
horizontal = 1;
place = (562, 6);
place = (562, 6);
type = Stem;
}
);
layerId = m01;
shapes = (
{
closed = 1;
nodes = (
(990,690,l),
(925,690,l),
(629,56,l),
(594,680,l),
(511,680,l),
(205,56,l),
(186,690,l),
(116,690,l),
(149,0,l),
(231,0,l),
(538,618,l),
(574,0,l),
(655,0,l)
);
},
{
closed = 1;
nodes = (
(466,747,l),
(538,747,l),
(553,819,l),
(481,819,l)
);
},
{
closed = 1;
nodes = (
(580,747,l),
(652,747,l),
(667,819,l),
(595,819,l)
);
}
);
width = 904;
}
);
note = Wdieresis;
unicode = 7812;
},
{
glyphname = Wgrave;
kernLeft = W;
kernRight = W;
lastChange = "2022-11-29 15:52:45 +0000";
layers = (
{
hints = (
{
horizontal = 1;
place = (-56, 0);
place = (-56, 0);
type = Stem;
},
{
horizontal = 1;
place = (634, -20);
target = down;
type = TopGhost;
},
{
horizontal = 1;
place = (680, 38);
place = (680, 38);
type = Stem;
},
{
place = (-30, 818);
place = (-30, 818);
type = Stem;
},
{
horizontal = 1;
place = (562, 6);
place = (562, 6);
type = Stem;
}
);
layerId = m01;
shapes = (
{
closed = 1;
nodes = (
(541,736,l),
(583,736,l),
(550,830,l),
(489,830,l)
);
},
{
closed = 1;
nodes = (
(990,690,l),
(925,690,l),
(629,56,l),
(594,680,l),
(511,680,l),
(205,56,l),
(186,690,l),
(116,690,l),
(149,0,l),
(231,0,l),
(538,618,l),
(574,0,l),
(655,0,l)
);
}
);
width = 904;
}
);
note = Wgrave;
unicode = 7808;
},
{
glyphname = X;
lastChange = "2022-11-29 15:52:45 +0000";
layers = (
{
hints = (
{
horizontal = 1;
place = (-56, 21);
target = up;
type = BottomGhost;
},
{
horizontal = 1;
place = (634, -20);
target = down;
type = TopGhost;
},
{
place = (-30, 516);
place = (-30, 516);
type = Stem;
}
);
layerId = m01;
shapes = (
{
closed = 1;
nodes = (
(468,0,l),
(542,0,l),
(365,349,l),
(684,690,l),
(611,690,l),
(339,390,l),
(204,690,l),
(134,690,l),
(290,347,l),
(-30,0,l),
(43,0,l),
(318,306,l)
);
}
);
width = 605;
}
);
note = X;
unicode = 88;
},
{
glyphname = Y;
kernLeft = Y;
kernRight = Y;
lastChange = "2022-11-29 15:52:45 +0000";
layers = (
{
hints = (
{
horizontal = 1;
place = (-56, 21);
target = up;
type = BottomGhost;
},
{
horizontal = 1;
place = (634, -20);
target = down;
type = TopGhost;
},
{
place = (209, 6);
place = (209, 6);
type = Stem;
}
);
layerId = m01;
shapes = (
{
closed = 1;
nodes = (
(329,276,l),
(662,690,l),
(591,690,l),
(314,336,l),
(182,690,l),
(111,690,l),
(267,275,l),
(209,0,l),
(271,0,l)
);
}
);
width = 568;
}
);
note = Y;
unicode = 89;
},
{
glyphname = Yacute;
kernLeft = Y;
kernRight = Y;
lastChange = "2022-11-29 15:52:45 +0000";
layers = (
{
hints = (
{
horizontal = 1;
place = (-56, 21);
target = up;
type = BottomGhost;
},
{
horizontal = 1;
place = (634, -20);
target = down;
type = TopGhost;
},
{
horizontal = 1;
place = (680, 38);
place = (680, 38);
type = Stem;
},
{
place = (209, 6);
place = (209, 6);
type = Stem;
}
);
layerId = m01;
shapes = (
{
closed = 1;
nodes = (
(413,736,l),
(505,830,l),
(445,830,l),
(371,736,l)
);
},
{
closed = 1;
nodes = (
(329,276,l),
(662,690,l),
(591,690,l),
(314,336,l),
(182,690,l),
(111,690,l),
(267,275,l),
(209,0,l),
(271,0,l)
);
}
);
width = 568;
}
);
note = Yacute;
unicode = 221;
},
{
glyphname = Ycircumflex;
kernLeft = Y;
kernRight = Y;
lastChange = "2022-11-29 15:52:45 +0000";
layers = (
{
hints = (
{
horizontal = 1;
place = (-56, 21);
target = up;
type = BottomGhost;
},
{
horizontal = 1;
place = (634, -20);
target = down;
type = TopGhost;
},
{
horizontal = 1;
place = (680, 38);
place = (680, 38);
type = Stem;
},
{
place = (209, 6);
place = (209, 6);
type = Stem;
}
);
layerId = m01;
shapes = (
{
closed = 1;
nodes = (
(357,736,l),
(410,802,l),
(435,736,l),
(486,736,l),
(439,830,l),
(394,830,l),
(308,736,l)
);
},
{
closed = 1;
nodes = (
(329,276,l),
(662,690,l),
(591,690,l),
(314,336,l),
(182,690,l),
(111,690,l),
(267,275,l),
(209,0,l),
(271,0,l)
);
}
);
width = 568;
}
);
note = Ycircumflex;
unicode = 374;
},
{
glyphname = Ydieresis;
kernLeft = Y;
kernRight = Y;
lastChange = "2022-11-29 15:52:45 +0000";
layers = (
{
hints = (
{
horizontal = 1;
place = (-56, 21);
target = up;
type = BottomGhost;
},
{
horizontal = 1;
place = (634, -20);
target = down;
type = TopGhost;
},
{
horizontal = 1;
place = (691, 16);
place = (691, 16);
type = Stem;
},
{
place = (147, 16);
place = (147, 16);
type = Stem;
},
{
place = (261, 16);
place = (261, 16);
type = Stem;
},
{
place = (209, 6);
place = (209, 6);
type = Stem;
}
);
layerId = m01;
shapes = (
{
closed = 1;
nodes = (
(329,276,l),
(662,690,l),
(591,690,l),
(314,336,l),
(182,690,l),
(111,690,l),
(267,275,l),
(209,0,l),
(271,0,l)
);
},
{
closed = 1;
nodes = (
(307,748,l),
(379,748,l),
(394,820,l),
(322,820,l)
);
},
{
closed = 1;
nodes = (
(421,748,l),
(493,748,l),
(508,820,l),
(436,820,l)
);
}
);
width = 568;
}
);
note = Ydieresis;
unicode = 376;
},
{
glyphname = Ygrave;
kernLeft = Y;
kernRight = Y;
lastChange = "2022-11-29 15:52:45 +0000";
layers = (
{
hints = (
{
horizontal = 1;
place = (-56, 21);
target = up;
type = BottomGhost;
},
{
horizontal = 1;
place = (634, -20);
target = down;
type = TopGhost;
},
{
horizontal = 1;
place = (680, 38);
place = (680, 38);
type = Stem;
},
{
place = (209, 6);
place = (209, 6);
type = Stem;
}
);
layerId = m01;
shapes = (
{
closed = 1;
nodes = (
(377,736,l),
(419,736,l),
(386,830,l),
(325,830,l)
);
},
{
closed = 1;
nodes = (
(329,276,l),
(662,690,l),
(591,690,l),
(314,336,l),
(182,690,l),
(111,690,l),
(267,275,l),
(209,0,l),
(271,0,l)
);
}
);
width = 568;
}
);
note = Ygrave;
unicode = 7922;
},
{
glyphname = Z;
kernLeft = Z;
kernRight = Z;
lastChange = "2022-11-29 15:52:45 +0000";
layers = (
{
hints = (
{
horizontal = 1;
place = (-56, -4);
place = (-56, -4);
type = Stem;
},
{
horizontal = 1;
place = (582, -4);
place = (582, -4);
type = Stem;
},
{
place = (-14, 450);
place = (-14, 450);
type = Stem;
}
);
layerId = m01;
shapes = (
{
closed = 1;
nodes = (
(503,52,l),
(71,52,l),
(621,639,l),
(632,690,l),
(160,690,l),
(149,638,l),
(549,638,l),
(-4,48,l),
(-14,0,l),
(492,0,l)
);
}
);
width = 571;
}
);
note = Z;
unicode = 90;
},
{
glyphname = Zacute;
kernLeft = Z;
kernRight = Z;
lastChange = "2022-11-29 15:52:45 +0000";
layers = (
{
hints = (
{
horizontal = 1;
place = (-56, -4);
place = (-56, -4);
type = Stem;
},
{
horizontal = 1;
place = (582, 136);
place = (582, 136);
type = Stem;
},
{
place = (-14, 450);
place = (-14, 450);
type = Stem;
},
{
horizontal = 1;
place = (582, -4);
place = (582, -4);
type = Stem;
}
);
layerId = m01;
shapes = (
{
closed = 1;
nodes = (
(411,736,l),
(503,830,l),
(443,830,l),
(369,736,l)
);
},
{
closed = 1;
nodes = (
(503,52,l),
(71,52,l),
(621,639,l),
(632,690,l),
(160,690,l),
(149,638,l),
(549,638,l),
(-4,48,l),
(-14,0,l),
(492,0,l)
);
}
);
width = 571;
}
);
note = Zacute;
unicode = 377;
},
{
glyphname = Zcaron;
kernLeft = Z;
kernRight = Z;
lastChange = "2022-11-29 15:52:45 +0000";
layers = (
{
hints = (
{
horizontal = 1;
place = (-56, -4);
place = (-56, -4);
type = Stem;
},
{
horizontal = 1;
place = (582, 136);
place = (582, 136);
type = Stem;
},
{
place = (-14, 450);
place = (-14, 450);
type = Stem;
},
{
horizontal = 1;
place = (582, -4);
place = (582, -4);
type = Stem;
}
);
layerId = m01;
shapes = (
{
closed = 1;
nodes = (
(372,736,l),
(417,736,l),
(504,830,l),
(454,830,l),
(401,764,l),
(376,830,l),
(326,830,l)
);
},
{
closed = 1;
nodes = (
(503,52,l),
(71,52,l),
(621,639,l),
(632,690,l),
(160,690,l),
(149,638,l),
(549,638,l),
(-4,48,l),
(-14,0,l),
(492,0,l)
);
}
);
width = 571;
}
);
note = Zcaron;
unicode = 381;
},
{
glyphname = Zdotaccent;
kernLeft = Z;
kernRight = Z;
lastChange = "2022-11-29 15:52:45 +0000";
layers = (
{
hints = (
{
horizontal = 1;
place = (-56, -4);
place = (-56, -4);
type = Stem;
},
{
horizontal = 1;
place = (582, -4);
place = (582, -4);
type = Stem;
},
{
horizontal = 1;
place = (691, 16);
place = (691, 16);
type = Stem;
},
{
place = (202, 16);
place = (202, 16);
type = Stem;
}
);
layerId = m01;
shapes = (
{
closed = 1;
nodes = (
(416,747,o),
(436,763,o),
(440,783,cs),
(444,803,o),
(432,819,o),
(412,819,cs),
(392,819,o),
(372,803,o),
(368,783,cs),
(364,763,o),
(376,747,o),
(396,747,cs)
);
},
{
closed = 1;
nodes = (
(503,52,l),
(71,52,l),
(621,639,l),
(632,690,l),
(160,690,l),
(149,638,l),
(549,638,l),
(-4,48,l),
(-14,0,l),
(492,0,l)
);
}
);
width = 571;
}
);
note = Zdotaccent;
unicode = 379;
},
{
glyphname = a;
kernLeft = a;
lastChange = "2022-11-29 15:52:45 +0000";
layers = (
{
hints = (
{
horizontal = 1;
place = (-56, 21);
target = up;
type = BottomGhost;
},
{
horizontal = 1;
place = (209, -8);
place = (209, -8);
type = Stem;
},
{
horizontal = 1;
place = (437, -6);
place = (437, -6);
type = Stem;
},
{
place = (-16, 12);
place = (-16, 12);
type = Stem;
},
{
place = (324, 6);
place = (324, 6);
type = Stem;
},
{
horizontal = 1;
place = (-70, -7);
place = (-70, -7);
type = Stem;
}
);
layerId = m01;
shapes = (
{
closed = 1;
nodes = (
(334,0,l),
(396,0,l),
(402,63,o),
(407,101,o),
(417,148,cs),
(456,333,ls),
(462,358,o),
(466,380,o),
(469,403,cs),
(480,490,o),
(436,543,o),
(319,543,cs),
(207,543,o),
(114,476,o),
(85,372,c),
(150,372,l),
(175,454,o),
(235,493,o),
(308,493,cs),
(384,493,o),
(414,458,o),
(406,397,cs),
(404,376,o),
(399,356,o),
(394,332,cs),
(390,313,l),
(356,313,ls),
(165,313,o),
(38,254,o),
(12,133,cs),
(-8,37,o),
(51,-14,o),
(149,-14,cs),
(207,-14,o),
(262,3,o),
(307,40,c),
(345,96,l)
);
},
{
closed = 1;
nodes = (
(101,35,o),
(67,71,o),
(81,138,cs),
(103,240,o),
(233,275,o),
(380,265,c),
(367,204,ls),
(346,105,o),
(270,35,o),
(178,35,cs)
);
}
);
width = 517;
}
);
note = a;
unicode = 97;
},
{
glyphname = aacute;
kernLeft = a;
lastChange = "2022-11-29 15:52:45 +0000";
layers = (
{
hints = (
{
horizontal = 1;
place = (-70, -7);
place = (-70, -7);
type = Stem;
},
{
horizontal = 1;
place = (209, -8);
place = (209, -8);
type = Stem;
},
{
horizontal = 1;
place = (437, -6);
place = (437, -6);
type = Stem;
},
{
horizontal = 1;
place = (524, 54);
place = (524, 54);
type = Stem;
},
{
place = (-16, 12);
place = (-16, 12);
type = Stem;
},
{
place = (324, 6);
place = (324, 6);
type = Stem;
},
{
horizontal = 1;
place = (-56, 21);
target = up;
type = BottomGhost;
}
);
layerId = m01;
shapes = (
{
closed = 1;
nodes = (
(344,580,l),
(446,690,l),
(386,690,l),
(302,580,l)
);
},
{
closed = 1;
nodes = (
(334,0,l),
(396,0,l),
(402,63,o),
(407,101,o),
(417,148,cs),
(456,333,ls),
(462,358,o),
(466,380,o),
(469,403,cs),
(480,490,o),
(436,543,o),
(319,543,cs),
(207,543,o),
(114,476,o),
(85,372,c),
(150,372,l),
(175,454,o),
(235,493,o),
(308,493,cs),
(384,493,o),
(414,458,o),
(406,397,cs),
(404,376,o),
(399,356,o),
(394,332,cs),
(390,313,l),
(356,313,ls),
(165,313,o),
(38,254,o),
(12,133,cs),
(-8,37,o),
(51,-14,o),
(149,-14,cs),
(207,-14,o),
(262,3,o),
(307,40,c),
(345,96,l)
);
},
{
closed = 1;
nodes = (
(101,35,o),
(67,71,o),
(81,138,cs),
(103,240,o),
(233,275,o),
(380,265,c),
(367,204,ls),
(346,105,o),
(270,35,o),
(178,35,cs)
);
}
);
width = 517;
}
);
note = aacute;
unicode = 225;
},
{
glyphname = abreve;
kernLeft = a;
lastChange = "2022-11-29 15:52:45 +0000";
layers = (
{
hints = (
{
horizontal = 1;
place = (-70, -7);
place = (-70, -7);
type = Stem;
},
{
horizontal = 1;
place = (209, -8);
place = (209, -8);
type = Stem;
},
{
horizontal = 1;
place = (437, -6);
place = (437, -6);
type = Stem;
},
{
horizontal = 1;
place = (512, -14);
place = (512, -14);
type = Stem;
},
{
horizontal = 1;
place = (634, -20);
target = down;
type = TopGhost;
},
{
place = (-16, 12);
place = (-16, 12);
type = Stem;
},
{
place = (107, -16);
place = (107, -16);
type = Stem;
},
{
place = (263, -16);
place = (263, -16);
type = Stem;
},
{
place = (324, 6);
place = (324, 6);
type = Stem;
},
{
horizontal = 1;
place = (-56, 21);
target = up;
type = BottomGhost;
}
);
layerId = m01;
shapes = (
{
closed = 1;
nodes = (
(392,568,o),
(433,611,o),
(449,690,c),
(409,690,l),
(396,634,o),
(369,610,o),
(334,610,cs),
(299,610,o),
(282,634,o),
(293,690,c),
(253,690,l),
(237,611,o),
(257,568,o),
(325,568,cs)
);
},
{
closed = 1;
nodes = (
(334,0,l),
(396,0,l),
(402,63,o),
(407,101,o),
(417,148,cs),
(456,333,ls),
(462,358,o),
(466,380,o),
(469,403,cs),
(480,490,o),
(436,543,o),
(319,543,cs),
(207,543,o),
(114,476,o),
(85,372,c),
(150,372,l),
(175,454,o),
(235,493,o),
(308,493,cs),
(384,493,o),
(414,458,o),
(406,397,cs),
(404,376,o),
(399,356,o),
(394,332,cs),
(390,313,l),
(356,313,ls),
(165,313,o),
(38,254,o),
(12,133,cs),
(-8,37,o),
(51,-14,o),
(149,-14,cs),
(207,-14,o),
(262,3,o),
(307,40,c),
(345,96,l)
);
},
{
closed = 1;
nodes = (
(101,35,o),
(67,71,o),
(81,138,cs),
(103,240,o),
(233,275,o),
(380,265,c),
(367,204,ls),
(346,105,o),
(270,35,o),
(178,35,cs)
);
}
);
width = 517;
}
);
note = abreve;
unicode = 259;
},
{
glyphname = acircumflex;
kernLeft = a;
lastChange = "2022-11-29 15:52:45 +0000";
layers = (
{
hints = (
{
horizontal = 1;
place = (-70, -7);
place = (-70, -7);
type = Stem;
},
{
horizontal = 1;
place = (209, -8);
place = (209, -8);
type = Stem;
},
{
horizontal = 1;
place = (437, -6);
place = (437, -6);
type = Stem;
},
{
horizontal = 1;
place = (524, 54);
place = (524, 54);
type = Stem;
},
{
place = (-16, 12);
place = (-16, 12);
type = Stem;
},
{
place = (324, 6);
place = (324, 6);
type = Stem;
},
{
horizontal = 1;
place = (599, -21);
place = (599, -21);
type = Stem;
},
{
horizontal = 1;
place = (-56, 21);
target = up;
type = BottomGhost;
}
);
layerId = m01;
shapes = (
{
closed = 1;
nodes = (
(288,580,l),
(344,655,l),
(369,580,l),
(418,580,l),
(374,690,l),
(329,690,l),
(240,580,l)
);
},
{
closed = 1;
nodes = (
(334,0,l),
(396,0,l),
(402,63,o),
(407,101,o),
(417,148,cs),
(456,333,ls),
(462,358,o),
(466,380,o),
(469,403,cs),
(480,490,o),
(436,543,o),
(319,543,cs),
(207,543,o),
(114,476,o),
(85,372,c),
(150,372,l),
(175,454,o),
(235,493,o),
(308,493,cs),
(384,493,o),
(414,458,o),
(406,397,cs),
(404,376,o),
(399,356,o),
(394,332,cs),
(390,313,l),
(356,313,ls),
(165,313,o),
(38,254,o),
(12,133,cs),
(-8,37,o),
(51,-14,o),
(149,-14,cs),
(207,-14,o),
(262,3,o),
(307,40,c),
(345,96,l)
);
},
{
closed = 1;
nodes = (
(101,35,o),
(67,71,o),
(81,138,cs),
(103,240,o),
(233,275,o),
(380,265,c),
(367,204,ls),
(346,105,o),
(270,35,o),
(178,35,cs)
);
}
);
width = 517;
}
);
note = acircumflex;
unicode = 226;
},
{
glyphname = adieresis;
kernLeft = a;
lastChange = "2022-11-29 15:52:45 +0000";
layers = (
{
hints = (
{
horizontal = 1;
place = (-70, -7);
place = (-70, -7);
type = Stem;
},
{
horizontal = 1;
place = (209, -8);
place = (209, -8);
type = Stem;
},
{
horizontal = 1;
place = (437, -6);
place = (437, -6);
type = Stem;
},
{
horizontal = 1;
place = (538, 17);
place = (538, 17);
type = Stem;
},
{
place = (-16, 12);
place = (-16, 12);
type = Stem;
},
{
place = (108, 17);
place = (108, 17);
type = Stem;
},
{
place = (324, 6);
place = (324, 6);
type = Stem;
},
{
place = (229, 17);
place = (229, 17);
type = Stem;
},
{
horizontal = 1;
place = (-56, 21);
target = up;
type = BottomGhost;
}
);
layerId = m01;
shapes = (
{
closed = 1;
nodes = (
(334,0,l),
(396,0,l),
(402,63,o),
(407,101,o),
(417,148,cs),
(456,333,ls),
(462,358,o),
(466,380,o),
(469,403,cs),
(480,490,o),
(436,543,o),
(319,543,cs),
(207,543,o),
(114,476,o),
(85,372,c),
(150,372,l),
(175,454,o),
(235,493,o),
(308,493,cs),
(384,493,o),
(414,458,o),
(406,397,cs),
(404,376,o),
(399,356,o),
(394,332,cs),
(390,313,l),
(356,313,ls),
(165,313,o),
(38,254,o),
(12,133,cs),
(-8,37,o),
(51,-14,o),
(149,-14,cs),
(207,-14,o),
(262,3,o),
(307,40,c),
(345,96,l)
);
},
{
closed = 1;
nodes = (
(101,35,o),
(67,71,o),
(81,138,cs),
(103,240,o),
(233,275,o),
(380,265,c),
(367,204,ls),
(346,105,o),
(270,35,o),
(178,35,cs)
);
},
{
closed = 1;
nodes = (
(239,595,l),
(311,595,l),
(326,667,l),
(254,667,l)
);
},
{
closed = 1;
nodes = (
(353,595,l),
(425,595,l),
(440,667,l),
(368,667,l)
);
}
);
width = 517;
}
);
note = adieresis;
unicode = 228;
},
{
glyphname = agrave;
kernLeft = a;
lastChange = "2022-11-29 15:52:45 +0000";
layers = (
{
hints = (
{
horizontal = 1;
place = (-70, -7);
place = (-70, -7);
type = Stem;
},
{
horizontal = 1;
place = (209, -8);
place = (209, -8);
type = Stem;
},
{
horizontal = 1;
place = (437, -6);
place = (437, -6);
type = Stem;
},
{
horizontal = 1;
place = (524, 54);
place = (524, 54);
type = Stem;
},
{
place = (-16, 12);
place = (-16, 12);
type = Stem;
},
{
place = (324, 6);
place = (324, 6);
type = Stem;
},
{
horizontal = 1;
place = (-56, 21);
target = up;
type = BottomGhost;
}
);
layerId = m01;
shapes = (
{
closed = 1;
nodes = (
(304,580,l),
(347,580,l),
(309,690,l),
(248,690,l)
);
},
{
closed = 1;
nodes = (
(334,0,l),
(396,0,l),
(402,63,o),
(407,101,o),
(417,148,cs),
(456,333,ls),
(462,358,o),
(466,380,o),
(469,403,cs),
(480,490,o),
(436,543,o),
(319,543,cs),
(207,543,o),
(114,476,o),
(85,372,c),
(150,372,l),
(175,454,o),
(235,493,o),
(308,493,cs),
(384,493,o),
(414,458,o),
(406,397,cs),
(404,376,o),
(399,356,o),
(394,332,cs),
(390,313,l),
(356,313,ls),
(165,313,o),
(38,254,o),
(12,133,cs),
(-8,37,o),
(51,-14,o),
(149,-14,cs),
(207,-14,o),
(262,3,o),
(307,40,c),
(345,96,l)
);
},
{
closed = 1;
nodes = (
(101,35,o),
(67,71,o),
(81,138,cs),
(103,240,o),
(233,275,o),
(380,265,c),
(367,204,ls),
(346,105,o),
(270,35,o),
(178,35,cs)
);
}
);
width = 517;
}
);
note = agrave;
unicode = 224;
},
{
glyphname = amacron;
kernLeft = a;
lastChange = "2022-11-29 15:52:45 +0000";
layers = (
{
hints = (
{
horizontal = 1;
place = (-70, -7);
place = (-70, -7);
type = Stem;
},
{
horizontal = 1;
place = (209, -8);
place = (209, -8);
type = Stem;
},
{
horizontal = 1;
place = (437, -6);
place = (437, -6);
type = Stem;
},
{
horizontal = 1;
place = (554, -16);
place = (554, -16);
type = Stem;
},
{
place = (-16, 12);
place = (-16, 12);
type = Stem;
},
{
place = (104, 146);
place = (104, 146);
type = Stem;
},
{
place = (324, 6);
place = (324, 6);
type = Stem;
},
{
horizontal = 1;
place = (-56, 21);
target = up;
type = BottomGhost;
}
);
layerId = m01;
shapes = (
{
closed = 1;
nodes = (
(435,610,l),
(444,650,l),
(242,650,l),
(233,610,l)
);
},
{
closed = 1;
nodes = (
(334,0,l),
(396,0,l),
(402,63,o),
(407,101,o),
(417,148,cs),
(456,333,ls),
(462,358,o),
(466,380,o),
(469,403,cs),
(480,490,o),
(436,543,o),
(319,543,cs),
(207,543,o),
(114,476,o),
(85,372,c),
(150,372,l),
(175,454,o),
(235,493,o),
(308,493,cs),
(384,493,o),
(414,458,o),
(406,397,cs),
(404,376,o),
(399,356,o),
(394,332,cs),
(390,313,l),
(356,313,ls),
(165,313,o),
(38,254,o),
(12,133,cs),
(-8,37,o),
(51,-14,o),
(149,-14,cs),
(207,-14,o),
(262,3,o),
(307,40,c),
(345,96,l)
);
},
{
closed = 1;
nodes = (
(101,35,o),
(67,71,o),
(81,138,cs),
(103,240,o),
(233,275,o),
(380,265,c),
(367,204,ls),
(346,105,o),
(270,35,o),
(178,35,cs)
);
}
);
width = 517;
}
);
note = amacron;
unicode = 257;
},
{
glyphname = aogonek;
kernLeft = a;
lastChange = "2022-11-29 15:52:45 +0000";
layers = (
{
hints = (
{
horizontal = 1;
place = (-279, -15);
place = (-279, -15);
type = Stem;
},
{
horizontal = 1;
place = (-56, 21);
target = up;
type = BottomGhost;
},
{
horizontal = 1;
place = (209, -8);
place = (209, -8);
type = Stem;
},
{
horizontal = 1;
place = (437, -6);
place = (437, -6);
type = Stem;
},
{
place = (-16, 12);
place = (-16, 12);
type = Stem;
},
{
place = (214, 4);
place = (214, 4);
type = Stem;
},
{
place = (324, 6);
place = (324, 6);
type = Stem;
},
{
horizontal = 1;
place = (-70, -7);
place = (-70, -7);
type = Stem;
}
);
layerId = m01;
shapes = (
{
closed = 1;
nodes = (
(396,0,l),
(402,63,o),
(407,101,o),
(417,148,cs),
(456,333,ls),
(462,358,o),
(466,380,o),
(469,403,cs),
(480,490,o),
(436,543,o),
(319,543,cs),
(207,543,o),
(114,476,o),
(85,372,c),
(150,372,l),
(175,454,o),
(235,493,o),
(308,493,cs),
(384,493,o),
(414,458,o),
(406,397,cs),
(404,376,o),
(399,356,o),
(394,332,cs),
(390,313,l),
(356,313,ls),
(165,313,o),
(38,254,o),
(12,133,cs),
(-8,37,o),
(51,-14,o),
(149,-14,cs),
(207,-14,o),
(262,3,o),
(307,40,c),
(345,96,l),
(335,12,l),
(264,-12,o),
(199,-69,o),
(183,-144,cs),
(170,-204,o),
(202,-223,o),
(248,-223,cs),
(280,-223,o),
(309,-215,o),
(336,-197,c),
(344,-158,l),
(320,-175,o),
(301,-182,o),
(280,-182,cs),
(251,-182,o),
(238,-168,o),
(246,-131,cs),
(259,-67,o),
(316,-13,o),
(378,0,c)
);
},
{
closed = 1;
nodes = (
(101,35,o),
(67,71,o),
(81,138,cs),
(103,240,o),
(233,275,o),
(380,265,c),
(367,204,ls),
(346,105,o),
(270,35,o),
(178,35,cs)
);
}
);
width = 517;
}
);
note = aogonek;
unicode = 261;
},
{
glyphname = aring;
kernLeft = a;
lastChange = "2022-11-29 15:52:45 +0000";
layers = (
{
hints = (
{
horizontal = 1;
place = (-56, 21);
target = up;
type = BottomGhost;
},
{
horizontal = 1;
place = (209, -8);
place = (209, -8);
type = Stem;
},
{
horizontal = 1;
place = (437, -6);
place = (437, -6);
type = Stem;
},
{
horizontal = 1;
place = (512, -26);
place = (512, -26);
type = Stem;
},
{
horizontal = 1;
place = (633, -26);
place = (633, -26);
type = Stem;
},
{
place = (-16, 12);
place = (-16, 12);
type = Stem;
},
{
place = (125, -16);
place = (125, -16);
type = Stem;
},
{
place = (245, -16);
place = (245, -16);
type = Stem;
},
{
place = (324, 6);
place = (324, 6);
type = Stem;
},
{
horizontal = 1;
place = (-70, -7);
place = (-70, -7);
type = Stem;
}
);
layerId = m01;
shapes = (
{
closed = 1;
nodes = (
(371,568,o),
(412,599,o),
(421,643,cs),
(431,688,o),
(404,719,o),
(358,719,cs),
(312,719,o),
(271,688,o),
(261,643,cs),
(252,599,o),
(279,568,o),
(325,568,cs)
);
},
{
closed = 1;
nodes = (
(375,689,o),
(387,670,o),
(381,643,cs),
(376,616,o),
(356,598,o),
(332,598,cs),
(308,598,o),
(296,616,o),
(301,643,cs),
(307,670,o),
(327,689,o),
(351,689,cs)
);
},
{
closed = 1;
nodes = (
(334,0,l),
(396,0,l),
(402,63,o),
(407,101,o),
(417,148,cs),
(456,333,ls),
(462,358,o),
(466,380,o),
(469,403,cs),
(480,490,o),
(436,543,o),
(319,543,cs),
(207,543,o),
(114,476,o),
(85,372,c),
(150,372,l),
(175,454,o),
(235,493,o),
(308,493,cs),
(384,493,o),
(414,458,o),
(406,397,cs),
(404,376,o),
(399,356,o),
(394,332,cs),
(390,313,l),
(356,313,ls),
(165,313,o),
(38,254,o),
(12,133,cs),
(-8,37,o),
(51,-14,o),
(149,-14,cs),
(207,-14,o),
(262,3,o),
(307,40,c),
(345,96,l)
);
},
{
closed = 1;
nodes = (
(101,35,o),
(67,71,o),
(81,138,cs),
(103,240,o),
(233,275,o),
(380,265,c),
(367,204,ls),
(346,105,o),
(270,35,o),
(178,35,cs)
);
}
);
width = 517;
}
);
note = aring;
unicode = 229;
},
{
glyphname = atilde;
kernLeft = a;
lastChange = "2022-11-29 15:52:45 +0000";
layers = (
{
hints = (
{
horizontal = 1;
place = (-70, -7);
place = (-70, -7);
type = Stem;
},
{
horizontal = 1;
place = (209, -8);
place = (209, -8);
type = Stem;
},
{
horizontal = 1;
place = (437, -6);
place = (437, -6);
type = Stem;
},
{
horizontal = 1;
place = (576, -17);
place = (576, -17);
type = Stem;
},
{
place = (-16, 12);
place = (-16, 12);
type = Stem;
},
{
place = (106, -25);
place = (106, -25);
type = Stem;
},
{
place = (324, 6);
place = (324, 6);
type = Stem;
},
{
horizontal = 1;
place = (551, -16);
place = (551, -16);
type = Stem;
},
{
place = (273, -25);
place = (273, -25);
type = Stem;
},
{
horizontal = 1;
place = (-56, 21);
target = up;
type = BottomGhost;
}
);
layerId = m01;
shapes = (
{
closed = 1;
nodes = (
(296,632,o),
(307,628,o),
(329,620,cs),
(355,611,o),
(369,607,o),
(387,607,cs),
(416,607,o),
(436,622,o),
(445,667,c),
(414,667,l),
(411,652,o),
(404,647,o),
(394,647,cs),
(385,647,o),
(374,650,o),
(352,658,cs),
(326,667,o),
(312,671,o),
(294,671,cs),
(265,671,o),
(245,656,o),
(236,611,c),
(267,611,l),
(270,626,o),
(277,632,o),
(287,632,cs)
);
},
{
closed = 1;
nodes = (
(334,0,l),
(396,0,l),
(402,63,o),
(407,101,o),
(417,148,cs),
(456,333,ls),
(462,358,o),
(466,380,o),
(469,403,cs),
(480,490,o),
(436,543,o),
(319,543,cs),
(207,543,o),
(114,476,o),
(85,372,c),
(150,372,l),
(175,454,o),
(235,493,o),
(308,493,cs),
(384,493,o),
(414,458,o),
(406,397,cs),
(404,376,o),
(399,356,o),
(394,332,cs),
(390,313,l),
(356,313,ls),
(165,313,o),
(38,254,o),
(12,133,cs),
(-8,37,o),
(51,-14,o),
(149,-14,cs),
(207,-14,o),
(262,3,o),
(307,40,c),
(345,96,l)
);
},
{
closed = 1;
nodes = (
(101,35,o),
(67,71,o),
(81,138,cs),
(103,240,o),
(233,275,o),
(380,265,c),
(367,204,ls),
(346,105,o),
(270,35,o),
(178,35,cs)
);
}
);
width = 517;
}
);
note = atilde;
unicode = 227;
},
{
glyphname = ae;
kernLeft = a;
kernRight = ae;
lastChange = "2022-11-29 15:52:45 +0000";
layers = (
{
hints = (
{
horizontal = 1;
place = (-70, -7);
place = (-70, -7);
type = Stem;
},
{
horizontal = 1;
place = (190, -7);
place = (190, -7);
type = Stem;
},
{
horizontal = 1;
place = (437, -6);
place = (437, -6);
type = Stem;
},
{
place = (-16, 12);
place = (-16, 12);
type = Stem;
},
{
place = (342, 6);
place = (342, 6);
type = Stem;
},
{
place = (743, 7);
place = (743, 7);
type = Stem;
}
);
layerId = m01;
shapes = (
{
closed = 1;
nodes = (
(896,425,o),
(847,543,o),
(697,543,cs),
(611,543,o),
(534,503,o),
(478,430,c),
(470,504,o),
(422,543,o),
(321,543,cs),
(203,543,o),
(110,476,o),
(84,372,c),
(148,372,l),
(172,454,o),
(235,493,o),
(310,493,cs),
(407,493,o),
(433,430,o),
(410,322,cs),
(405,296,l),
(371,296,ls),
(176,296,o),
(38,254,o),
(12,133,cs),
(-9,35,o),
(63,-14,o),
(157,-14,cs),
(227,-14,o),
(291,8,o),
(356,65,c),
(393,119,l),
(410,23,o),
(483,-14,o),
(569,-14,cs),
(674,-14,o),
(783,44,o),
(834,167,c),
(769,167,l),
(732,80,o),
(656,35,o),
(582,35,cs),
(493,35,o),
(431,95,o),
(456,246,c),
(857,246,l),
(861,262,o),
(863,272,o),
(865,279,cs)
);
},
{
closed = 1;
nodes = (
(466,295,l),
(504,428,o),
(590,493,o),
(684,493,cs),
(774,493,o),
(827,432,o),
(805,295,c)
);
},
{
closed = 1;
nodes = (
(388,217,ls),
(364,107,o),
(277,35,o),
(182,35,cs),
(107,35,o),
(67,71,o),
(81,138,cs),
(101,234,o),
(236,253,o),
(394,246,c)
);
}
);
width = 901;
}
);
note = ae;
unicode = 230;
},
{
glyphname = b;
kernLeft = b;
kernRight = b;
lastChange = "2022-11-29 15:52:45 +0000";
layers = (
{
hints = (
{
horizontal = 1;
place = (-70, -7);
place = (-70, -7);
type = Stem;
},
{
horizontal = 1;
place = (437, -6);
place = (437, -6);
type = Stem;
},
{
horizontal = 1;
place = (679, -20);
target = down;
type = TopGhost;
},
{
place = (17, 6);
place = (17, 6);
type = Stem;
},
{
place = (432, 12);
place = (432, 12);
type = Stem;
},
{
horizontal = 1;
place = (-56, 21);
target = up;
type = BottomGhost;
}
);
layerId = m01;
shapes = (
{
closed = 1;
nodes = (
(318,543,o),
(262,525,o),
(218,489,c),
(170,431,l),
(235,735,l),
(173,735,l),
(17,0,l),
(79,0,l),
(98,90,l),
(119,33,l),
(145,2,o),
(193,-14,o),
(245,-14,cs),
(379,-14,o),
(516,79,o),
(557,271,cs),
(591,428,o),
(527,543,o),
(379,543,cs)
);
},
{
closed = 1;
nodes = (
(177,35,o),
(97,86,o),
(129,237,cs),
(138,277,ls),
(172,437,o),
(265,493,o),
(359,493,cs),
(475,493,o),
(515,390,o),
(488,263,cs),
(457,120,o),
(361,35,o),
(255,35,cs)
);
}
);
width = 586;
}
);
note = b;
unicode = 98;
},
{
glyphname = c;
kernLeft = c;
lastChange = "2022-11-29 15:52:45 +0000";
layers = (
{
hints = (
{
horizontal = 1;
place = (-70, -7);
place = (-70, -7);
type = Stem;
},
{
horizontal = 1;
place = (438, -7);
place = (438, -7);
type = Stem;
},
{
place = (-26, 12);
place = (-26, 12);
type = Stem;
}
);
layerId = m01;
shapes = (
{
closed = 1;
nodes = (
(202,543,o),
(67,439,o),
(30,264,cs),
(-10,77,o),
(74,-14,o),
(206,-14,cs),
(320,-14,o),
(420,48,o),
(469,165,c),
(405,165,l),
(368,80,o),
(298,35,o),
(220,35,cs),
(131,35,o),
(64,106,o),
(99,269,cs),
(131,422,o),
(234,494,o),
(323,494,cs),
(408,494,o),
(450,445,o),
(449,356,c),
(514,356,l),
(522,468,o),
(457,543,o),
(335,543,cs)
);
}
);
width = 525;
}
);
note = c;
unicode = 99;
},
{
glyphname = cacute;
kernLeft = c;
lastChange = "2022-11-29 15:52:45 +0000";
layers = (
{
hints = (
{
horizontal = 1;
place = (-70, -7);
place = (-70, -7);
type = Stem;
},
{
horizontal = 1;
place = (438, -7);
place = (438, -7);
type = Stem;
},
{
horizontal = 1;
place = (524, 54);
place = (524, 54);
type = Stem;
},
{
place = (-26, 12);
place = (-26, 12);
type = Stem;
}
);
layerId = m01;
shapes = (
{
closed = 1;
nodes = (
(351,580,l),
(453,690,l),
(393,690,l),
(309,580,l)
);
},
{
closed = 1;
nodes = (
(202,543,o),
(67,439,o),
(30,264,cs),
(-10,77,o),
(74,-14,o),
(206,-14,cs),
(320,-14,o),
(420,48,o),
(469,165,c),
(405,165,l),
(368,80,o),
(298,35,o),
(220,35,cs),
(131,35,o),
(64,106,o),
(99,269,cs),
(131,422,o),
(234,494,o),
(323,494,cs),
(408,494,o),
(450,445,o),
(449,356,c),
(514,356,l),
(522,468,o),
(457,543,o),
(335,543,cs)
);
}
);
width = 525;
}
);
note = cacute;
unicode = 263;
},
{
glyphname = ccaron;
kernLeft = c;
lastChange = "2022-11-29 15:52:45 +0000";
layers = (
{
hints = (
{
horizontal = 1;
place = (-70, -7);
place = (-70, -7);
type = Stem;
},
{
horizontal = 1;
place = (438, -7);
place = (438, -7);
type = Stem;
},
{
horizontal = 1;
place = (524, 54);
place = (524, 54);
type = Stem;
},
{
place = (-26, 12);
place = (-26, 12);
type = Stem;
}
);
layerId = m01;
shapes = (
{
closed = 1;
nodes = (
(313,580,l),
(358,580,l),
(448,690,l),
(400,690,l),
(343,615,l),
(319,690,l),
(270,690,l)
);
},
{
closed = 1;
nodes = (
(131,35,o),
(64,106,o),
(99,269,cs),
(131,422,o),
(234,494,o),
(323,494,cs),
(408,494,o),
(450,445,o),
(449,356,c),
(514,356,l),
(522,468,o),
(457,543,o),
(335,543,cs),
(202,543,o),
(67,439,o),
(30,264,cs),
(-10,77,o),
(74,-14,o),
(206,-14,cs),
(320,-14,o),
(420,48,o),
(469,165,c),
(405,165,l),
(368,80,o),
(298,35,o),
(220,35,cs)
);
}
);
width = 525;
}
);
note = ccaron;
unicode = 269;
},
{
glyphname = ccedilla;
kernLeft = c;
lastChange = "2022-11-29 15:52:45 +0000";
layers = (
{
hints = (
{
horizontal = 1;
place = (-266, -22);
place = (-266, -22);
type = Stem;
},
{
horizontal = 1;
place = (-68, -9);
place = (-68, -9);
type = Stem;
},
{
horizontal = 1;
place = (438, -7);
place = (438, -7);
type = Stem;
},
{
place = (-26, 12);
place = (-26, 12);
type = Stem;
},
{
place = (240, -11);
place = (240, -11);
type = Stem;
},
{
horizontal = 1;
place = (-131, 54);
place = (-131, 54);
type = Stem;
}
);
layerId = m01;
shapes = (
{
closed = 1;
nodes = (
(131,35,o),
(64,106,o),
(99,269,cs),
(131,422,o),
(234,494,o),
(323,494,cs),
(408,494,o),
(450,445,o),
(449,356,c),
(514,356,l),
(522,468,o),
(457,543,o),
(335,543,cs),
(202,543,o),
(67,439,o),
(30,264,cs),
(-7,93,o),
(60,2,o),
(173,-12,c),
(127,-75,l),
(197,-70,o),
(221,-90,o),
(213,-126,cs),
(206,-158,o),
(176,-176,o),
(134,-176,cs),
(112,-176,o),
(97,-173,o),
(84,-165,c),
(76,-201,l),
(89,-207,o),
(105,-210,o),
(125,-210,cs),
(189,-210,o),
(246,-182,o),
(258,-125,cs),
(268,-77,o),
(243,-50,o),
(191,-44,c),
(215,-14,l),
(325,-11,o),
(422,51,o),
(469,165,c),
(405,165,l),
(368,80,o),
(298,35,o),
(220,35,cs)
);
}
);
width = 525;
}
);
note = ccedilla;
unicode = 231;
},
{
glyphname = cdotaccent;
kernLeft = c;
lastChange = "2022-11-29 15:52:45 +0000";
layers = (
{
hints = (
{
horizontal = 1;
place = (-70, -7);
place = (-70, -7);
type = Stem;
},
{
horizontal = 1;
place = (438, -7);
place = (438, -7);
type = Stem;
},
{
horizontal = 1;
place = (545, 28);
place = (545, 28);
type = Stem;
},
{
place = (-26, 12);
place = (-26, 12);
type = Stem;
},
{
place = (170, 28);
place = (170, 28);
type = Stem;
}
);
layerId = m01;
shapes = (
{
closed = 1;
nodes = (
(334,685,o),
(311,667,o),
(306,643,cs),
(301,620,o),
(316,601,o),
(339,601,cs),
(363,601,o),
(385,620,o),
(390,643,cs),
(395,667,o),
(381,685,o),
(357,685,cs)
);
},
{
closed = 1;
nodes = (
(202,543,o),
(67,439,o),
(30,264,cs),
(-10,77,o),
(74,-14,o),
(206,-14,cs),
(320,-14,o),
(420,48,o),
(469,165,c),
(405,165,l),
(368,80,o),
(298,35,o),
(220,35,cs),
(131,35,o),
(64,106,o),
(99,269,cs),
(131,422,o),
(234,494,o),
(323,494,cs),
(408,494,o),
(450,445,o),
(449,356,c),
(514,356,l),
(522,468,o),
(457,543,o),
(335,543,cs)
);
}
);
width = 525;
}
);
note = cdotaccent;
unicode = 267;
},
{
glyphname = d;
kernLeft = c;
lastChange = "2022-11-29 15:52:45 +0000";
layers = (
{
hints = (
{
horizontal = 1;
place = (-70, -7);
place = (-70, -7);
type = Stem;
},
{
horizontal = 1;
place = (437, -6);
place = (437, -6);
type = Stem;
},
{
horizontal = 1;
place = (679, -20);
target = down;
type = TopGhost;
},
{
place = (-26, 12);
place = (-26, 12);
type = Stem;
},
{
place = (395, 6);
place = (395, 6);
type = Stem;
},
{
horizontal = 1;
place = (-56, 21);
target = up;
type = BottomGhost;
}
);
layerId = m01;
shapes = (
{
closed = 1;
nodes = (
(613,735,l),
(551,735,l),
(488,438,l),
(467,495,l),
(441,527,o),
(393,543,o),
(341,543,cs),
(207,543,o),
(69,450,o),
(29,258,cs),
(-5,101,o),
(59,-14,o),
(207,-14,cs),
(268,-14,o),
(323,3,o),
(368,40,c),
(416,98,l),
(395,0,l),
(457,0,l)
);
},
{
closed = 1;
nodes = (
(110,35,o),
(71,139,o),
(98,266,cs),
(129,409,o),
(224,493,o),
(330,493,cs),
(408,493,o),
(489,442,o),
(457,292,cs),
(448,252,ls),
(414,92,o),
(320,35,o),
(226,35,cs)
);
}
);
width = 588;
}
);
note = d;
unicode = 100;
},
{
glyphname = eth;
kernLeft = c;
lastChange = "2022-11-29 15:52:45 +0000";
layers = (
{
hints = (
{
horizontal = 1;
place = (-70, -7);
place = (-70, -7);
type = Stem;
},
{
horizontal = 1;
place = (439, -7);
place = (439, -7);
type = Stem;
},
{
horizontal = 1;
place = (647, -20);
target = down;
type = TopGhost;
},
{
horizontal = 1;
place = (689, -20);
target = down;
type = TopGhost;
},
{
place = (-26, 12);
place = (-26, 12);
type = Stem;
},
{
place = (391, 11);
place = (391, 11);
type = Stem;
}
);
layerId = m01;
shapes = (
{
closed = 1;
nodes = (
(557,674,l),
(549,714,l),
(474,685,l),
(449,710,o),
(418,730,o),
(379,745,c),
(331,703,l),
(363,693,o),
(389,679,o),
(411,662,c),
(272,609,l),
(280,569,l),
(442,630,l),
(474,587,o),
(487,527,o),
(477,447,c),
(444,509,l),
(411,534,o),
(377,544,o),
(328,544,cs),
(193,544,o),
(65,431,o),
(28,257,cs),
(-5,102,o),
(52,-14,o),
(207,-14,cs),
(344,-14,o),
(474,77,o),
(523,307,cs),
(557,469,o),
(551,579,o),
(500,653,c)
);
},
{
closed = 1;
nodes = (
(448,271,ls),
(415,116,o),
(325,35,o),
(222,35,cs),
(116,35,o),
(67,120,o),
(98,264,cs),
(128,407,o),
(223,495,o),
(324,495,cs),
(413,495,o),
(482,430,o),
(454,297,cs)
);
}
);
width = 561;
}
);
note = eth;
unicode = 240;
},
{
glyphname = dcaron;
kernLeft = c;
lastChange = "2022-11-29 15:52:45 +0000";
layers = (
{
hints = (
{
horizontal = 1;
place = (-70, -7);
place = (-70, -7);
type = Stem;
},
{
horizontal = 1;
place = (437, -6);
place = (437, -6);
type = Stem;
},
{
horizontal = 1;
place = (543, 80);
place = (543, 80);
type = Stem;
},
{
place = (-26, 12);
place = (-26, 12);
type = Stem;
},
{
place = (395, 6);
place = (395, 6);
type = Stem;
},
{
horizontal = 1;
place = (-56, 21);
target = up;
type = BottomGhost;
}
);
layerId = m01;
shapes = (
{
closed = 1;
nodes = (
(551,735,l),
(488,438,l),
(467,495,l),
(441,527,o),
(393,543,o),
(341,543,cs),
(207,543,o),
(69,450,o),
(29,258,cs),
(-5,101,o),
(59,-14,o),
(207,-14,cs),
(268,-14,o),
(323,3,o),
(368,40,c),
(416,98,l),
(395,0,l),
(457,0,l),
(613,735,l)
);
},
{
closed = 1;
nodes = (
(741,735,l),
(689,735,l),
(611,599,l),
(657,599,l),
(739,726,l)
);
},
{
closed = 1;
nodes = (
(110,35,o),
(71,139,o),
(98,266,cs),
(129,409,o),
(224,493,o),
(330,493,cs),
(408,493,o),
(489,442,o),
(457,292,cs),
(448,252,ls),
(414,92,o),
(320,35,o),
(226,35,cs)
);
}
);
width = 588;
}
);
note = dcaron;
unicode = 271;
},
{
glyphname = dcroat;
kernLeft = c;
lastChange = "2022-11-29 15:52:45 +0000";
layers = (
{
hints = (
{
horizontal = 1;
place = (-70, -7);
place = (-70, -7);
type = Stem;
},
{
horizontal = 1;
place = (437, -6);
place = (437, -6);
type = Stem;
},
{
horizontal = 1;
place = (546, 77);
place = (546, 77);
type = Stem;
},
{
place = (-26, 12);
place = (-26, 12);
type = Stem;
},
{
place = (395, 6);
place = (395, 6);
type = Stem;
},
{
horizontal = 1;
place = (546, -13);
place = (546, -13);
type = Stem;
},
{
horizontal = 1;
place = (-56, 21);
target = up;
type = BottomGhost;
}
);
layerId = m01;
shapes = (
{
closed = 1;
nodes = (
(628,602,l),
(637,645,l),
(594,645,l),
(613,735,l),
(551,735,l),
(532,645,l),
(416,645,l),
(407,602,l),
(523,602,l),
(488,438,l),
(467,495,l),
(441,527,o),
(393,543,o),
(341,543,cs),
(207,543,o),
(69,450,o),
(29,258,cs),
(-5,101,o),
(59,-14,o),
(207,-14,cs),
(268,-14,o),
(323,3,o),
(368,40,c),
(416,98,l),
(395,0,l),
(457,0,l),
(585,602,l)
);
},
{
closed = 1;
nodes = (
(110,35,o),
(71,139,o),
(98,266,cs),
(129,409,o),
(224,493,o),
(330,493,cs),
(408,493,o),
(489,442,o),
(457,292,cs),
(448,252,ls),
(414,92,o),
(320,35,o),
(226,35,cs)
);
}
);
width = 592;
}
);
note = dcroat;
unicode = 273;
},
{
glyphname = e;
kernLeft = c;
kernRight = ae;
lastChange = "2022-11-29 15:52:45 +0000";
layers = (
{
hints = (
{
horizontal = 1;
place = (-70, -7);
place = (-70, -7);
type = Stem;
},
{
horizontal = 1;
place = (190, -7);
place = (190, -7);
type = Stem;
},
{
horizontal = 1;
place = (437, -6);
place = (437, -6);
type = Stem;
},
{
place = (-26, 11);
place = (-26, 11);
type = Stem;
},
{
place = (381, 7);
place = (381, 7);
type = Stem;
}
);
layerId = m01;
shapes = (
{
closed = 1;
nodes = (
(534,425,o),
(482,543,o),
(334,543,cs),
(195,543,o),
(66,434,o),
(30,264,cs),
(-10,78,o),
(74,-14,o),
(206,-14,cs),
(312,-14,o),
(421,44,o),
(472,167,c),
(407,167,l),
(370,80,o),
(294,35,o),
(220,35,cs),
(134,35,o),
(67,90,o),
(93,246,c),
(494,246,l),
(499,262,o),
(501,272,o),
(503,279,cs)
);
},
{
closed = 1;
nodes = (
(410,493,o),
(465,431,o),
(443,295,c),
(103,295,l),
(140,427,o),
(234,493,o),
(321,493,cs)
);
}
);
width = 539;
}
);
note = e;
unicode = 101;
},
{
glyphname = eacute;
kernLeft = c;
kernRight = ae;
lastChange = "2022-11-29 15:52:45 +0000";
layers = (
{
hints = (
{
horizontal = 1;
place = (-70, -7);
place = (-70, -7);
type = Stem;
},
{
horizontal = 1;
place = (190, -7);
place = (190, -7);
type = Stem;
},
{
horizontal = 1;
place = (437, -6);
place = (437, -6);
type = Stem;
},
{
horizontal = 1;
place = (524, 54);
place = (524, 54);
type = Stem;
},
{
place = (-26, 11);
place = (-26, 11);
type = Stem;
},
{
place = (381, 7);
place = (381, 7);
type = Stem;
}
);
layerId = m01;
shapes = (
{
closed = 1;
nodes = (
(352,580,l),
(454,690,l),
(394,690,l),
(310,580,l)
);
},
{
closed = 1;
nodes = (
(534,425,o),
(482,543,o),
(334,543,cs),
(195,543,o),
(66,434,o),
(30,264,cs),
(-10,78,o),
(74,-14,o),
(206,-14,cs),
(312,-14,o),
(421,44,o),
(472,167,c),
(407,167,l),
(370,80,o),
(294,35,o),
(220,35,cs),
(134,35,o),
(67,90,o),
(93,246,c),
(494,246,l),
(499,262,o),
(501,272,o),
(503,279,cs)
);
},
{
closed = 1;
nodes = (
(410,493,o),
(465,431,o),
(443,295,c),
(103,295,l),
(140,427,o),
(234,493,o),
(321,493,cs)
);
}
);
width = 539;
}
);
note = eacute;
unicode = 233;
},
{
glyphname = ecaron;
kernLeft = c;
kernRight = ae;
lastChange = "2022-11-29 15:52:45 +0000";
layers = (
{
hints = (
{
horizontal = 1;
place = (-70, -7);
place = (-70, -7);
type = Stem;
},
{
horizontal = 1;
place = (190, -7);
place = (190, -7);
type = Stem;
},
{
horizontal = 1;
place = (437, -6);
place = (437, -6);
type = Stem;
},
{
horizontal = 1;
place = (524, 54);
place = (524, 54);
type = Stem;
},
{
place = (-26, 11);
place = (-26, 11);
type = Stem;
},
{
place = (381, 7);
place = (381, 7);
type = Stem;
}
);
layerId = m01;
shapes = (
{
closed = 1;
nodes = (
(314,580,l),
(359,580,l),
(449,690,l),
(401,690,l),
(344,615,l),
(320,690,l),
(271,690,l)
);
},
{
closed = 1;
nodes = (
(534,425,o),
(482,543,o),
(334,543,cs),
(195,543,o),
(66,434,o),
(30,264,cs),
(-10,78,o),
(74,-14,o),
(206,-14,cs),
(312,-14,o),
(421,44,o),
(472,167,c),
(407,167,l),
(370,80,o),
(294,35,o),
(220,35,cs),
(134,35,o),
(67,90,o),
(93,246,c),
(494,246,l),
(499,262,o),
(501,272,o),
(503,279,cs)
);
},
{
closed = 1;
nodes = (
(410,493,o),
(465,431,o),
(443,295,c),
(103,295,l),
(140,427,o),
(234,493,o),
(321,493,cs)
);
}
);
width = 539;
}
);
note = ecaron;
unicode = 283;
},
{
glyphname = ecircumflex;
kernLeft = c;
kernRight = ae;
lastChange = "2022-11-29 15:52:45 +0000";
layers = (
{
hints = (
{
horizontal = 1;
place = (-70, -7);
place = (-70, -7);
type = Stem;
},
{
horizontal = 1;
place = (190, -7);
place = (190, -7);
type = Stem;
},
{
horizontal = 1;
place = (437, -6);
place = (437, -6);
type = Stem;
},
{
horizontal = 1;
place = (524, 54);
place = (524, 54);
type = Stem;
},
{
place = (-26, 11);
place = (-26, 11);
type = Stem;
},
{
place = (381, 7);
place = (381, 7);
type = Stem;
},
{
horizontal = 1;
place = (599, -21);
place = (599, -21);
type = Stem;
}
);
layerId = m01;
shapes = (
{
closed = 1;
nodes = (
(296,580,l),
(352,655,l),
(377,580,l),
(426,580,l),
(382,690,l),
(337,690,l),
(248,580,l)
);
},
{
closed = 1;
nodes = (
(534,425,o),
(482,543,o),
(334,543,cs),
(195,543,o),
(66,434,o),
(30,264,cs),
(-10,78,o),
(74,-14,o),
(206,-14,cs),
(312,-14,o),
(421,44,o),
(472,167,c),
(407,167,l),
(370,80,o),
(294,35,o),
(220,35,cs),
(134,35,o),
(67,90,o),
(93,246,c),
(494,246,l),
(499,262,o),
(501,272,o),
(503,279,cs)
);
},
{
closed = 1;
nodes = (
(410,493,o),
(465,431,o),
(443,295,c),
(103,295,l),
(140,427,o),
(234,493,o),
(321,493,cs)
);
}
);
width = 539;
}
);
note = ecircumflex;
unicode = 234;
},
{
glyphname = edieresis;
kernLeft = c;
kernRight = ae;
lastChange = "2022-11-29 15:52:45 +0000";
layers = (
{
hints = (
{
horizontal = 1;
place = (-70, -7);
place = (-70, -7);
type = Stem;
},
{
horizontal = 1;
place = (190, -7);
place = (190, -7);
type = Stem;
},
{
horizontal = 1;
place = (437, -6);
place = (437, -6);
type = Stem;
},
{
horizontal = 1;
place = (538, 17);
place = (538, 17);
type = Stem;
},
{
place = (-26, 11);
place = (-26, 11);
type = Stem;
},
{
place = (116, 17);
place = (116, 17);
type = Stem;
},
{
place = (237, 17);
place = (237, 17);
type = Stem;
},
{
place = (381, 7);
place = (381, 7);
type = Stem;
}
);
layerId = m01;
shapes = (
{
closed = 1;
nodes = (
(534,425,o),
(482,543,o),
(334,543,cs),
(195,543,o),
(66,434,o),
(30,264,cs),
(-10,78,o),
(74,-14,o),
(206,-14,cs),
(312,-14,o),
(421,44,o),
(472,167,c),
(407,167,l),
(370,80,o),
(294,35,o),
(220,35,cs),
(134,35,o),
(67,90,o),
(93,246,c),
(494,246,l),
(499,262,o),
(501,272,o),
(503,279,cs)
);
},
{
closed = 1;
nodes = (
(410,493,o),
(465,431,o),
(443,295,c),
(103,295,l),
(140,427,o),
(234,493,o),
(321,493,cs)
);
},
{
closed = 1;
nodes = (
(244,593,l),
(316,593,l),
(331,665,l),
(259,665,l)
);
},
{
closed = 1;
nodes = (
(358,593,l),
(430,593,l),
(445,665,l),
(373,665,l)
);
}
);
width = 539;
}
);
note = edieresis;
unicode = 235;
},
{
glyphname = edotaccent;
kernLeft = c;
kernRight = ae;
lastChange = "2022-11-29 15:52:45 +0000";
layers = (
{
hints = (
{
horizontal = 1;
place = (-70, -7);
place = (-70, -7);
type = Stem;
},
{
horizontal = 1;
place = (190, -7);
place = (190, -7);
type = Stem;
},
{
horizontal = 1;
place = (437, -6);
place = (437, -6);
type = Stem;
},
{
horizontal = 1;
place = (545, 28);
place = (545, 28);
type = Stem;
},
{
place = (-26, 11);
place = (-26, 11);
type = Stem;
},
{
place = (171, 28);
place = (171, 28);
type = Stem;
},
{
place = (381, 7);
place = (381, 7);
type = Stem;
}
);
layerId = m01;
shapes = (
{
closed = 1;
nodes = (
(364,601,o),
(386,620,o),
(391,643,cs),
(396,667,o),
(382,685,o),
(358,685,cs),
(335,685,o),
(312,667,o),
(307,643,cs),
(302,620,o),
(317,601,o),
(340,601,cs)
);
},
{
closed = 1;
nodes = (
(534,425,o),
(482,543,o),
(334,543,cs),
(195,543,o),
(66,434,o),
(30,264,cs),
(-10,78,o),
(74,-14,o),
(206,-14,cs),
(312,-14,o),
(421,44,o),
(472,167,c),
(407,167,l),
(370,80,o),
(294,35,o),
(220,35,cs),
(134,35,o),
(67,90,o),
(93,246,c),
(494,246,l),
(499,262,o),
(501,272,o),
(503,279,cs)
);
},
{
closed = 1;
nodes = (
(410,493,o),
(465,431,o),
(443,295,c),
(103,295,l),
(140,427,o),
(234,493,o),
(321,493,cs)
);
}
);
width = 539;
}
);
note = edotaccent;
unicode = 279;
},
{
glyphname = egrave;
kernLeft = c;
kernRight = ae;
lastChange = "2022-11-29 15:52:45 +0000";
layers = (
{
hints = (
{
horizontal = 1;
place = (-70, -7);
place = (-70, -7);
type = Stem;
},
{
horizontal = 1;
place = (190, -7);
place = (190, -7);
type = Stem;
},
{
horizontal = 1;
place = (437, -6);
place = (437, -6);
type = Stem;
},
{
horizontal = 1;
place = (524, 54);
place = (524, 54);
type = Stem;
},
{
place = (-26, 11);
place = (-26, 11);
type = Stem;
},
{
place = (381, 7);
place = (381, 7);
type = Stem;
}
);
layerId = m01;
shapes = (
{
closed = 1;
nodes = (
(320,580,l),
(363,580,l),
(325,690,l),
(264,690,l)
);
},
{
closed = 1;
nodes = (
(534,425,o),
(482,543,o),
(334,543,cs),
(195,543,o),
(66,434,o),
(30,264,cs),
(-10,78,o),
(74,-14,o),
(206,-14,cs),
(312,-14,o),
(421,44,o),
(472,167,c),
(407,167,l),
(370,80,o),
(294,35,o),
(220,35,cs),
(134,35,o),
(67,90,o),
(93,246,c),
(494,246,l),
(499,262,o),
(501,272,o),
(503,279,cs)
);
},
{
closed = 1;
nodes = (
(410,493,o),
(465,431,o),
(443,295,c),
(103,295,l),
(140,427,o),
(234,493,o),
(321,493,cs)
);
}
);
width = 539;
}
);
note = egrave;
unicode = 232;
},
{
glyphname = emacron;
kernLeft = c;
kernRight = ae;
lastChange = "2022-11-29 15:52:45 +0000";
layers = (
{
hints = (
{
horizontal = 1;
place = (-70, -7);
place = (-70, -7);
type = Stem;
},
{
horizontal = 1;
place = (190, -7);
place = (190, -7);
type = Stem;
},
{
horizontal = 1;
place = (437, -6);
place = (437, -6);
type = Stem;
},
{
horizontal = 1;
place = (554, -16);
place = (554, -16);
type = Stem;
},
{
place = (-26, 11);
place = (-26, 11);
type = Stem;
},
{
place = (112, 146);
place = (112, 146);
type = Stem;
},
{
place = (381, 7);
place = (381, 7);
type = Stem;
}
);
layerId = m01;
shapes = (
{
closed = 1;
nodes = (
(443,610,l),
(452,650,l),
(250,650,l),
(241,610,l)
);
},
{
closed = 1;
nodes = (
(534,425,o),
(482,543,o),
(334,543,cs),
(195,543,o),
(66,434,o),
(30,264,cs),
(-10,78,o),
(74,-14,o),
(206,-14,cs),
(312,-14,o),
(421,44,o),
(472,167,c),
(407,167,l),
(370,80,o),
(294,35,o),
(220,35,cs),
(134,35,o),
(67,90,o),
(93,246,c),
(494,246,l),
(499,262,o),
(501,272,o),
(503,279,cs)
);
},
{
closed = 1;
nodes = (
(410,493,o),
(465,431,o),
(443,295,c),
(103,295,l),
(140,427,o),
(234,493,o),
(321,493,cs)
);
}
);
width = 539;
}
);
note = emacron;
unicode = 275;
},
{
glyphname = eogonek;
kernLeft = c;
kernRight = ae;
lastChange = "2022-11-29 15:52:45 +0000";
layers = (
{
hints = (
{
horizontal = 1;
place = (-279, -15);
place = (-279, -15);
type = Stem;
},
{
horizontal = 1;
place = (-70, -7);
place = (-70, -7);
type = Stem;
},
{
horizontal = 1;
place = (190, -7);
place = (190, -7);
type = Stem;
},
{
horizontal = 1;
place = (437, -6);
place = (437, -6);
type = Stem;
},
{
place = (-26, 11);
place = (-26, 11);
type = Stem;
},
{
place = (131, 4);
place = (131, 4);
type = Stem;
},
{
place = (381, 7);
place = (381, 7);
type = Stem;
}
);
layerId = m01;
shapes = (
{
closed = 1;
nodes = (
(534,425,o),
(482,543,o),
(334,543,cs),
(195,543,o),
(66,434,o),
(30,264,cs),
(-9,82,o),
(71,-10,o),
(198,-14,c),
(150,-44,o),
(112,-89,o),
(100,-144,cs),
(87,-204,o),
(119,-223,o),
(165,-223,cs),
(197,-223,o),
(226,-215,o),
(253,-197,c),
(261,-158,l),
(237,-175,o),
(218,-182,o),
(197,-182,cs),
(168,-182,o),
(155,-168,o),
(163,-131,cs),
(175,-74,o),
(221,-25,o),
(274,-6,c),
(357,14,o),
(432,71,o),
(472,167,c),
(407,167,l),
(370,80,o),
(294,35,o),
(220,35,cs),
(134,35,o),
(67,90,o),
(93,246,c),
(494,246,l),
(499,262,o),
(501,272,o),
(503,279,cs)
);
},
{
closed = 1;
nodes = (
(410,493,o),
(465,431,o),
(443,295,c),
(103,295,l),
(140,427,o),
(234,493,o),
(321,493,cs)
);
}
);
width = 539;
}
);
note = eogonek;
unicode = 281;
},
{
glyphname = f;
lastChange = "2022-11-29 15:52:45 +0000";
layers = (
{
hints = (
{
horizontal = 1;
place = (-56, 21);
target = up;
type = BottomGhost;
},
{
horizontal = 1;
place = (419, -6);
place = (419, -6);
type = Stem;
},
{
horizontal = 1;
place = (644, -8);
place = (644, -8);
type = Stem;
},
{
place = (24, 6);
place = (24, 6);
type = Stem;
}
);
layerId = m01;
shapes = (
{
closed = 1;
nodes = (
(240,688,o),
(285,711,o),
(352,697,c),
(363,749,l),
(346,752,o),
(329,754,o),
(308,754,cs),
(243,754,o),
(186,716,o),
(162,643,cs),
(156,624,o),
(152,602,o),
(148,584,cs),
(135,525,l),
(78,525,l),
(68,475,l),
(125,475,l),
(24,0,l),
(86,0,l),
(187,475,l),
(295,475,l),
(305,525,l),
(197,525,l),
(211,589,ls),
(214,604,o),
(218,624,o),
(224,641,cs)
);
}
);
width = 268;
}
);
note = f;
unicode = 102;
},
{
glyphname = g;
kernLeft = c;
lastChange = "2022-11-29 15:52:45 +0000";
layers = (
{
hints = (
{
horizontal = 1;
place = (-270, -7);
place = (-270, -7);
type = Stem;
},
{
horizontal = 1;
place = (-70, -7);
place = (-70, -7);
type = Stem;
},
{
horizontal = 1;
place = (474, -20);
target = down;
type = TopGhost;
},
{
place = (-26, 12);
place = (-26, 12);
type = Stem;
},
{
place = (395, 6);
place = (395, 6);
type = Stem;
},
{
horizontal = 1;
place = (437, -6);
place = (437, -6);
type = Stem;
},
{
place = (-6, 6);
place = (-6, 6);
type = Stem;
}
);
layerId = m01;
shapes = (
{
closed = 1;
nodes = (
(569,530,l),
(507,530,l),
(488,438,l),
(467,495,l),
(441,527,o),
(393,543,o),
(341,543,cs),
(207,543,o),
(69,450,o),
(29,258,cs),
(-5,101,o),
(59,-14,o),
(207,-14,cs),
(268,-14,o),
(323,3,o),
(368,40,c),
(416,98,l),
(413,85,ls),
(407,57,o),
(402,36,o),
(395,7,cs),
(369,-98,o),
(295,-165,o),
(183,-165,cs),
(94,-165,o),
(40,-123,o),
(47,-45,cs),
(48,-33,l),
(-14,-33,l),
(-16,-45,ls),
(-27,-160,o),
(41,-214,o),
(172,-214,cs),
(317,-214,o),
(423,-131,o),
(458,10,cs),
(465,41,o),
(474,82,o),
(485,134,cs)
);
},
{
closed = 1;
nodes = (
(110,35,o),
(71,139,o),
(98,266,cs),
(129,409,o),
(224,493,o),
(330,493,cs),
(408,493,o),
(489,442,o),
(457,292,cs),
(448,252,ls),
(414,92,o),
(320,35,o),
(226,35,cs)
);
}
);
width = 588;
}
);
note = g;
unicode = 103;
},
{
glyphname = gbreve;
kernLeft = c;
lastChange = "2022-11-29 15:52:45 +0000";
layers = (
{
hints = (
{
horizontal = 1;
place = (-270, -7);
place = (-270, -7);
type = Stem;
},
{
horizontal = 1;
place = (-70, -7);
place = (-70, -7);
type = Stem;
},
{
horizontal = 1;
place = (474, -20);
target = down;
type = TopGhost;
},
{
horizontal = 1;
place = (512, -14);
place = (512, -14);
type = Stem;
},
{
horizontal = 1;
place = (634, -20);
target = down;
type = TopGhost;
},
{
place = (-26, 12);
place = (-26, 12);
type = Stem;
},
{
place = (136, -16);
place = (136, -16);
type = Stem;
},
{
place = (292, -16);
place = (292, -16);
type = Stem;
},
{
place = (395, 6);
place = (395, 6);
type = Stem;
},
{
horizontal = 1;
place = (437, -6);
place = (437, -6);
type = Stem;
},
{
place = (-6, 6);
place = (-6, 6);
type = Stem;
}
);
layerId = m01;
shapes = (
{
closed = 1;
nodes = (
(421,568,o),
(462,611,o),
(478,690,c),
(438,690,l),
(425,634,o),
(398,610,o),
(363,610,cs),
(328,610,o),
(311,634,o),
(322,690,c),
(282,690,l),
(266,611,o),
(286,568,o),
(354,568,cs)
);
},
{
closed = 1;
nodes = (
(569,530,l),
(507,530,l),
(488,438,l),
(467,495,l),
(441,527,o),
(393,543,o),
(341,543,cs),
(207,543,o),
(69,450,o),
(29,258,cs),
(-5,101,o),
(59,-14,o),
(207,-14,cs),
(268,-14,o),
(323,3,o),
(368,40,c),
(416,98,l),
(413,85,ls),
(407,57,o),
(402,36,o),
(395,7,cs),
(369,-98,o),
(295,-165,o),
(183,-165,cs),
(94,-165,o),
(40,-123,o),
(47,-45,cs),
(48,-33,l),
(-14,-33,l),
(-16,-45,ls),
(-27,-160,o),
(41,-214,o),
(172,-214,cs),
(317,-214,o),
(423,-131,o),
(458,10,cs),
(465,41,o),
(474,82,o),
(485,134,cs)
);
},
{
closed = 1;
nodes = (
(110,35,o),
(71,139,o),
(98,266,cs),
(129,409,o),
(224,493,o),
(330,493,cs),
(408,493,o),
(489,442,o),
(457,292,cs),
(448,252,ls),
(414,92,o),
(320,35,o),
(226,35,cs)
);
}
);
width = 588;
}
);
note = gbreve;
unicode = 287;
},
{
glyphname = gcommaaccent;
kernLeft = c;
lastChange = "2022-11-29 15:52:45 +0000";
layers = (
{
hints = (
{
horizontal = 1;
place = (-270, -7);
place = (-270, -7);
type = Stem;
},
{
horizontal = 1;
place = (-70, -7);
place = (-70, -7);
type = Stem;
},
{
horizontal = 1;
place = (437, -6);
place = (437, -6);
type = Stem;
},
{
horizontal = 1;
place = (525, 80);
place = (525, 80);
type = Stem;
},
{
place = (-26, 12);
place = (-26, 12);
type = Stem;
},
{
place = (395, 6);
place = (395, 6);
type = Stem;
},
{
horizontal = 1;
place = (474, -20);
target = down;
type = TopGhost;
},
{
place = (-6, 6);
place = (-6, 6);
type = Stem;
}
);
layerId = m01;
shapes = (
{
closed = 1;
nodes = (
(381,581,l),
(459,717,l),
(414,717,l),
(331,590,l),
(329,581,l)
);
},
{
closed = 1;
nodes = (
(569,530,l),
(507,530,l),
(488,438,l),
(467,495,l),
(441,527,o),
(393,543,o),
(341,543,cs),
(207,543,o),
(69,450,o),
(29,258,cs),
(-5,101,o),
(59,-14,o),
(207,-14,cs),
(268,-14,o),
(323,3,o),
(368,40,c),
(416,98,l),
(413,85,ls),
(407,57,o),
(402,36,o),
(395,7,cs),
(369,-98,o),
(295,-165,o),
(183,-165,cs),
(94,-165,o),
(40,-123,o),
(47,-45,cs),
(48,-33,l),
(-14,-33,l),
(-16,-45,ls),
(-27,-160,o),
(41,-214,o),
(172,-214,cs),
(317,-214,o),
(423,-131,o),
(458,10,cs),
(465,41,o),
(474,82,o),
(485,134,cs)
);
},
{
closed = 1;
nodes = (
(110,35,o),
(71,139,o),
(98,266,cs),
(129,409,o),
(224,493,o),
(330,493,cs),
(408,493,o),
(489,442,o),
(457,292,cs),
(448,252,ls),
(414,92,o),
(320,35,o),
(226,35,cs)
);
}
);
width = 588;
}
);
note = gcommaaccent;
unicode = 291;
},
{
glyphname = gdotaccent;
kernLeft = c;
lastChange = "2022-11-29 15:52:45 +0000";
layers = (
{
hints = (
{
horizontal = 1;
place = (-270, -7);
place = (-270, -7);
type = Stem;
},
{
horizontal = 1;
place = (-70, -7);
place = (-70, -7);
type = Stem;
},
{
horizontal = 1;
place = (437, -6);
place = (437, -6);
type = Stem;
},
{
horizontal = 1;
place = (545, 28);
place = (545, 28);
type = Stem;
},
{
place = (-26, 12);
place = (-26, 12);
type = Stem;
},
{
place = (192, 28);
place = (192, 28);
type = Stem;
},
{
place = (395, 6);
place = (395, 6);
type = Stem;
},
{
horizontal = 1;
place = (474, -20);
target = down;
type = TopGhost;
},
{
place = (-6, 6);
place = (-6, 6);
type = Stem;
}
);
layerId = m01;
shapes = (
{
closed = 1;
nodes = (
(385,601,o),
(407,620,o),
(412,643,cs),
(417,667,o),
(403,685,o),
(379,685,cs),
(356,685,o),
(333,667,o),
(328,643,cs),
(323,620,o),
(338,601,o),
(361,601,cs)
);
},
{
closed = 1;
nodes = (
(569,530,l),
(507,530,l),
(488,438,l),
(467,495,l),
(441,527,o),
(393,543,o),
(341,543,cs),
(207,543,o),
(69,450,o),
(29,258,cs),
(-5,101,o),
(59,-14,o),
(207,-14,cs),
(268,-14,o),
(323,3,o),
(368,40,c),
(416,98,l),
(413,85,ls),
(407,57,o),
(402,36,o),
(395,7,cs),
(369,-98,o),
(295,-165,o),
(183,-165,cs),
(94,-165,o),
(40,-123,o),
(47,-45,cs),
(48,-33,l),
(-14,-33,l),
(-16,-45,ls),
(-27,-160,o),
(41,-214,o),
(172,-214,cs),
(317,-214,o),
(423,-131,o),
(458,10,cs),
(465,41,o),
(474,82,o),
(485,134,cs)
);
},
{
closed = 1;
nodes = (
(110,35,o),
(71,139,o),
(98,266,cs),
(129,409,o),
(224,493,o),
(330,493,cs),
(408,493,o),
(489,442,o),
(457,292,cs),
(448,252,ls),
(414,92,o),
(320,35,o),
(226,35,cs)
);
}
);
width = 588;
}
);
note = gdotaccent;
unicode = 289;
},
{
glyphname = h;
kernLeft = b;
lastChange = "2022-11-29 15:52:45 +0000";
layers = (
{
hints = (
{
horizontal = 1;
place = (-56, 21);
target = up;
type = BottomGhost;
},
{
horizontal = 1;
place = (436, -5);
place = (436, -5);
type = Stem;
},
{
horizontal = 1;
place = (684, -20);
target = down;
type = TopGhost;
},
{
place = (17, 6);
place = (17, 6);
type = Stem;
},
{
place = (382, 6);
place = (382, 6);
type = Stem;
}
);
layerId = m01;
shapes = (
{
closed = 1;
nodes = (
(534,482,o),
(483,543,o),
(371,543,cs),
(312,543,o),
(262,527,o),
(210,484,c),
(169,427,l),
(236,740,l),
(174,740,l),
(17,0,l),
(79,0,l),
(135,263,ls),
(170,428,o),
(260,491,o),
(348,492,cs),
(437,493,o),
(466,441,o),
(458,369,cs),
(454,342,o),
(449,319,o),
(443,289,cs),
(382,0,l),
(444,0,l),
(507,296,ls),
(516,339,o),
(520,358,o),
(524,385,cs)
);
}
);
width = 569;
}
);
note = h;
unicode = 104;
},
{
glyphname = hbar;
lastChange = "2022-11-29 15:52:45 +0000";
layers = (
{
hints = (
{
horizontal = 1;
place = (-56, 21);
target = up;
type = BottomGhost;
},
{
horizontal = 1;
place = (436, -5);
place = (436, -5);
type = Stem;
},
{
horizontal = 1;
place = (546, 82);
place = (546, 82);
type = Stem;
},
{
place = (31, 6);
place = (31, 6);
type = Stem;
},
{
place = (396, 6);
place = (396, 6);
type = Stem;
},
{
horizontal = 1;
place = (546, -13);
place = (546, -13);
type = Stem;
}
);
layerId = m01;
shapes = (
{
closed = 1;
nodes = (
(548,482,o),
(497,543,o),
(384,543,cs),
(326,543,o),
(276,527,o),
(224,484,c),
(183,427,l),
(221,602,l),
(327,602,l),
(336,645,l),
(230,645,l),
(250,740,l),
(188,740,l),
(168,645,l),
(114,645,l),
(105,602,l),
(159,602,l),
(31,0,l),
(93,0,l),
(149,263,ls),
(184,428,o),
(274,491,o),
(362,492,cs),
(451,493,o),
(479,441,o),
(471,369,cs),
(468,342,o),
(463,319,o),
(457,289,cs),
(396,0,l),
(458,0,l),
(521,296,ls),
(530,339,o),
(534,358,o),
(537,385,cs)
);
}
);
width = 583;
}
);
note = hbar;
unicode = 295;
},
{
glyphname = i;
lastChange = "2022-11-29 15:52:45 +0000";
layers = (
{
hints = (
{
horizontal = 1;
place = (-56, 21);
target = up;
type = BottomGhost;
},
{
horizontal = 1;
place = (473, -20);
target = down;
type = TopGhost;
},
{
horizontal = 1;
place = (545, 28);
place = (545, 28);
type = Stem;
},
{
place = (6, 28);
place = (6, 28);
type = Stem;
},
{
place = (17, 6);
place = (17, 6);
type = Stem;
}
);
layerId = m01;
shapes = (
{
closed = 1;
nodes = (
(79,0,l),
(191,529,l),
(129,529,l),
(17,0,l)
);
},
{
closed = 1;
nodes = (
(141,605,l),
(213,605,l),
(228,677,l),
(156,677,l)
);
}
);
width = 210;
}
);
note = i;
unicode = 105;
},
{
glyphname = dotlessi;
lastChange = "2022-11-29 15:52:45 +0000";
layers = (
{
hints = (
{
horizontal = 1;
place = (-56, 21);
target = up;
type = BottomGhost;
},
{
horizontal = 1;
place = (473, -20);
target = down;
type = TopGhost;
},
{
place = (17, 6);
place = (17, 6);
type = Stem;
}
);
layerId = m01;
shapes = (
{
closed = 1;
nodes = (
(79,0,l),
(191,529,l),
(129,529,l),
(17,0,l)
);
}
);
width = 210;
}
);
note = dotlessi;
unicode = 305;
},
{
glyphname = iacute;
lastChange = "2022-11-29 15:52:45 +0000";
layers = (
{
hints = (
{
horizontal = 1;
place = (-56, 21);
target = up;
type = BottomGhost;
},
{
horizontal = 1;
place = (473, -20);
target = down;
type = TopGhost;
},
{
horizontal = 1;
place = (524, 54);
place = (524, 54);
type = Stem;
},
{
place = (17, 6);
place = (17, 6);
type = Stem;
}
);
layerId = m01;
shapes = (
{
closed = 1;
nodes = (
(187,580,l),
(289,690,l),
(229,690,l),
(145,580,l)
);
},
{
closed = 1;
nodes = (
(79,0,l),
(191,529,l),
(129,529,l),
(17,0,l)
);
}
);
width = 210;
}
);
note = iacute;
unicode = 237;
},
{
glyphname = icircumflex;
lastChange = "2022-11-29 15:52:45 +0000";
layers = (
{
hints = (
{
horizontal = 1;
place = (-56, 21);
target = up;
type = BottomGhost;
},
{
horizontal = 1;
place = (473, -20);
target = down;
type = TopGhost;
},
{
horizontal = 1;
place = (524, 54);
place = (524, 54);
type = Stem;
},
{
place = (17, 6);
place = (17, 6);
type = Stem;
},
{
horizontal = 1;
place = (599, -21);
place = (599, -21);
type = Stem;
}
);
layerId = m01;
shapes = (
{
closed = 1;
nodes = (
(261,580,l),
(217,690,l),
(172,690,l),
(83,580,l),
(131,580,l),
(187,655,l),
(212,580,l)
);
},
{
closed = 1;
nodes = (
(129,529,l),
(17,0,l),
(79,0,l),
(191,529,l)
);
}
);
width = 210;
}
);
note = icircumflex;
unicode = 238;
},
{
glyphname = idieresis;
lastChange = "2022-11-29 15:52:45 +0000";
layers = (
{
hints = (
{
horizontal = 1;
place = (-56, 21);
target = up;
type = BottomGhost;
},
{
horizontal = 1;
place = (473, -20);
target = down;
type = TopGhost;
},
{
horizontal = 1;
place = (538, 17);
place = (538, 17);
type = Stem;
},
{
place = (-49, 17);
place = (-49, 17);
type = Stem;
},
{
place = (72, 17);
place = (72, 17);
type = Stem;
},
{
place = (17, 6);
place = (17, 6);
type = Stem;
}
);
layerId = m01;
shapes = (
{
closed = 1;
nodes = (
(79,0,l),
(191,529,l),
(129,529,l),
(17,0,l)
);
},
{
closed = 1;
nodes = (
(81,598,l),
(153,598,l),
(168,670,l),
(96,670,l)
);
},
{
closed = 1;
nodes = (
(195,598,l),
(267,598,l),
(282,670,l),
(210,670,l)
);
}
);
width = 210;
}
);
note = idieresis;
unicode = 239;
},
{
glyphname = igrave;
lastChange = "2022-11-29 15:52:45 +0000";
layers = (
{
hints = (
{
horizontal = 1;
place = (-56, 21);
target = up;
type = BottomGhost;
},
{
horizontal = 1;
place = (473, -20);
target = down;
type = TopGhost;
},
{
horizontal = 1;
place = (524, 54);
place = (524, 54);
type = Stem;
},
{
place = (17, 6);
place = (17, 6);
type = Stem;
}
);
layerId = m01;
shapes = (
{
closed = 1;
nodes = (
(190,580,l),
(152,690,l),
(91,690,l),
(147,580,l)
);
},
{
closed = 1;
nodes = (
(79,0,l),
(191,529,l),
(129,529,l),
(17,0,l)
);
}
);
width = 210;
}
);
note = igrave;
unicode = 236;
},
{
glyphname = ij;
lastChange = "2022-11-29 15:52:45 +0000";
layers = (
{
hints = (
{
horizontal = 1;
place = (-266, -2);
place = (-266, -2);
type = Stem;
},
{
horizontal = 1;
place = (-56, 21);
target = up;
type = BottomGhost;
},
{
horizontal = 1;
place = (473, -20);
target = down;
type = TopGhost;
},
{
horizontal = 1;
place = (545, 28);
place = (545, 28);
type = Stem;
},
{
place = (6, 28);
place = (6, 28);
type = Stem;
},
{
place = (210, 28);
place = (210, 28);
type = Stem;
},
{
place = (17, 6);
place = (17, 6);
type = Stem;
},
{
place = (221, 6);
place = (221, 6);
type = Stem;
}
);
layerId = m01;
shapes = (
{
closed = 1;
nodes = (
(79,0,l),
(191,529,l),
(129,529,l),
(17,0,l)
);
},
{
closed = 1;
nodes = (
(395,529,l),
(333,529,l),
(207,-63,ls),
(204,-78,o),
(201,-91,o),
(197,-105,cs),
(184,-149,o),
(154,-163,o),
(101,-156,c),
(90,-207,l),
(102,-210,o),
(114,-210,o),
(128,-210,cs),
(195,-210,o),
(237,-178,o),
(256,-116,cs),
(262,-98,o),
(267,-76,o),
(271,-56,cs)
);
},
{
closed = 1;
nodes = (
(141,607,l),
(213,607,l),
(229,679,l),
(157,679,l)
);
},
{
closed = 1;
nodes = (
(345,607,l),
(417,607,l),
(432,679,l),
(360,679,l)
);
}
);
width = 414;
}
);
note = ij;
unicode = 307;
},
{
glyphname = imacron;
lastChange = "2022-11-29 15:52:45 +0000";
layers = (
{
hints = (
{
horizontal = 1;
place = (-56, 21);
target = up;
type = BottomGhost;
},
{
horizontal = 1;
place = (473, -20);
target = down;
type = TopGhost;
},
{
horizontal = 1;
place = (554, -16);
place = (554, -16);
type = Stem;
},
{
place = (17, 6);
place = (17, 6);
type = Stem;
}
);
layerId = m01;
shapes = (
{
closed = 1;
nodes = (
(278,610,l),
(287,650,l),
(85,650,l),
(76,610,l)
);
},
{
closed = 1;
nodes = (
(79,0,l),
(191,529,l),
(129,529,l),
(17,0,l)
);
}
);
width = 210;
}
);
note = imacron;
unicode = 299;
},
{
glyphname = iogonek;
lastChange = "2022-11-29 15:52:45 +0000";
layers = (
{
hints = (
{
horizontal = 1;
place = (-279, -15);
place = (-279, -15);
type = Stem;
},
{
horizontal = 1;
place = (-56, 21);
target = up;
type = BottomGhost;
},
{
horizontal = 1;
place = (473, -20);
target = down;
type = TopGhost;
},
{
horizontal = 1;
place = (545, 28);
place = (545, 28);
type = Stem;
},
{
place = (-103, 4);
place = (-103, 4);
type = Stem;
},
{
place = (6, 28);
place = (6, 28);
type = Stem;
},
{
place = (17, 6);
place = (17, 6);
type = Stem;
}
);
layerId = m01;
shapes = (
{
closed = 1;
nodes = (
(199,601,o),
(221,620,o),
(226,643,cs),
(231,667,o),
(217,685,o),
(193,685,cs),
(170,685,o),
(147,667,o),
(142,643,cs),
(137,620,o),
(152,601,o),
(175,601,cs)
);
},
{
closed = 1;
nodes = (
(129,529,l),
(19,12,l),
(-52,-11,o),
(-118,-69,o),
(-134,-144,cs),
(-147,-204,o),
(-115,-223,o),
(-69,-223,cs),
(-37,-223,o),
(-8,-215,o),
(19,-197,c),
(27,-158,l),
(3,-175,o),
(-16,-182,o),
(-37,-182,cs),
(-66,-182,o),
(-79,-168,o),
(-71,-131,cs),
(-58,-67,o),
(-1,-13,o),
(61,0,c),
(79,0,l),
(191,529,l)
);
}
);
width = 210;
}
);
note = iogonek;
unicode = 303;
},
{
glyphname = j;
lastChange = "2022-11-29 15:52:45 +0000";
layers = (
{
hints = (
{
horizontal = 1;
place = (-266, -2);
place = (-266, -2);
type = Stem;
},
{
horizontal = 1;
place = (473, -20);
target = down;
type = TopGhost;
},
{
horizontal = 1;
place = (545, 28);
place = (545, 28);
type = Stem;
},
{
place = (0, 28);
place = (0, 28);
type = Stem;
},
{
place = (11, 6);
place = (11, 6);
type = Stem;
}
);
layerId = m01;
shapes = (
{
closed = 1;
nodes = (
(185,529,l),
(123,529,l),
(-3,-63,ls),
(-6,-78,o),
(-9,-91,o),
(-13,-105,cs),
(-26,-149,o),
(-56,-163,o),
(-109,-156,c),
(-120,-207,l),
(-108,-210,o),
(-96,-210,o),
(-82,-210,cs),
(-15,-210,o),
(27,-178,o),
(46,-116,cs),
(52,-98,o),
(57,-76,o),
(61,-56,cs)
);
},
{
closed = 1;
nodes = (
(135,607,l),
(207,607,l),
(222,679,l),
(150,679,l)
);
}
);
width = 204;
}
);
note = j;
unicode = 106;
},
{
glyphname = k;
kernLeft = b;
kernRight = k;
lastChange = "2022-11-29 15:52:45 +0000";
layers = (
{
hints = (
{
horizontal = 1;
place = (-56, 21);
target = up;
type = BottomGhost;
},
{
horizontal = 1;
place = (473, -20);
target = down;
type = TopGhost;
},
{
horizontal = 1;
place = (679, -20);
target = down;
type = TopGhost;
},
{
place = (17, 6);
place = (17, 6);
type = Stem;
}
);
layerId = m01;
shapes = (
{
closed = 1;
nodes = (
(347,0,l),
(433,0,l),
(230,276,l),
(543,529,l),
(462,529,l),
(133,254,l),
(235,735,l),
(173,735,l),
(17,0,l),
(79,0,l),
(118,186,l),
(177,237,l)
);
}
);
width = 498;
}
);
note = k;
unicode = 107;
},
{
glyphname = kcommaaccent;
kernLeft = b;
kernRight = k;
lastChange = "2022-11-29 15:52:45 +0000";
layers = (
{
hints = (
{
horizontal = 1;
place = (-243, 80);
place = (-243, 80);
type = Stem;
},
{
horizontal = 1;
place = (-56, 21);
target = up;
type = BottomGhost;
},
{
horizontal = 1;
place = (473, -20);
target = down;
type = TopGhost;
},
{
horizontal = 1;
place = (679, -20);
target = down;
type = TopGhost;
},
{
place = (17, 6);
place = (17, 6);
type = Stem;
}
);
layerId = m01;
shapes = (
{
closed = 1;
nodes = (
(433,0,l),
(230,276,l),
(543,529,l),
(462,529,l),
(133,254,l),
(235,735,l),
(173,735,l),
(17,0,l),
(79,0,l),
(118,186,l),
(177,237,l),
(347,0,l)
);
},
{
closed = 1;
nodes = (
(166,-51,l),
(88,-187,l),
(134,-187,l),
(216,-60,l),
(218,-51,l)
);
}
);
width = 498;
}
);
note = kcommaaccent;
unicode = 311;
},
{
glyphname = l;
kernRight = l;
lastChange = "2022-11-29 15:52:45 +0000";
layers = (
{
hints = (
{
horizontal = 1;
place = (-60, -7);
place = (-60, -7);
type = Stem;
},
{
horizontal = 1;
place = (679, -20);
target = down;
type = TopGhost;
},
{
place = (13, 6);
place = (13, 6);
type = Stem;
}
);
layerId = m01;
shapes = (
{
closed = 1;
nodes = (
(231,735,l),
(169,735,l),
(42,138,ls),
(35,106,o),
(31,85,o),
(28,67,cs),
(19,10,o),
(47,-4,o),
(88,-4,cs),
(104,-4,o),
(121,-4,o),
(137,-1,c),
(147,45,l),
(101,40,o),
(88,49,o),
(93,83,cs),
(96,99,o),
(100,117,o),
(104,140,cs)
);
}
);
width = 219;
}
);
note = l;
unicode = 108;
},
{
glyphname = lacute;
kernRight = l;
lastChange = "2022-11-29 15:52:45 +0000";
layers = (
{
hints = (
{
horizontal = 1;
place = (-60, -7);
place = (-60, -7);
type = Stem;
},
{
horizontal = 1;
place = (679, -20);
target = down;
type = TopGhost;
},
{
horizontal = 1;
place = (729, 54);
place = (729, 54);
type = Stem;
},
{
place = (13, 6);
place = (13, 6);
type = Stem;
}
);
layerId = m01;
shapes = (
{
closed = 1;
nodes = (
(227,785,l),
(329,895,l),
(269,895,l),
(185,785,l)
);
},
{
closed = 1;
nodes = (
(231,735,l),
(169,735,l),
(42,138,ls),
(35,106,o),
(31,85,o),
(28,67,cs),
(19,10,o),
(47,-4,o),
(88,-4,cs),
(104,-4,o),
(121,-4,o),
(137,-1,c),
(147,45,l),
(101,40,o),
(88,49,o),
(93,83,cs),
(96,99,o),
(100,117,o),
(104,140,cs)
);
}
);
width = 219;
}
);
note = lacute;
unicode = 314;
},
{
glyphname = lcaron;
kernRight = l;
lastChange = "2022-11-29 15:52:45 +0000";
layers = (
{
hints = (
{
horizontal = 1;
place = (-60, -7);
place = (-60, -7);
type = Stem;
},
{
horizontal = 1;
place = (679, -20);
target = down;
type = TopGhost;
},
{
place = (13, 6);
place = (13, 6);
type = Stem;
}
);
layerId = m01;
shapes = (
{
closed = 1;
nodes = (
(231,735,l),
(169,735,l),
(42,138,ls),
(35,106,o),
(31,85,o),
(28,67,cs),
(19,10,o),
(47,-4,o),
(88,-4,cs),
(104,-4,o),
(121,-4,o),
(137,-1,c),
(147,45,l),
(101,40,o),
(88,49,o),
(93,83,cs),
(96,99,o),
(100,117,o),
(104,140,cs)
);
}
);
width = 219;
}
);
note = lcaron;
unicode = 318;
},
{
glyphname = lcommaaccent;
kernRight = l;
lastChange = "2022-11-29 15:52:45 +0000";
layers = (
{
hints = (
{
horizontal = 1;
place = (-243, 80);
place = (-243, 80);
type = Stem;
},
{
horizontal = 1;
place = (-60, -7);
place = (-60, -7);
type = Stem;
},
{
horizontal = 1;
place = (679, -20);
target = down;
type = TopGhost;
},
{
place = (13, 6);
place = (13, 6);
type = Stem;
}
);
layerId = m01;
shapes = (
{
closed = 1;
nodes = (
(231,735,l),
(169,735,l),
(42,138,ls),
(35,106,o),
(31,85,o),
(28,67,cs),
(19,10,o),
(47,-4,o),
(88,-4,cs),
(104,-4,o),
(121,-4,o),
(137,-1,c),
(147,45,l),
(101,40,o),
(88,49,o),
(93,83,cs),
(96,99,o),
(100,117,o),
(104,140,cs)
);
},
{
closed = 1;
nodes = (
(78,-60,l),
(80,-51,l),
(28,-51,l),
(-50,-187,l),
(-4,-187,l)
);
}
);
width = 219;
}
);
note = lcommaaccent;
unicode = 316;
},
{
glyphname = ldot;
kernRight = l;
lastChange = "2022-11-29 15:52:45 +0000";
layers = (
{
hints = (
{
horizontal = 1;
place = (-60, -7);
place = (-60, -7);
type = Stem;
},
{
horizontal = 1;
place = (302, 28);
place = (302, 28);
type = Stem;
},
{
horizontal = 1;
place = (679, -20);
target = down;
type = TopGhost;
},
{
place = (13, 6);
place = (13, 6);
type = Stem;
},
{
place = (137, 27);
place = (137, 27);
type = Stem;
}
);
layerId = m01;
shapes = (
{
closed = 1;
nodes = (
(231,735,l),
(169,735,l),
(42,138,ls),
(35,106,o),
(31,85,o),
(28,67,cs),
(19,10,o),
(47,-4,o),
(88,-4,cs),
(104,-4,o),
(121,-4,o),
(137,-1,c),
(147,45,l),
(101,40,o),
(88,49,o),
(93,83,cs),
(96,99,o),
(100,117,o),
(104,140,cs)
);
},
{
closed = 1;
nodes = (
(249,442,o),
(227,424,o),
(222,400,cs),
(217,377,o),
(231,358,o),
(255,358,cs),
(278,358,o),
(300,377,o),
(305,400,cs),
(310,424,o),
(296,442,o),
(273,442,cs)
);
}
);
width = 286;
}
);
note = ldot;
unicode = 320;
},
{
glyphname = lslash;
lastChange = "2022-11-29 15:52:45 +0000";
layers = (
{
hints = (
{
horizontal = 1;
place = (-60, -7);
place = (-60, -7);
type = Stem;
},
{
horizontal = 1;
place = (679, -20);
target = down;
type = TopGhost;
},
{
place = (37, 6);
place = (37, 6);
type = Stem;
}
);
layerId = m01;
shapes = (
{
closed = 1;
nodes = (
(120,99,o),
(124,117,o),
(128,140,cs),
(166,316,l),
(236,355,l),
(247,407,l),
(177,368,l),
(255,735,l),
(193,735,l),
(107,329,l),
(36,290,l),
(25,238,l),
(96,277,l),
(66,138,ls),
(59,106,o),
(55,85,o),
(52,67,cs),
(43,10,o),
(71,-4,o),
(112,-4,cs),
(128,-4,o),
(145,-4,o),
(161,-1,c),
(171,45,l),
(125,40,o),
(112,49,o),
(117,83,cs)
);
}
);
width = 253;
}
);
note = lslash;
unicode = 322;
},
{
glyphname = m;
kernLeft = m;
lastChange = "2022-11-29 15:52:45 +0000";
layers = (
{
hints = (
{
horizontal = 1;
place = (-56, 21);
target = up;
type = BottomGhost;
},
{
horizontal = 1;
place = (437, -6);
place = (437, -6);
type = Stem;
},
{
place = (17, 6);
place = (17, 6);
type = Stem;
},
{
place = (334, 6);
place = (334, 6);
type = Stem;
},
{
place = (651, 6);
place = (651, 6);
type = Stem;
},
{
horizontal = 1;
place = (473, -20);
target = down;
type = TopGhost;
}
);
layerId = m01;
shapes = (
{
closed = 1;
nodes = (
(799,485,o),
(758,543,o),
(663,543,cs),
(613,543,o),
(568,529,o),
(531,497,c),
(476,430,l),
(473,498,o),
(430,543,o),
(346,543,cs),
(296,543,o),
(252,529,o),
(214,497,c),
(172,438,l),
(191,529,l),
(129,529,l),
(17,0,l),
(79,0,l),
(138,277,ls),
(171,434,o),
(241,493,o),
(316,493,cs),
(386,493,o),
(417,452,o),
(411,381,cs),
(408,354,o),
(403,327,o),
(394,284,cs),
(334,0,l),
(396,0,l),
(455,277,ls),
(488,434,o),
(558,493,o),
(633,493,cs),
(703,493,o),
(734,452,o),
(728,381,cs),
(725,354,o),
(720,327,o),
(711,284,cs),
(651,0,l),
(713,0,l),
(779,312,ls),
(788,355,o),
(791,374,o),
(793,401,cs)
);
}
);
width = 838;
}
);
note = m;
unicode = 109;
},
{
glyphname = n;
kernLeft = m;
lastChange = "2022-11-29 15:52:45 +0000";
layers = (
{
hints = (
{
horizontal = 1;
place = (-56, 21);
target = up;
type = BottomGhost;
},
{
horizontal = 1;
place = (436, -5);
place = (436, -5);
type = Stem;
},
{
place = (17, 6);
place = (17, 6);
type = Stem;
},
{
place = (382, 6);
place = (382, 6);
type = Stem;
},
{
horizontal = 1;
place = (473, -20);
target = down;
type = TopGhost;
}
);
layerId = m01;
shapes = (
{
closed = 1;
nodes = (
(534,482,o),
(483,543,o),
(371,543,cs),
(312,543,o),
(262,527,o),
(210,484,c),
(169,427,l),
(191,529,l),
(129,529,l),
(17,0,l),
(79,0,l),
(135,263,ls),
(170,428,o),
(260,492,o),
(348,492,cs),
(437,492,o),
(466,441,o),
(458,369,cs),
(454,342,o),
(449,319,o),
(443,289,cs),
(382,0,l),
(444,0,l),
(507,296,ls),
(516,339,o),
(520,358,o),
(524,385,cs)
);
}
);
width = 569;
}
);
note = n;
unicode = 110;
},
{
glyphname = nacute;
kernLeft = m;
lastChange = "2022-11-29 15:52:45 +0000";
layers = (
{
hints = (
{
horizontal = 1;
place = (-56, 21);
target = up;
type = BottomGhost;
},
{
horizontal = 1;
place = (436, -5);
place = (436, -5);
type = Stem;
},
{
horizontal = 1;
place = (524, 54);
place = (524, 54);
type = Stem;
},
{
place = (17, 6);
place = (17, 6);
type = Stem;
},
{
place = (382, 6);
place = (382, 6);
type = Stem;
},
{
horizontal = 1;
place = (473, -20);
target = down;
type = TopGhost;
}
);
layerId = m01;
shapes = (
{
closed = 1;
nodes = (
(372,580,l),
(474,690,l),
(414,690,l),
(330,580,l)
);
},
{
closed = 1;
nodes = (
(534,482,o),
(483,543,o),
(371,543,cs),
(312,543,o),
(262,527,o),
(210,484,c),
(169,427,l),
(191,529,l),
(129,529,l),
(17,0,l),
(79,0,l),
(135,263,ls),
(170,428,o),
(260,492,o),
(348,492,cs),
(437,492,o),
(466,441,o),
(458,369,cs),
(454,342,o),
(449,319,o),
(443,289,cs),
(382,0,l),
(444,0,l),
(507,296,ls),
(516,339,o),
(520,358,o),
(524,385,cs)
);
}
);
width = 569;
}
);
note = nacute;
unicode = 324;
},
{
glyphname = ncaron;
kernLeft = m;
lastChange = "2022-11-29 15:52:45 +0000";
layers = (
{
hints = (
{
horizontal = 1;
place = (-56, 21);
target = up;
type = BottomGhost;
},
{
horizontal = 1;
place = (436, -5);
place = (436, -5);
type = Stem;
},
{
horizontal = 1;
place = (524, 54);
place = (524, 54);
type = Stem;
},
{
place = (17, 6);
place = (17, 6);
type = Stem;
},
{
place = (382, 6);
place = (382, 6);
type = Stem;
},
{
horizontal = 1;
place = (473, -20);
target = down;
type = TopGhost;
}
);
layerId = m01;
shapes = (
{
closed = 1;
nodes = (
(334,580,l),
(379,580,l),
(469,690,l),
(421,690,l),
(364,615,l),
(340,690,l),
(291,690,l)
);
},
{
closed = 1;
nodes = (
(534,482,o),
(483,543,o),
(371,543,cs),
(312,543,o),
(262,527,o),
(210,484,c),
(169,427,l),
(191,529,l),
(129,529,l),
(17,0,l),
(79,0,l),
(135,263,ls),
(170,428,o),
(260,492,o),
(348,492,cs),
(437,492,o),
(466,441,o),
(458,369,cs),
(454,342,o),
(449,319,o),
(443,289,cs),
(382,0,l),
(444,0,l),
(507,296,ls),
(516,339,o),
(520,358,o),
(524,385,cs)
);
}
);
width = 569;
}
);
note = ncaron;
unicode = 328;
},
{
glyphname = ncommaaccent;
kernLeft = m;
lastChange = "2022-11-29 15:52:45 +0000";
layers = (
{
hints = (
{
horizontal = 1;
place = (-243, 80);
place = (-243, 80);
type = Stem;
},
{
horizontal = 1;
place = (-56, 21);
target = up;
type = BottomGhost;
},
{
horizontal = 1;
place = (436, -5);
place = (436, -5);
type = Stem;
},
{
place = (17, 6);
place = (17, 6);
type = Stem;
},
{
place = (382, 6);
place = (382, 6);
type = Stem;
},
{
horizontal = 1;
place = (473, -20);
target = down;
type = TopGhost;
}
);
layerId = m01;
shapes = (
{
closed = 1;
nodes = (
(534,482,o),
(483,543,o),
(371,543,cs),
(312,543,o),
(262,527,o),
(210,484,c),
(169,427,l),
(191,529,l),
(129,529,l),
(17,0,l),
(79,0,l),
(135,263,ls),
(170,428,o),
(260,492,o),
(348,492,cs),
(437,492,o),
(466,441,o),
(458,369,cs),
(454,342,o),
(449,319,o),
(443,289,cs),
(382,0,l),
(444,0,l),
(507,296,ls),
(516,339,o),
(520,358,o),
(524,385,cs)
);
},
{
closed = 1;
nodes = (
(193,-51,l),
(115,-187,l),
(161,-187,l),
(243,-60,l),
(245,-51,l)
);
}
);
width = 569;
}
);
note = ncommaaccent;
unicode = 326;
},
{
glyphname = eng;
kernLeft = m;
lastChange = "2022-11-29 15:52:45 +0000";
layers = (
{
hints = (
{
horizontal = 1;
place = (-266, -4);
place = (-266, -4);
type = Stem;
},
{
horizontal = 1;
place = (-56, 21);
target = up;
type = BottomGhost;
},
{
horizontal = 1;
place = (436, -5);
place = (436, -5);
type = Stem;
},
{
place = (17, 6);
place = (17, 6);
type = Stem;
},
{
place = (382, 6);
place = (382, 6);
type = Stem;
},
{
horizontal = 1;
place = (473, -20);
target = down;
type = TopGhost;
}
);
layerId = m01;
shapes = (
{
closed = 1;
nodes = (
(534,482,o),
(483,543,o),
(371,543,cs),
(312,543,o),
(262,527,o),
(210,484,c),
(169,427,l),
(191,529,l),
(129,529,l),
(17,0,l),
(79,0,l),
(135,263,ls),
(170,428,o),
(260,492,o),
(348,492,cs),
(437,492,o),
(466,441,o),
(458,369,cs),
(454,342,o),
(449,319,o),
(443,289,cs),
(369,-59,ls),
(367,-71,o),
(364,-81,o),
(361,-92,cs),
(346,-144,o),
(313,-158,o),
(254,-158,c),
(243,-210,l),
(337,-210,o),
(398,-184,o),
(422,-95,cs),
(426,-81,o),
(428,-72,o),
(432,-54,cs),
(507,296,ls),
(516,339,o),
(520,358,o),
(524,385,cs)
);
}
);
width = 569;
}
);
note = eng;
unicode = 331;
},
{
glyphname = ntilde;
kernLeft = m;
lastChange = "2022-11-29 15:52:45 +0000";
layers = (
{
hints = (
{
horizontal = 1;
place = (-56, 21);
target = up;
type = BottomGhost;
},
{
horizontal = 1;
place = (436, -5);
place = (436, -5);
type = Stem;
},
{
horizontal = 1;
place = (576, -17);
place = (576, -17);
type = Stem;
},
{
place = (17, 6);
place = (17, 6);
type = Stem;
},
{
place = (134, -25);
place = (134, -25);
type = Stem;
},
{
place = (382, 6);
place = (382, 6);
type = Stem;
},
{
horizontal = 1;
place = (551, -16);
place = (551, -16);
type = Stem;
},
{
place = (301, -25);
place = (301, -25);
type = Stem;
},
{
horizontal = 1;
place = (473, -20);
target = down;
type = TopGhost;
}
);
layerId = m01;
shapes = (
{
closed = 1;
nodes = (
(324,632,o),
(335,628,o),
(357,620,cs),
(383,611,o),
(397,607,o),
(415,607,cs),
(444,607,o),
(464,622,o),
(473,667,c),
(442,667,l),
(439,652,o),
(432,647,o),
(422,647,cs),
(413,647,o),
(402,650,o),
(380,658,cs),
(354,667,o),
(340,671,o),
(322,671,cs),
(293,671,o),
(273,656,o),
(264,611,c),
(295,611,l),
(298,626,o),
(305,632,o),
(315,632,cs)
);
},
{
closed = 1;
nodes = (
(534,482,o),
(483,543,o),
(371,543,cs),
(312,543,o),
(262,527,o),
(210,484,c),
(169,427,l),
(191,529,l),
(129,529,l),
(17,0,l),
(79,0,l),
(135,263,ls),
(170,428,o),
(260,492,o),
(348,492,cs),
(437,492,o),
(466,441,o),
(458,369,cs),
(454,342,o),
(449,319,o),
(443,289,cs),
(382,0,l),
(444,0,l),
(507,296,ls),
(516,339,o),
(520,358,o),
(524,385,cs)
);
}
);
width = 569;
}
);
note = ntilde;
unicode = 241;
},
{
glyphname = o;
kernLeft = c;
kernRight = b;
lastChange = "2022-11-29 15:52:45 +0000";
layers = (
{
hints = (
{
horizontal = 1;
place = (-70, -7);
place = (-70, -7);
type = Stem;
},
{
horizontal = 1;
place = (437, -6);
place = (437, -6);
type = Stem;
},
{
place = (-26, 12);
place = (-26, 12);
type = Stem;
},
{
place = (420, 12);
place = (420, 12);
type = Stem;
}
);
layerId = m01;
shapes = (
{
closed = 1;
nodes = (
(178,543,o),
(63,420,o),
(30,264,cs),
(-3,109,o),
(60,-14,o),
(228,-14,cs),
(396,-14,o),
(511,109,o),
(544,264,cs),
(577,420,o),
(514,543,o),
(346,543,cs)
);
},
{
closed = 1;
nodes = (
(128,35,o),
(67,120,o),
(98,264,cs),
(128,408,o),
(225,493,o),
(335,493,cs),
(445,493,o),
(506,408,o),
(476,264,cs),
(445,120,o),
(348,35,o),
(238,35,cs)
);
}
);
width = 574;
}
);
note = o;
unicode = 111;
},
{
glyphname = oacute;
kernLeft = c;
kernRight = b;
lastChange = "2022-11-29 15:52:45 +0000";
layers = (
{
hints = (
{
horizontal = 1;
place = (-70, -7);
place = (-70, -7);
type = Stem;
},
{
horizontal = 1;
place = (437, -6);
place = (437, -6);
type = Stem;
},
{
horizontal = 1;
place = (524, 54);
place = (524, 54);
type = Stem;
},
{
place = (-26, 12);
place = (-26, 12);
type = Stem;
},
{
place = (420, 12);
place = (420, 12);
type = Stem;
}
);
layerId = m01;
shapes = (
{
closed = 1;
nodes = (
(370,580,l),
(472,690,l),
(412,690,l),
(328,580,l)
);
},
{
closed = 1;
nodes = (
(178,543,o),
(63,420,o),
(30,264,cs),
(-3,109,o),
(60,-14,o),
(228,-14,cs),
(396,-14,o),
(511,109,o),
(544,264,cs),
(577,420,o),
(514,543,o),
(346,543,cs)
);
},
{
closed = 1;
nodes = (
(128,35,o),
(67,120,o),
(98,264,cs),
(128,408,o),
(225,493,o),
(335,493,cs),
(445,493,o),
(506,408,o),
(476,264,cs),
(445,120,o),
(348,35,o),
(238,35,cs)
);
}
);
width = 574;
}
);
note = oacute;
unicode = 243;
},
{
glyphname = ocircumflex;
kernLeft = c;
kernRight = b;
lastChange = "2022-11-29 15:52:45 +0000";
layers = (
{
hints = (
{
horizontal = 1;
place = (-70, -7);
place = (-70, -7);
type = Stem;
},
{
horizontal = 1;
place = (437, -6);
place = (437, -6);
type = Stem;
},
{
horizontal = 1;
place = (524, 54);
place = (524, 54);
type = Stem;
},
{
place = (-26, 12);
place = (-26, 12);
type = Stem;
},
{
place = (420, 12);
place = (420, 12);
type = Stem;
},
{
horizontal = 1;
place = (599, -21);
place = (599, -21);
type = Stem;
}
);
layerId = m01;
shapes = (
{
closed = 1;
nodes = (
(314,580,l),
(370,655,l),
(395,580,l),
(444,580,l),
(400,690,l),
(355,690,l),
(266,580,l)
);
},
{
closed = 1;
nodes = (
(178,543,o),
(63,420,o),
(30,264,cs),
(-3,109,o),
(60,-14,o),
(228,-14,cs),
(396,-14,o),
(511,109,o),
(544,264,cs),
(577,420,o),
(514,543,o),
(346,543,cs)
);
},
{
closed = 1;
nodes = (
(128,35,o),
(67,120,o),
(98,264,cs),
(128,408,o),
(225,493,o),
(335,493,cs),
(445,493,o),
(506,408,o),
(476,264,cs),
(445,120,o),
(348,35,o),
(238,35,cs)
);
}
);
width = 574;
}
);
note = ocircumflex;
unicode = 244;
},
{
glyphname = odieresis;
kernLeft = c;
kernRight = b;
lastChange = "2022-11-29 15:52:45 +0000";
layers = (
{
hints = (
{
horizontal = 1;
place = (-70, -7);
place = (-70, -7);
type = Stem;
},
{
horizontal = 1;
place = (437, -6);
place = (437, -6);
type = Stem;
},
{
horizontal = 1;
place = (538, 17);
place = (538, 17);
type = Stem;
},
{
place = (-26, 12);
place = (-26, 12);
type = Stem;
},
{
place = (134, 17);
place = (134, 17);
type = Stem;
},
{
place = (255, 17);
place = (255, 17);
type = Stem;
},
{
place = (420, 12);
place = (420, 12);
type = Stem;
}
);
layerId = m01;
shapes = (
{
closed = 1;
nodes = (
(178,543,o),
(63,420,o),
(30,264,cs),
(-3,109,o),
(60,-14,o),
(228,-14,cs),
(396,-14,o),
(511,109,o),
(544,264,cs),
(577,420,o),
(514,543,o),
(346,543,cs)
);
},
{
closed = 1;
nodes = (
(128,35,o),
(67,120,o),
(98,264,cs),
(128,408,o),
(225,493,o),
(335,493,cs),
(445,493,o),
(506,408,o),
(476,264,cs),
(445,120,o),
(348,35,o),
(238,35,cs)
);
},
{
closed = 1;
nodes = (
(264,591,l),
(336,591,l),
(351,663,l),
(279,663,l)
);
},
{
closed = 1;
nodes = (
(378,591,l),
(450,591,l),
(465,663,l),
(393,663,l)
);
}
);
width = 574;
}
);
note = odieresis;
unicode = 246;
},
{
glyphname = ograve;
kernLeft = c;
kernRight = b;
lastChange = "2022-11-29 15:52:45 +0000";
layers = (
{
hints = (
{
horizontal = 1;
place = (-70, -7);
place = (-70, -7);
type = Stem;
},
{
horizontal = 1;
place = (437, -6);
place = (437, -6);
type = Stem;
},
{
horizontal = 1;
place = (524, 54);
place = (524, 54);
type = Stem;
},
{
place = (-26, 12);
place = (-26, 12);
type = Stem;
},
{
place = (420, 12);
place = (420, 12);
type = Stem;
}
);
layerId = m01;
shapes = (
{
closed = 1;
nodes = (
(338,580,l),
(381,580,l),
(343,690,l),
(282,690,l)
);
},
{
closed = 1;
nodes = (
(178,543,o),
(63,420,o),
(30,264,cs),
(-3,109,o),
(60,-14,o),
(228,-14,cs),
(396,-14,o),
(511,109,o),
(544,264,cs),
(577,420,o),
(514,543,o),
(346,543,cs)
);
},
{
closed = 1;
nodes = (
(128,35,o),
(67,120,o),
(98,264,cs),
(128,408,o),
(225,493,o),
(335,493,cs),
(445,493,o),
(506,408,o),
(476,264,cs),
(445,120,o),
(348,35,o),
(238,35,cs)
);
}
);
width = 574;
}
);
note = ograve;
unicode = 242;
},
{
glyphname = ohungarumlaut;
kernLeft = c;
kernRight = b;
lastChange = "2022-11-29 15:52:45 +0000";
layers = (
{
hints = (
{
horizontal = 1;
place = (-70, -7);
place = (-70, -7);
type = Stem;
},
{
horizontal = 1;
place = (437, -6);
place = (437, -6);
type = Stem;
},
{
horizontal = 1;
place = (524, 54);
place = (524, 54);
type = Stem;
},
{
place = (-26, 12);
place = (-26, 12);
type = Stem;
},
{
place = (420, 12);
place = (420, 12);
type = Stem;
}
);
layerId = m01;
shapes = (
{
closed = 1;
nodes = (
(316,580,l),
(418,690,l),
(357,690,l),
(274,580,l)
);
},
{
closed = 1;
nodes = (
(388,580,l),
(430,580,l),
(532,690,l),
(471,690,l)
);
},
{
closed = 1;
nodes = (
(178,543,o),
(63,420,o),
(30,264,cs),
(-3,109,o),
(60,-14,o),
(228,-14,cs),
(396,-14,o),
(511,109,o),
(544,264,cs),
(577,420,o),
(514,543,o),
(346,543,cs)
);
},
{
closed = 1;
nodes = (
(128,35,o),
(67,120,o),
(98,264,cs),
(128,408,o),
(225,493,o),
(335,493,cs),
(445,493,o),
(506,408,o),
(476,264,cs),
(445,120,o),
(348,35,o),
(238,35,cs)
);
}
);
width = 574;
}
);
note = ohungarumlaut;
unicode = 337;
},
{
glyphname = omacron;
kernLeft = c;
kernRight = b;
lastChange = "2022-11-29 15:52:45 +0000";
layers = (
{
hints = (
{
horizontal = 1;
place = (-70, -7);
place = (-70, -7);
type = Stem;
},
{
horizontal = 1;
place = (437, -6);
place = (437, -6);
type = Stem;
},
{
horizontal = 1;
place = (554, -16);
place = (554, -16);
type = Stem;
},
{
place = (-26, 12);
place = (-26, 12);
type = Stem;
},
{
place = (130, 146);
place = (130, 146);
type = Stem;
},
{
place = (420, 12);
place = (420, 12);
type = Stem;
}
);
layerId = m01;
shapes = (
{
closed = 1;
nodes = (
(461,610,l),
(470,650,l),
(268,650,l),
(259,610,l)
);
},
{
closed = 1;
nodes = (
(178,543,o),
(63,420,o),
(30,264,cs),
(-3,109,o),
(60,-14,o),
(228,-14,cs),
(396,-14,o),
(511,109,o),
(544,264,cs),
(577,420,o),
(514,543,o),
(346,543,cs)
);
},
{
closed = 1;
nodes = (
(128,35,o),
(67,120,o),
(98,264,cs),
(128,408,o),
(225,493,o),
(335,493,cs),
(445,493,o),
(506,408,o),
(476,264,cs),
(445,120,o),
(348,35,o),
(238,35,cs)
);
}
);
width = 574;
}
);
note = omacron;
unicode = 333;
},
{
glyphname = oslash;
kernLeft = c;
kernRight = b;
lastChange = "2022-11-29 15:52:45 +0000";
layers = (
{
hints = (
{
horizontal = 1;
place = (-70, -7);
place = (-70, -7);
type = Stem;
},
{
horizontal = 1;
place = (437, -6);
place = (437, -6);
type = Stem;
},
{
place = (-14, 11);
place = (-14, 11);
type = Stem;
},
{
place = (432, 12);
place = (432, 12);
type = Stem;
}
);
layerId = m01;
shapes = (
{
closed = 1;
nodes = (
(637,512,l),
(612,543,l),
(526,472,l),
(492,516,o),
(436,543,o),
(358,543,cs),
(190,543,o),
(75,420,o),
(42,264,cs),
(27,195,o),
(32,132,o),
(56,84,c),
(-27,16,l),
(-3,-15,l),
(78,51,l),
(111,10,o),
(165,-14,o),
(240,-14,cs),
(408,-14,o),
(523,109,o),
(556,264,cs),
(570,330,o),
(567,390,o),
(546,437,c)
);
},
{
closed = 1;
nodes = (
(139,408,o),
(237,493,o),
(347,493,cs),
(404,493,o),
(448,470,o),
(473,428,c),
(110,129,l),
(99,165,o),
(98,211,o),
(109,264,cs)
);
},
{
closed = 1;
nodes = (
(457,120,o),
(359,35,o),
(250,35,cs),
(196,35,o),
(154,55,o),
(128,93,c),
(489,390,l),
(498,356,o),
(498,313,o),
(488,264,cs)
);
}
);
width = 610;
}
);
note = oslash;
unicode = 248;
},
{
glyphname = otilde;
kernLeft = c;
kernRight = b;
lastChange = "2022-11-29 15:52:45 +0000";
layers = (
{
hints = (
{
horizontal = 1;
place = (-70, -7);
place = (-70, -7);
type = Stem;
},
{
horizontal = 1;
place = (437, -6);
place = (437, -6);
type = Stem;
},
{
horizontal = 1;
place = (576, -17);
place = (576, -17);
type = Stem;
},
{
place = (-26, 12);
place = (-26, 12);
type = Stem;
},
{
place = (132, -25);
place = (132, -25);
type = Stem;
},
{
place = (420, 12);
place = (420, 12);
type = Stem;
},
{
horizontal = 1;
place = (551, -16);
place = (551, -16);
type = Stem;
},
{
place = (299, -25);
place = (299, -25);
type = Stem;
}
);
layerId = m01;
shapes = (
{
closed = 1;
nodes = (
(322,632,o),
(333,628,o),
(355,620,cs),
(381,611,o),
(395,607,o),
(413,607,cs),
(442,607,o),
(462,622,o),
(471,667,c),
(440,667,l),
(437,652,o),
(430,647,o),
(420,647,cs),
(411,647,o),
(400,650,o),
(378,658,cs),
(352,667,o),
(338,671,o),
(320,671,cs),
(291,671,o),
(271,656,o),
(262,611,c),
(293,611,l),
(296,626,o),
(303,632,o),
(313,632,cs)
);
},
{
closed = 1;
nodes = (
(178,543,o),
(63,420,o),
(30,264,cs),
(-3,109,o),
(60,-14,o),
(228,-14,cs),
(396,-14,o),
(511,109,o),
(544,264,cs),
(577,420,o),
(514,543,o),
(346,543,cs)
);
},
{
closed = 1;
nodes = (
(128,35,o),
(67,120,o),
(98,264,cs),
(128,408,o),
(225,493,o),
(335,493,cs),
(445,493,o),
(506,408,o),
(476,264,cs),
(445,120,o),
(348,35,o),
(238,35,cs)
);
}
);
width = 574;
}
);
note = otilde;
unicode = 245;
},
{
glyphname = oe;
kernLeft = c;
kernRight = ae;
lastChange = "2022-11-29 15:52:45 +0000";
layers = (
{
hints = (
{
horizontal = 1;
place = (-70, -7);
place = (-70, -7);
type = Stem;
},
{
horizontal = 1;
place = (190, -7);
place = (190, -7);
type = Stem;
},
{
horizontal = 1;
place = (437, -6);
place = (437, -6);
type = Stem;
},
{
place = (-26, 12);
place = (-26, 12);
type = Stem;
},
{
place = (420, 13);
place = (420, 13);
type = Stem;
},
{
place = (827, 7);
place = (827, 7);
type = Stem;
}
);
layerId = m01;
shapes = (
{
closed = 1;
nodes = (
(980,425,o),
(929,543,o),
(781,543,cs),
(690,543,o),
(599,494,o),
(538,394,c),
(521,492,o),
(454,543,o),
(346,543,cs),
(178,543,o),
(63,420,o),
(30,264,cs),
(-3,109,o),
(60,-14,o),
(228,-14,cs),
(334,-14,o),
(421,37,o),
(479,133,c),
(496,30,o),
(565,-14,o),
(653,-14,cs),
(758,-14,o),
(867,44,o),
(918,167,c),
(853,167,l),
(816,80,o),
(740,35,o),
(666,35,cs),
(581,35,o),
(515,95,o),
(541,246,c),
(941,246,l),
(945,262,o),
(947,272,o),
(949,279,cs)
);
},
{
closed = 1;
nodes = (
(128,35,o),
(67,120,o),
(98,264,cs),
(128,408,o),
(225,493,o),
(335,493,cs),
(445,493,o),
(506,408,o),
(476,264,cs),
(445,120,o),
(348,35,o),
(238,35,cs)
);
},
{
closed = 1;
nodes = (
(551,295,l),
(588,428,o),
(679,493,o),
(768,493,cs),
(856,493,o),
(911,432,o),
(889,295,c)
);
}
);
width = 985;
}
);
note = oe;
unicode = 339;
},
{
glyphname = p;
kernLeft = m;
kernRight = b;
lastChange = "2022-11-29 15:52:45 +0000";
layers = (
{
hints = (
{
horizontal = 1;
place = (-70, -7);
place = (-70, -7);
type = Stem;
},
{
horizontal = 1;
place = (437, -6);
place = (437, -6);
type = Stem;
},
{
place = (17, 6);
place = (17, 6);
type = Stem;
},
{
place = (432, 12);
place = (432, 12);
type = Stem;
},
{
horizontal = 1;
place = (476, -20);
target = down;
type = TopGhost;
}
);
layerId = m01;
shapes = (
{
closed = 1;
nodes = (
(318,543,o),
(262,525,o),
(218,489,c),
(170,431,l),
(192,532,l),
(130,532,l),
(-25,-196,l),
(37,-196,l),
(98,90,l),
(119,33,l),
(145,2,o),
(193,-14,o),
(245,-14,cs),
(379,-14,o),
(516,79,o),
(557,271,cs),
(591,428,o),
(527,543,o),
(379,543,cs)
);
},
{
closed = 1;
nodes = (
(177,35,o),
(97,86,o),
(129,237,cs),
(138,277,ls),
(172,437,o),
(265,493,o),
(359,493,cs),
(475,493,o),
(515,390,o),
(488,263,cs),
(457,120,o),
(361,35,o),
(255,35,cs)
);
}
);
width = 586;
}
);
note = p;
unicode = 112;
},
{
glyphname = thorn;
kernLeft = b;
kernRight = b;
lastChange = "2022-11-29 15:52:45 +0000";
layers = (
{
hints = (
{
horizontal = 1;
place = (-70, -7);
place = (-70, -7);
type = Stem;
},
{
horizontal = 1;
place = (437, -6);
place = (437, -6);
type = Stem;
},
{
horizontal = 1;
place = (679, -20);
target = down;
type = TopGhost;
},
{
place = (17, 6);
place = (17, 6);
type = Stem;
},
{
place = (432, 12);
place = (432, 12);
type = Stem;
}
);
layerId = m01;
shapes = (
{
closed = 1;
nodes = (
(318,543,o),
(262,525,o),
(218,489,c),
(170,431,l),
(235,735,l),
(173,735,l),
(-25,-196,l),
(37,-196,l),
(98,90,l),
(119,33,l),
(145,2,o),
(193,-14,o),
(245,-14,cs),
(379,-14,o),
(516,79,o),
(557,271,cs),
(591,428,o),
(527,543,o),
(379,543,cs)
);
},
{
closed = 1;
nodes = (
(177,35,o),
(97,86,o),
(129,237,cs),
(138,277,ls),
(172,437,o),
(265,493,o),
(359,493,cs),
(475,493,o),
(515,390,o),
(488,263,cs),
(457,120,o),
(361,35,o),
(255,35,cs)
);
}
);
width = 586;
}
);
note = thorn;
unicode = 254;
},
{
glyphname = q;
kernLeft = c;
lastChange = "2022-11-29 15:52:45 +0000";
layers = (
{
hints = (
{
horizontal = 1;
place = (-70, -7);
place = (-70, -7);
type = Stem;
},
{
horizontal = 1;
place = (476, -20);
target = down;
type = TopGhost;
},
{
place = (-26, 12);
place = (-26, 12);
type = Stem;
},
{
place = (395, 6);
place = (395, 6);
type = Stem;
},
{
horizontal = 1;
place = (437, -6);
place = (437, -6);
type = Stem;
}
);
layerId = m01;
shapes = (
{
closed = 1;
nodes = (
(570,532,l),
(508,532,l),
(488,438,l),
(467,495,l),
(441,527,o),
(393,543,o),
(341,543,cs),
(207,543,o),
(69,450,o),
(29,258,cs),
(-5,101,o),
(59,-14,o),
(207,-14,cs),
(268,-14,o),
(323,3,o),
(368,40,c),
(416,98,l),
(353,-196,l),
(415,-196,l)
);
},
{
closed = 1;
nodes = (
(110,35,o),
(71,139,o),
(98,266,cs),
(129,409,o),
(224,493,o),
(330,493,cs),
(408,493,o),
(489,442,o),
(457,292,cs),
(448,252,ls),
(414,92,o),
(320,35,o),
(226,35,cs)
);
}
);
width = 589;
}
);
note = q;
unicode = 113;
},
{
glyphname = r;
kernLeft = m;
kernRight = r;
lastChange = "2022-11-29 15:52:45 +0000";
layers = (
{
hints = (
{
horizontal = 1;
place = (-56, 21);
target = up;
type = BottomGhost;
},
{
horizontal = 1;
place = (485, -20);
target = down;
type = TopGhost;
},
{
place = (17, 6);
place = (17, 6);
type = Stem;
},
{
horizontal = 1;
place = (473, -20);
target = down;
type = TopGhost;
},
{
horizontal = 1;
place = (481, -20);
target = down;
type = TopGhost;
}
);
layerId = m01;
shapes = (
{
closed = 1;
nodes = (
(289,541,o),
(252,526,o),
(223,501,c),
(171,433,l),
(191,529,l),
(129,529,l),
(17,0,l),
(79,0,l),
(142,297,ls),
(172,438,o),
(252,495,o),
(342,488,c),
(353,537,l),
(344,540,o),
(334,541,o),
(323,541,cs)
);
}
);
width = 303;
}
);
note = r;
unicode = 114;
},
{
glyphname = racute;
kernLeft = m;
kernRight = r;
lastChange = "2022-11-29 15:52:45 +0000";
layers = (
{
hints = (
{
horizontal = 1;
place = (-56, 21);
target = up;
type = BottomGhost;
},
{
horizontal = 1;
place = (485, -20);
target = down;
type = TopGhost;
},
{
horizontal = 1;
place = (524, 54);
place = (524, 54);
type = Stem;
},
{
place = (17, 6);
place = (17, 6);
type = Stem;
},
{
horizontal = 1;
place = (473, -20);
target = down;
type = TopGhost;
},
{
horizontal = 1;
place = (481, -20);
target = down;
type = TopGhost;
}
);
layerId = m01;
shapes = (
{
closed = 1;
nodes = (
(246,580,l),
(348,690,l),
(288,690,l),
(204,580,l)
);
},
{
closed = 1;
nodes = (
(289,541,o),
(252,526,o),
(223,501,c),
(171,433,l),
(191,529,l),
(129,529,l),
(17,0,l),
(79,0,l),
(142,297,ls),
(172,438,o),
(252,495,o),
(342,488,c),
(353,537,l),
(344,540,o),
(334,541,o),
(323,541,cs)
);
}
);
width = 303;
}
);
note = racute;
unicode = 341;
},
{
glyphname = rcaron;
kernLeft = m;
kernRight = r;
lastChange = "2022-11-29 15:52:45 +0000";
layers = (
{
hints = (
{
horizontal = 1;
place = (-56, 21);
target = up;
type = BottomGhost;
},
{
horizontal = 1;
place = (485, -20);
target = down;
type = TopGhost;
},
{
horizontal = 1;
place = (524, 54);
place = (524, 54);
type = Stem;
},
{
place = (17, 6);
place = (17, 6);
type = Stem;
},
{
horizontal = 1;
place = (473, -20);
target = down;
type = TopGhost;
},
{
horizontal = 1;
place = (481, -20);
target = down;
type = TopGhost;
}
);
layerId = m01;
shapes = (
{
closed = 1;
nodes = (
(208,580,l),
(253,580,l),
(343,690,l),
(295,690,l),
(238,615,l),
(214,690,l),
(165,690,l)
);
},
{
closed = 1;
nodes = (
(289,541,o),
(252,526,o),
(223,501,c),
(171,433,l),
(191,529,l),
(129,529,l),
(17,0,l),
(79,0,l),
(142,297,ls),
(172,438,o),
(252,495,o),
(342,488,c),
(353,537,l),
(344,540,o),
(334,541,o),
(323,541,cs)
);
}
);
width = 303;
}
);
note = rcaron;
unicode = 345;
},
{
glyphname = rcommaaccent;
kernLeft = m;
kernRight = r;
lastChange = "2022-11-29 15:52:45 +0000";
layers = (
{
hints = (
{
horizontal = 1;
place = (-243, 80);
place = (-243, 80);
type = Stem;
},
{
horizontal = 1;
place = (-56, 21);
target = up;
type = BottomGhost;
},
{
horizontal = 1;
place = (485, -20);
target = down;
type = TopGhost;
},
{
place = (17, 6);
place = (17, 6);
type = Stem;
},
{
horizontal = 1;
place = (473, -20);
target = down;
type = TopGhost;
},
{
horizontal = 1;
place = (481, -20);
target = down;
type = TopGhost;
}
);
layerId = m01;
shapes = (
{
closed = 1;
nodes = (
(289,541,o),
(252,526,o),
(223,501,c),
(171,433,l),
(191,529,l),
(129,529,l),
(17,0,l),
(79,0,l),
(142,297,ls),
(172,438,o),
(252,495,o),
(342,488,c),
(353,537,l),
(344,540,o),
(334,541,o),
(323,541,cs)
);
},
{
closed = 1;
nodes = (
(13,-51,l),
(-65,-187,l),
(-19,-187,l),
(63,-60,l),
(65,-51,l)
);
}
);
width = 303;
}
);
note = rcommaaccent;
unicode = 343;
},
{
glyphname = s;
lastChange = "2022-11-29 15:52:45 +0000";
layers = (
{
hints = (
{
horizontal = 1;
place = (-70, -7);
place = (-70, -7);
type = Stem;
},
{
horizontal = 1;
place = (437, -6);
place = (437, -6);
type = Stem;
},
{
place = (-9, 8);
place = (-9, 8);
type = Stem;
},
{
place = (298, 7);
place = (298, 7);
type = Stem;
}
);
layerId = m01;
shapes = (
{
closed = 1;
nodes = (
(178,543,o),
(93,483,o),
(74,392,cs),
(55,301,o),
(122,264,o),
(208,240,cs),
(305,215,o),
(337,186,o),
(325,127,cs),
(312,66,o),
(250,35,o),
(183,35,cs),
(112,35,o),
(62,66,o),
(66,156,c),
(2,156,l),
(-9,36,o),
(64,-14,o),
(169,-14,cs),
(278,-14,o),
(369,38,o),
(389,132,cs),
(408,221,o),
(359,265,o),
(243,295,cs),
(171,314,o),
(127,338,o),
(139,399,cs),
(152,457,o),
(202,493,o),
(266,493,cs),
(337,493,o),
(372,454,o),
(372,381,c),
(437,381,l),
(444,474,o),
(397,543,o),
(282,543,cs)
);
}
);
width = 450;
}
);
note = s;
unicode = 115;
},
{
glyphname = sacute;
lastChange = "2022-11-29 15:52:45 +0000";
layers = (
{
hints = (
{
horizontal = 1;
place = (-70, -7);
place = (-70, -7);
type = Stem;
},
{
horizontal = 1;
place = (437, -6);
place = (437, -6);
type = Stem;
},
{
horizontal = 1;
place = (524, 54);
place = (524, 54);
type = Stem;
},
{
place = (-9, 8);
place = (-9, 8);
type = Stem;
},
{
place = (298, 7);
place = (298, 7);
type = Stem;
}
);
layerId = m01;
shapes = (
{
closed = 1;
nodes = (
(308,580,l),
(410,690,l),
(350,690,l),
(266,580,l)
);
},
{
closed = 1;
nodes = (
(178,543,o),
(93,483,o),
(74,392,cs),
(55,301,o),
(122,264,o),
(208,240,cs),
(305,215,o),
(337,186,o),
(325,127,cs),
(312,66,o),
(250,35,o),
(183,35,cs),
(112,35,o),
(62,66,o),
(66,156,c),
(2,156,l),
(-9,36,o),
(64,-14,o),
(169,-14,cs),
(278,-14,o),
(369,38,o),
(389,132,cs),
(408,221,o),
(359,265,o),
(243,295,cs),
(171,314,o),
(127,338,o),
(139,399,cs),
(152,457,o),
(202,493,o),
(266,493,cs),
(337,493,o),
(372,454,o),
(372,381,c),
(437,381,l),
(444,474,o),
(397,543,o),
(282,543,cs)
);
}
);
width = 450;
}
);
note = sacute;
unicode = 347;
},
{
glyphname = scaron;
lastChange = "2022-11-29 15:52:45 +0000";
layers = (
{
hints = (
{
horizontal = 1;
place = (-70, -7);
place = (-70, -7);
type = Stem;
},
{
horizontal = 1;
place = (437, -6);
place = (437, -6);
type = Stem;
},
{
horizontal = 1;
place = (524, 54);
place = (524, 54);
type = Stem;
},
{
place = (-9, 8);
place = (-9, 8);
type = Stem;
},
{
place = (298, 7);
place = (298, 7);
type = Stem;
}
);
layerId = m01;
shapes = (
{
closed = 1;
nodes = (
(270,580,l),
(315,580,l),
(405,690,l),
(357,690,l),
(300,615,l),
(276,690,l),
(227,690,l)
);
},
{
closed = 1;
nodes = (
(171,314,o),
(127,338,o),
(139,399,cs),
(152,457,o),
(202,493,o),
(266,493,cs),
(337,493,o),
(372,454,o),
(372,381,c),
(437,381,l),
(444,474,o),
(397,543,o),
(282,543,cs),
(178,543,o),
(93,483,o),
(74,392,cs),
(55,301,o),
(122,264,o),
(208,240,cs),
(305,215,o),
(337,186,o),
(325,127,cs),
(312,66,o),
(250,35,o),
(183,35,cs),
(112,35,o),
(62,66,o),
(66,156,c),
(2,156,l),
(-9,36,o),
(64,-14,o),
(169,-14,cs),
(278,-14,o),
(369,38,o),
(389,132,cs),
(408,221,o),
(359,265,o),
(243,295,cs)
);
}
);
width = 450;
}
);
note = scaron;
unicode = 353;
},
{
glyphname = scedilla;
lastChange = "2022-11-29 15:52:45 +0000";
layers = (
{
hints = (
{
horizontal = 1;
place = (-266, -22);
place = (-266, -22);
type = Stem;
},
{
horizontal = 1;
place = (-131, -25);
place = (-131, -25);
type = Stem;
},
{
horizontal = 1;
place = (-69, -8);
place = (-69, -8);
type = Stem;
},
{
horizontal = 1;
place = (437, -6);
place = (437, -6);
type = Stem;
},
{
place = (-9, 8);
place = (-9, 8);
type = Stem;
},
{
place = (216, -11);
place = (216, -11);
type = Stem;
},
{
place = (298, 7);
place = (298, 7);
type = Stem;
}
);
layerId = m01;
shapes = (
{
closed = 1;
nodes = (
(408,221,o),
(359,265,o),
(243,295,cs),
(171,314,o),
(127,338,o),
(139,399,cs),
(152,457,o),
(202,493,o),
(266,493,cs),
(337,493,o),
(372,454,o),
(372,381,c),
(437,381,l),
(444,474,o),
(397,543,o),
(282,543,cs),
(178,543,o),
(93,483,o),
(74,392,cs),
(55,301,o),
(122,264,o),
(208,240,cs),
(305,215,o),
(337,186,o),
(325,127,cs),
(312,66,o),
(250,35,o),
(183,35,cs),
(112,35,o),
(62,66,o),
(66,156,c),
(2,156,l),
(-8,44,o),
(54,-7,o),
(149,-13,c),
(103,-75,l),
(173,-70,o),
(197,-90,o),
(189,-126,cs),
(182,-158,o),
(152,-176,o),
(110,-176,cs),
(88,-176,o),
(73,-173,o),
(60,-165,c),
(52,-201,l),
(65,-207,o),
(81,-210,o),
(101,-210,cs),
(165,-210,o),
(222,-182,o),
(234,-125,cs),
(244,-77,o),
(219,-50,o),
(167,-44,c),
(191,-13,l),
(290,-7,o),
(370,45,o),
(389,132,cs)
);
}
);
width = 450;
}
);
note = scedilla;
unicode = 351;
},
{
glyphname = scommaaccent;
lastChange = "2022-11-29 15:52:45 +0000";
layers = (
{
hints = (
{
horizontal = 1;
place = (-243, 80);
place = (-243, 80);
type = Stem;
},
{
horizontal = 1;
place = (-70, -7);
place = (-70, -7);
type = Stem;
},
{
horizontal = 1;
place = (437, -6);
place = (437, -6);
type = Stem;
},
{
place = (-9, 8);
place = (-9, 8);
type = Stem;
},
{
place = (298, 7);
place = (298, 7);
type = Stem;
}
);
layerId = m01;
shapes = (
{
closed = 1;
nodes = (
(178,543,o),
(93,483,o),
(74,392,cs),
(55,301,o),
(122,264,o),
(208,240,cs),
(305,215,o),
(337,186,o),
(325,127,cs),
(312,66,o),
(250,35,o),
(183,35,cs),
(112,35,o),
(62,66,o),
(66,156,c),
(2,156,l),
(-9,36,o),
(64,-14,o),
(169,-14,cs),
(278,-14,o),
(369,38,o),
(389,132,cs),
(408,221,o),
(359,265,o),
(243,295,cs),
(171,314,o),
(127,338,o),
(139,399,cs),
(152,457,o),
(202,493,o),
(266,493,cs),
(337,493,o),
(372,454,o),
(372,381,c),
(437,381,l),
(444,474,o),
(397,543,o),
(282,543,cs)
);
},
{
closed = 1;
nodes = (
(193,-60,l),
(195,-51,l),
(143,-51,l),
(65,-187,l),
(111,-187,l)
);
}
);
width = 450;
}
);
note = scommaaccent;
unicode = 537;
},
